<svg id="visual" viewBox="0 0 900 600" width="900" height="600" xmlns="http://www.w3.org/2000/svg" xmlns:xlink="http://www.w3.org/1999/xlink" version="1.1"><rect x="0" y="0" width="900" height="600" fill="#001220"></rect><path d="M609 600L621.7 585.7C634.3 571.3 659.7 542.7 659 514.2C658.3 485.7 631.7 457.3 647 428.8C662.3 400.3 719.7 371.7 745.3 343C771 314.3 765 285.7 764.3 257C763.7 228.3 768.3 199.7 764.2 171.2C760 142.7 747 114.3 715.2 85.8C683.3 57.3 632.7 28.7 607.3 14.3L582 0L900 0L900 14.3C900 28.7 900 57.3 900 85.8C900 114.3 900 142.7 900 171.2C900 199.7 900 228.3 900 257C900 285.7 900 314.3 900 343C900 371.7 900 400.3 900 428.8C900 457.3 900 485.7 900 514.2C900 542.7 900 571.3 900 585.7L900 600Z" fill="#FA7268"></path></svg>