<?xml version="1.0" encoding="utf-8"?>
<!-- Generator: Adobe Illustrator 24.0.2, SVG Export Plug-In . SVG Version: 6.00 Build 0)  -->
<svg version="1.1" xmlns="http://www.w3.org/2000/svg" xmlns:xlink="http://www.w3.org/1999/xlink" x="0px" y="0px"
	 viewBox="0 0 841.89 595.28" style="enable-background:new 0 0 841.89 595.28;" xml:space="preserve">
<style type="text/css">
	.st0{fill:#66CC99;}
	.st1{opacity:0.78;fill:#66CC99;}
	.st2{opacity:0.44;fill:#FFFFFF;}
	.st3{opacity:0.78;}
	.st4{font-family:'LemonMilklight';}
	.st5{font-size:21.2235px;}
	.st6{opacity:0.33;fill:none;stroke:#FFFFFF;stroke-width:0.7087;stroke-miterlimit:10;}
	.st7{font-family:'Swiss721BT-Light';}
	.st8{font-size:24.2212px;}
	.st9{font-size:29.2541px;}
	.st10{font-family:'MicrosoftTaiLe-Bold';}
	.st11{font-size:15.9036px;}
	.st12{display:none;}
	.st13{display:inline;}
</style>
<g id="Capa_1">
	<g>
		<g>
			<path class="st0" d="M112.42,78.52c9.96-0.92,19.99-0.91,29.95-0.04c9.05,0.93,18.13,2.68,26.47,6.42
				c2.88,1.34,5.73,2.85,8.13,4.96c1.6,1.7,2.38,3.97,3.15,6.13c2.36,7.41,2.86,15.26,2.9,22.99c-0.19,13.59-2.66,27.44-9.15,39.51
				c-7.46,13.45-18.47,24.78-31.27,33.24c-4.75,3.1-9.73,5.9-15,8.05c-13.25-5.58-25.08-14.36-34.68-25.02
				c-4.55-5.15-8.6-10.78-11.88-16.83c-5.02-9.49-7.46-20.13-8.48-30.76c-0.62-9.77-0.56-19.74,1.96-29.26
				c0.81-2.74,1.68-5.6,3.52-7.85c1.91-1.84,4.27-3.12,6.6-4.34C93.28,81.45,102.88,79.53,112.42,78.52z M88.37,93.61
				c-1.75,0.96-3.97,1.78-4.6,3.89c-2.21,6.34-2.71,13.12-2.95,19.79c0.13,12.67,2.14,25.65,8.13,36.96
				c8.72,15.63,22.6,28.16,38.63,35.99c12.77-6.23,24.1-15.47,32.68-26.81c3.38-4.54,6.44-9.37,8.54-14.65
				c4-9.98,5.49-20.8,5.58-31.49c-0.19-6.12-0.7-12.29-2.4-18.2c-0.45-1.48-0.95-3.14-2.4-3.94c-4.74-2.95-10.12-4.71-15.53-5.99
				c-11.14-2.58-22.65-2.83-34.03-2.47C109.22,87.34,98.17,88.8,88.37,93.61z"/>
		</g>
	</g>
	<path class="st1" d="M128.4,129.41c0.03-2.89,0.03-5.79,0.05-8.68c0.01-2.61-0.16-5.21-0.27-7.81c-0.24-6.28,0.13-12.59-0.54-18.85
		c-0.02-0.22-0.05-0.66-0.07-0.88c-0.51,1.16-0.9,2.41-1.72,3.39c-1.26,1.48-3.03,2.46-4.14,4.07c-1.1,1.02-2.24,2.05-3.03,3.34
		c-2.05,2.51-3.91,5.23-5.2,8.21c-2.26,4.03-3.76,8.52-4.57,13.07c-2.24,9.29-1.65,19.4,2.48,28.1c2.88,5.99,6.86,11.57,12.06,15.76
		c0.74,0.94,1.77,1.59,2.7,2.32c0.73-3.16,1.29-6.36,1.69-9.58c0.19-3.19,0.38-6.38,0.56-9.56c0.05-0.94,0.11-1.88,0.18-2.81
		C128.23,142.79,128.71,136.1,128.4,129.41z"/>
	<path class="st0" d="M147.52,132.9c-0.32-5.32-2.02-10.43-3.97-15.35c-2.07-4.72-4.7-9.25-8.08-13.16
		c-1.34-1.61-2.84-3.08-4.25-4.62c-1.54-1.66-2.52-3.73-3.58-5.7c0.67,6.26,0.3,12.56,0.54,18.85c0.11,2.6,0.27,5.21,0.27,7.81
		c-0.02,2.89-0.02,5.79-0.05,8.68c0.32,6.69-0.16,13.39,0.19,20.08c-0.06,0.94-0.12,1.88-0.18,2.81c-0.19,3.19-0.38,6.37-0.56,9.56
		c0.24,2.24,0.57,4.49,1.25,6.65c0.56,0.75,1.18,1.45,1.8,2.15c9.34-6.81,15.42-17.76,16.6-29.23
		C147.61,138.59,147.71,135.74,147.52,132.9z"/>
	<path class="st2" d="M130.89,170.66c-0.62-0.7-1.24-1.4-1.8-2.15c-0.67-2.16-1.01-4.41-1.25-6.65c-0.4,3.22-0.96,6.42-1.69,9.58
		c-0.08,0.7,0.29,1.37,0.47,2.03c0.43,2.61,0.66,5.24,0.77,7.88l-0.04,0.35c0.8,0.18,1.59,0.38,2.39,0.56
		c-0.03-0.97-0.03-1.94-0.12-2.9C129.76,176.44,129.24,173.27,130.89,170.66z"/>
	<g>
		<g>
			<path class="st0" d="M154.24,206.29c2.36,0.02,4.71,0.08,7.07,0c2.58,0,5.26-0.29,7.71,0.67c2.86,1.02,5.02,3.62,5.64,6.57
				c0.84,3.81-0.15,8.26-3.34,10.73c-2.66,2.22-6.24,2.76-9.59,2.68c-2.58-0.08-5.18,0.02-7.74-0.31c0.62-1.02,1.75-1.31,2.74-1.81
				c0.58-3.34,0.16-6.78,0.29-10.16c-0.13-2.11,0.32-4.32-0.31-6.36c-0.91-0.51-1.97-0.6-2.97-0.8
				C153.91,207.09,154.08,206.69,154.24,206.29z M160.33,207.97c-0.15,4.05-0.04,8.11-0.08,12.16c0.02,1.16-0.07,2.35,0.16,3.5
				c0.19,0.84,1.05,1.28,1.82,1.45c2.2,0.51,4.77,0.26,6.49-1.33c1.67-1.4,2.49-3.57,2.68-5.69c0.31-2.76-0.24-5.82-2.26-7.85
				C166.92,207.87,163.37,207.39,160.33,207.97z"/>
		</g>
		<g>
			<path class="st0" d="M177.36,206.27c2.95,0.13,5.9,0.03,8.85,0.01c1.63-0.03,3.36,0.13,4.75,1.08c1.75,1.1,2.28,3.6,1.41,5.42
				c-0.5,1.09-1.56,1.74-2.5,2.4c1.69,0.65,3.57,1.54,4.17,3.4c0.39,1.81,0.3,3.97-1.05,5.38c-2.1,2.37-5.44,3.03-8.48,2.99
				c-2.55-0.01-5.09-0.2-7.63-0.16c0.07-0.28,0.2-0.85,0.27-1.13c0.85-0.23,1.69-0.46,2.54-0.71c0.41-3.14,0.2-6.31,0.25-9.47
				c-0.04-2.47,0.19-4.95-0.2-7.4c-0.95-0.25-1.91-0.44-2.88-0.63C177.02,207.07,177.19,206.67,177.36,206.27z M183.18,207.85
				c-0.11,2.37-0.11,4.75-0.09,7.13c1.59-0.05,3.27,0.25,4.81-0.3c1.93-0.99,2.03-3.89,0.79-5.46
				C187.31,207.68,185.05,207.78,183.18,207.85z M183.1,216.47c-0.02,2.21-0.09,4.42,0.02,6.63c0.02,0.88,0.51,1.88,1.46,2.02
				c1.74,0.39,3.84,0.34,5.18-1c1.66-1.81,1.52-5.16-0.6-6.57C187.39,216.32,185.13,216.51,183.1,216.47z"/>
		</g>
	</g>
	<g>
		<path class="st0" d="M61.24,214.47c1.76-0.54,3.57-0.91,5.32-1.46c0,0.7,0,1.41,0,2.12c1.54-0.92,3.09-2.15,4.97-2.12
			c1.46-0.01,2.47,1.15,3.37,2.12c1.7-1.12,3.61-2.52,5.77-2.02c1.88,0.38,3,2.28,3.15,4.08c0.24,2.59-0.03,5.21,0.12,7.81
			c0.69,0.21,1.38,0.41,2.08,0.6c0.05,0.26,0.15,0.78,0.2,1.03c-2.41,0.02-4.82,0.09-7.23-0.08c0.72-0.64,1.4-1.31,2.13-1.94
			c0.19-2.18,0.15-4.38,0.04-6.56c-0.02-1.27-0.83-2.56-2.13-2.83c-1.38-0.35-2.68,0.36-3.86,0.98c0.19,2.84-0.04,5.69,0.14,8.53
			c0.54,0.58,1.37,0.72,2.07,1.06c-0.01,0.22-0.03,0.67-0.05,0.9c-2.3-0.03-4.6-0.02-6.9,0.01c0.01-0.22,0.03-0.66,0.03-0.88
			c0.68-0.29,1.4-0.51,2.02-0.94c0.28-1.72,0.19-3.46,0.21-5.19c-0.03-1.42-0.01-3.11-1.19-4.12c-1.49-1.1-3.79-0.45-4.9,0.89
			c-0.2,2.82-0.08,5.66,0.01,8.49c0.86,0.38,1.92,0.64,2.28,1.64c-2.5,0.11-5.01,0.12-7.5-0.01c0.51-0.91,1.51-1.25,2.4-1.66
			c0.22-2.97,0.23-5.95,0.11-8.93C63.01,215.47,62.11,214.99,61.24,214.47z"/>
		<g>
			<path class="st0" d="M93.65,213.27c2.6-0.75,5.75-0.04,7.31,2.3c1.42,2.09,1.51,4.91,0.61,7.22c-1.59,4.02-7.31,5.53-10.71,2.9
				c-2.32-1.82-2.86-5.13-2.2-7.86C89.28,215.52,91.38,213.85,93.65,213.27z M93.2,214.75c-1.47,0.77-1.89,2.58-1.91,4.11
				c0,2.11,0.53,4.47,2.24,5.86c1.4,1.16,3.89,1.19,4.92-0.47c1.1-2.06,0.96-4.62,0.2-6.77C97.94,215.32,95.38,213.64,93.2,214.75z"
				/>
		</g>
		<path class="st0" d="M103.92,214.6c1.79-0.78,3.73-1.09,5.6-1.66c0,0.7-0.01,1.41-0.02,2.11c1.48-1.05,3.09-2.29,5.02-2.16
			c1.74,0.11,3.19,1.53,3.58,3.19c0.66,2.79,0.06,5.69,0.42,8.51c0.35,0.73,1.45,0.7,2.12,1.06c-0.03,0.29-0.08,0.86-0.11,1.15
			c-2.3-0.11-4.6-0.09-6.9,0c-0.02-0.27-0.06-0.82-0.08-1.1c0.66-0.39,1.98-0.37,1.98-1.37c0.07-2.36,0.17-4.75-0.16-7.1
			c-0.58-2.57-4.35-2.63-5.73-0.75c-0.28,2.8-0.07,5.64-0.01,8.45c0.91,0.38,2.23,0.53,2.17,1.8c-2.42,0-4.84-0.03-7.26,0.02
			c0-0.26,0-0.78,0-1.03c0.66-0.35,1.52-0.44,2-1.05c0.27-2.88,0.15-5.78,0.1-8.67C105.72,215.56,104.8,215.11,103.92,214.6z"/>
		<g>
			<path class="st0" d="M124.13,214.54c1.99-1.54,4.76-1.96,7.11-1.01c1.52,0.68,3.17,0.46,4.71-0.03c-0.19,0.59-0.35,1.2-0.59,1.78
				c-0.57,0.51-1.43,0.37-2.14,0.51c0.15,1.72,0.2,3.72-1.15,5.02c-1.39,1.58-3.56,1.91-5.53,2.19c-0.06,0.45-0.11,0.91-0.16,1.37
				c2.16,0.6,4.44,0.41,6.62,0.92c1.23,0.26,2.23,1.3,2.46,2.54c0.33,1.65-0.44,3.32-1.58,4.49c-1.74,1.75-4.24,2.71-6.7,2.57
				c-1.73,0-3.58-0.63-4.61-2.09c-0.64-0.9-1.03-2.22-0.35-3.19c0.76-1.04,1.87-1.74,2.88-2.51c-0.82-0.68-1.55-1.45-2.16-2.32
				c0.86-0.65,1.76-1.26,2.64-1.88c-0.88-0.6-1.91-1.08-2.5-2.02C121.93,218.86,122.22,215.98,124.13,214.54z M126.91,214.37
				c-3.23,1.2-2.04,7.36,1.52,7.11c2.19-0.2,2.58-2.93,2.15-4.65C130.31,215.14,128.58,213.89,126.91,214.37z M126.47,227.44
				c-1.41,0.54-2.66,2.2-1.86,3.7c1.27,2.29,4.51,2.46,6.71,1.58c1.77-0.67,2.61-3.4,0.89-4.58
				C130.48,227.24,128.35,227.07,126.47,227.44z"/>
		</g>
		<g>
			<path class="st0" d="M142.54,213.27c2.6-0.75,5.75-0.03,7.32,2.3c1.42,2.09,1.51,4.91,0.62,7.23c-1.63,4.11-7.61,5.6-10.95,2.71
				c-2.28-2.01-2.71-5.52-1.75-8.29C138.56,215.2,140.48,213.8,142.54,213.27z M142.09,214.75c-1.61,0.86-1.96,2.89-1.91,4.55
				c0.08,2.15,0.75,4.61,2.74,5.75c1.58,0.98,4.06,0.53,4.71-1.36c0.79-2.27,0.65-4.94-0.51-7.07
				C146.2,214.89,143.91,213.81,142.09,214.75z"/>
		</g>
	</g>
	<g class="st3">
		<path class="st0" d="M279.47,78.43h0.17c-0.24,4.68-0.11,9.38-0.07,14.07c-11.62,26.12-23.49,52.15-35.12,78.27
			c4.38-0.11,8.75-0.32,13.13-0.29c2.36-5.92,4.73-11.83,7.11-17.73c4.96,0.03,9.92,0,14.88,0.02c-0.15,13.62-0.01,27.24-0.05,40.86
			c-0.01,1.98-0.1,3.96,0.14,5.93h-0.15c-15.89-8.86-31.81-17.65-47.7-26.49c-2.93-24.84-5.67-49.71-8.72-74.54
			C241.9,91.84,260.7,85.19,279.47,78.43z"/>
		<path class="st0" d="M269.32,142.5c3.41-7.96,6.64-16,10.09-23.95c0.3,7.98-0.01,15.97,0.17,23.95
			C276.16,142.5,272.74,142.5,269.32,142.5z"/>
	</g>
	<g>
		<path class="st0" d="M279.65,78.43h0.21c19.1,6.79,38.42,13.04,57.52,19.81c-3.12,24.81-6.29,49.6-9.3,74.42
			c-15.98,8.91-31.99,17.77-48.03,26.56c-0.04,0.08-0.11,0.24-0.15,0.32h-0.24c-0.24-1.97-0.15-3.96-0.14-5.93
			c0.04-13.62-0.09-27.24,0.05-40.86c5.52,0.04,11.04-0.11,16.56,0.08c2.45,5.96,5.03,11.88,7.67,17.75
			c4.16,0.13,8.31,0.2,12.47,0.28c-12.21-26.14-24.48-52.25-36.7-78.38C279.54,87.81,279.41,83.12,279.65,78.43z"/>
		<path class="st0" d="M279.6,117.85l0.38,0.37c3.8,8.12,7.68,16.22,11.62,24.27c-4.01,0.02-8.02,0.01-12.02,0.01
			c-0.18-7.98,0.12-15.97-0.17-23.95L279.6,117.85z"/>
	</g>
	<text transform="matrix(1 0 0 1 225.9406 228.3648)" class="st0 st4 st5">ANGULAR</text>
	<g>
		<g>
			<path class="st0" d="M157.62,329.68c-0.17-0.25-0.25-0.5-0.23-0.74c0.01-0.24,0.14-0.43,0.39-0.58c0.17-0.15,0.36-0.21,0.58-0.19
				c0.22,0.02,0.42,0.13,0.61,0.31c0.56,0.73,1.25,1.32,2.05,1.77c0.8,0.45,1.76,0.67,2.86,0.67c0.58,0,1.16-0.1,1.74-0.3
				c0.57-0.2,1.05-0.5,1.42-0.91c0.38-0.41,0.56-0.92,0.56-1.55c0-0.65-0.19-1.16-0.56-1.55c-0.38-0.39-0.86-0.7-1.46-0.94
				c-0.59-0.24-1.24-0.44-1.92-0.61c-0.71-0.19-1.39-0.4-2.05-0.64c-0.66-0.24-1.25-0.54-1.77-0.91c-0.52-0.36-0.93-0.81-1.24-1.33
				c-0.3-0.52-0.45-1.16-0.45-1.91c0-0.88,0.23-1.65,0.7-2.32c0.47-0.67,1.12-1.19,1.96-1.56c0.83-0.38,1.76-0.56,2.78-0.56
				c0.54,0,1.12,0.07,1.72,0.2s1.2,0.36,1.78,0.67c0.58,0.31,1.1,0.74,1.56,1.28c0.19,0.19,0.28,0.4,0.28,0.64
				c0,0.24-0.1,0.46-0.31,0.67c-0.17,0.13-0.36,0.18-0.58,0.17c-0.22-0.01-0.4-0.1-0.55-0.27c-0.5-0.56-1.1-0.99-1.78-1.27
				c-0.69-0.28-1.43-0.42-2.22-0.42c-0.61,0-1.17,0.09-1.71,0.28c-0.53,0.19-0.98,0.48-1.33,0.88c-0.35,0.4-0.53,0.92-0.53,1.56
				c0.04,0.61,0.25,1.09,0.64,1.47c0.39,0.38,0.9,0.69,1.53,0.94s1.35,0.48,2.14,0.69c0.67,0.17,1.31,0.37,1.92,0.59
				s1.16,0.52,1.63,0.86c0.47,0.34,0.85,0.78,1.13,1.3c0.28,0.52,0.42,1.18,0.42,1.97c0,0.92-0.26,1.71-0.77,2.38
				s-1.19,1.18-2.05,1.53c-0.86,0.35-1.8,0.53-2.85,0.53c-1.13,0-2.22-0.22-3.27-0.66C159.37,331.43,158.44,330.7,157.62,329.68z"/>
			<path class="st0" d="M189.16,324.21c0,1.58-0.34,3.01-1.03,4.27c-0.69,1.26-1.63,2.25-2.82,2.97s-2.54,1.08-4.07,1.08
				c-1.48,0-2.82-0.36-4.02-1.08c-1.2-0.72-2.15-1.71-2.85-2.97c-0.7-1.26-1.05-2.69-1.05-4.27c0-1.61,0.35-3.04,1.05-4.29
				c0.7-1.25,1.65-2.24,2.85-2.97c1.2-0.73,2.54-1.1,4.02-1.1c1.52,0,2.88,0.37,4.07,1.1s2.13,1.72,2.82,2.97
				C188.82,321.17,189.16,322.6,189.16,324.21z M187.28,324.21c0-1.27-0.26-2.4-0.78-3.39c-0.52-0.99-1.24-1.77-2.14-2.33
				c-0.91-0.56-1.94-0.84-3.11-0.84c-1.13,0-2.15,0.28-3.07,0.84c-0.92,0.56-1.64,1.34-2.17,2.33c-0.53,0.99-0.8,2.12-0.8,3.39
				s0.27,2.4,0.8,3.38c0.53,0.98,1.26,1.76,2.17,2.33c0.92,0.57,1.94,0.86,3.07,0.86c1.17,0,2.21-0.29,3.11-0.86
				c0.91-0.57,1.62-1.35,2.14-2.33C187.02,326.6,187.28,325.48,187.28,324.21z"/>
			<path class="st0" d="M201.27,315.85c1,0,1.92,0.11,2.75,0.33c0.83,0.22,1.51,0.52,2.02,0.89c0.51,0.38,0.77,0.78,0.77,1.22
				c0,0.21-0.07,0.41-0.22,0.61c-0.15,0.2-0.34,0.3-0.59,0.3c-0.27,0-0.49-0.06-0.64-0.17c-0.16-0.11-0.31-0.26-0.45-0.44
				c-0.15-0.18-0.37-0.33-0.66-0.45c-0.27-0.15-0.66-0.27-1.17-0.36s-1.08-0.14-1.71-0.14c-1.17,0-2.22,0.29-3.16,0.88
				c-0.94,0.58-1.68,1.37-2.22,2.35c-0.54,0.98-0.81,2.09-0.81,3.32c0,1.25,0.26,2.38,0.78,3.38c0.52,1,1.24,1.79,2.16,2.36
				c0.92,0.57,1.99,0.86,3.22,0.86c0.81,0,1.46-0.07,1.92-0.22c0.47-0.15,0.86-0.31,1.17-0.5c0.42-0.23,0.71-0.45,0.89-0.67
				c0.18-0.22,0.41-0.33,0.7-0.33c0.27,0,0.47,0.08,0.61,0.23c0.14,0.16,0.2,0.36,0.2,0.61c0,0.33-0.25,0.7-0.74,1.11
				c-0.49,0.41-1.16,0.76-2.02,1.06c-0.86,0.3-1.85,0.45-2.97,0.45c-1.54,0-2.9-0.36-4.08-1.09c-1.18-0.73-2.1-1.73-2.75-2.99
				c-0.66-1.26-0.99-2.69-0.99-4.27c0-1.52,0.33-2.91,1-4.16c0.67-1.25,1.6-2.26,2.78-3.02S199.66,315.85,201.27,315.85z"/>
			<path class="st0" d="M212.63,332.21c-0.27,0-0.5-0.09-0.67-0.28c-0.18-0.19-0.27-0.41-0.27-0.66V310c0-0.25,0.09-0.47,0.27-0.66
				c0.18-0.19,0.4-0.28,0.67-0.28c0.27,0,0.5,0.09,0.67,0.28c0.18,0.19,0.27,0.41,0.27,0.66v21.28c0,0.25-0.09,0.47-0.27,0.66
				C213.12,332.12,212.9,332.21,212.63,332.21z M223.23,316.16c0.25,0,0.47,0.1,0.66,0.3c0.19,0.2,0.28,0.41,0.28,0.64
				c0,0.27-0.11,0.51-0.34,0.72l-10.51,8.95l-0.09-2.22l9.39-8.07C222.8,316.27,223,316.16,223.23,316.16z M223.52,332.21
				c-0.27,0-0.51-0.11-0.72-0.34l-7.1-7.57l1.41-1.28l7.07,7.54c0.19,0.21,0.28,0.45,0.28,0.72c0,0.29-0.12,0.52-0.34,0.69
				C223.88,332.13,223.68,332.21,223.52,332.21z"/>
			<path class="st0" d="M236.53,332.53c-1.61,0-3.02-0.34-4.25-1.03c-1.23-0.69-2.19-1.65-2.88-2.88c-0.69-1.23-1.03-2.67-1.03-4.32
				c0-1.77,0.35-3.29,1.05-4.54c0.7-1.25,1.61-2.22,2.72-2.89c1.12-0.68,2.3-1.02,3.55-1.02c0.92,0,1.81,0.16,2.68,0.49
				c0.87,0.32,1.64,0.8,2.32,1.44c0.68,0.64,1.22,1.41,1.63,2.33s0.63,1.98,0.67,3.19c-0.02,0.25-0.13,0.46-0.31,0.64
				c-0.19,0.18-0.41,0.27-0.66,0.27h-12.55l-0.38-1.69h12.33l-0.41,0.38v-0.63c-0.1-0.98-0.43-1.81-0.97-2.49
				c-0.54-0.68-1.19-1.2-1.96-1.56c-0.76-0.36-1.56-0.55-2.39-0.55c-0.63,0-1.27,0.13-1.92,0.38c-0.66,0.25-1.25,0.64-1.78,1.17
				c-0.53,0.53-0.97,1.21-1.3,2.03c-0.33,0.82-0.5,1.8-0.5,2.93c0,1.23,0.25,2.35,0.75,3.35c0.5,1,1.23,1.79,2.17,2.38
				c0.95,0.58,2.08,0.88,3.39,0.88c0.73,0,1.38-0.1,1.96-0.31c0.57-0.21,1.08-0.49,1.53-0.83c0.45-0.34,0.82-0.7,1.11-1.08
				c0.23-0.19,0.45-0.28,0.66-0.28c0.23,0,0.42,0.08,0.58,0.25c0.16,0.17,0.23,0.36,0.23,0.56c0,0.25-0.1,0.47-0.31,0.66
				c-0.63,0.75-1.44,1.4-2.44,1.96C238.81,332.25,237.72,332.53,236.53,332.53z"/>
			<path class="st0" d="M247.01,316.29h7.29c0.25,0,0.46,0.09,0.63,0.27c0.17,0.18,0.25,0.39,0.25,0.64s-0.08,0.46-0.25,0.63
				s-0.38,0.25-0.63,0.25h-7.29c-0.25,0-0.46-0.09-0.64-0.27c-0.18-0.18-0.27-0.39-0.27-0.64s0.09-0.46,0.27-0.63
				C246.55,316.37,246.76,316.29,247.01,316.29z M250.23,311.88c0.27,0,0.5,0.09,0.67,0.28s0.27,0.41,0.27,0.66v15.71
				c0,0.58,0.08,1.02,0.23,1.31c0.16,0.29,0.36,0.49,0.61,0.58c0.25,0.09,0.5,0.14,0.75,0.14c0.17,0,0.32-0.03,0.45-0.08
				s0.29-0.08,0.45-0.08c0.19,0,0.35,0.07,0.49,0.22c0.14,0.15,0.2,0.33,0.2,0.56c0,0.29-0.17,0.54-0.5,0.74
				c-0.33,0.2-0.73,0.3-1.19,0.3c-0.19,0-0.47-0.02-0.84-0.05s-0.76-0.15-1.16-0.34c-0.4-0.2-0.73-0.55-1-1.05
				c-0.27-0.5-0.41-1.22-0.41-2.16v-15.8c0-0.25,0.09-0.47,0.28-0.66C249.73,311.97,249.96,311.88,250.23,311.88z"/>
			<path class="st0" d="M262.16,331.25c-0.02,0.27-0.13,0.5-0.33,0.69c-0.2,0.19-0.42,0.28-0.67,0.28c-0.31,0-0.55-0.09-0.72-0.28
				c-0.17-0.19-0.25-0.42-0.25-0.69v-19.96c0-0.27,0.09-0.5,0.28-0.69c0.19-0.19,0.43-0.28,0.72-0.28c0.25,0,0.47,0.09,0.67,0.28
				c0.2,0.19,0.3,0.42,0.3,0.69V331.25z"/>
			<path class="st0" d="M288.59,321.26c0,1.65-0.26,3.16-0.77,4.52s-1.24,2.56-2.17,3.57c-0.94,1.01-2.05,1.79-3.33,2.35
				c-1.28,0.55-2.69,0.83-4.21,0.83c-1.54,0-2.95-0.28-4.22-0.83c-1.27-0.55-2.38-1.33-3.32-2.35c-0.94-1.01-1.67-2.2-2.19-3.57
				c-0.52-1.37-0.78-2.87-0.78-4.52c0-1.65,0.26-3.15,0.78-4.52c0.52-1.37,1.25-2.56,2.19-3.57s2.04-1.79,3.32-2.35
				s2.68-0.83,4.22-0.83c1.52,0,2.93,0.28,4.21,0.83c1.28,0.55,2.39,1.33,3.33,2.35s1.66,2.2,2.17,3.57S288.59,319.62,288.59,321.26
				z M286.59,321.26c0-1.86-0.37-3.49-1.09-4.9c-0.73-1.41-1.73-2.51-2.99-3.3c-1.26-0.79-2.73-1.19-4.4-1.19
				c-1.65,0-3.11,0.4-4.4,1.19c-1.28,0.79-2.28,1.89-3,3.3c-0.72,1.41-1.08,3.04-1.08,4.9c0,1.86,0.36,3.49,1.08,4.9
				c0.72,1.41,1.72,2.51,3,3.3s2.75,1.19,4.4,1.19c1.67,0,3.13-0.4,4.4-1.19c1.26-0.79,2.26-1.89,2.99-3.3
				C286.23,324.75,286.59,323.12,286.59,321.26z"/>
		</g>
	</g>
	<g>
		<path class="st0" d="M504.78,102.77c0.24-0.11,0.55-0.1,0.79,0.02c2.82,1.53,5.62,3.12,8.43,4.67c0.55,0.29,1.01,0.86,0.99,1.51
			c-0.01,13.66,0.01,27.31-0.01,40.97c0.06,0.71-0.36,1.39-0.99,1.7c-4.6,2.66-9.21,5.31-13.81,7.98c-0.59,0.41-1.4,0.59-2.04,0.2
			c-4.79-2.79-9.61-5.52-14.4-8.3c-0.62-0.36-0.87-1.11-0.83-1.8c0.01-2.21,0.07-4.43,0.01-6.64c-0.06-3.14,0.08-6.28-0.01-9.41
			c-0.01-0.62,0.29-1.26,0.84-1.57c4.67-2.65,9.29-5.37,13.95-8.03c0.56-0.41,1.33-0.64,1.99-0.3c1.28,0.66,2.47,1.49,3.76,2.13
			c0.36,0.25,0.87-0.12,0.82-0.53c0.08-2.82-0.02-5.65,0-8.48c0.07-4.49-0.06-8.98,0.04-13.47
			C504.31,103.14,504.53,102.9,504.78,102.77z M498.72,135.83c-1.55,0.9-3.1,1.81-4.66,2.69c-0.19,0.12-0.49,0.23-0.44,0.51
			c-0.03,1.85-0.01,3.7,0.01,5.55c-0.05,0.27,0.21,0.4,0.4,0.53c1.4,0.82,2.83,1.6,4.22,2.45c0.27,0.11,0.56,0.44,0.86,0.27
			c1.58-0.88,3.12-1.8,4.68-2.7c0.2-0.13,0.48-0.27,0.43-0.55c0.04-1.72,0.01-3.45,0.03-5.17c-0.02-0.27,0.05-0.65-0.27-0.77
			c-1.55-0.9-3.09-1.81-4.64-2.7C499.15,135.84,498.93,135.68,498.72,135.83z"/>
	</g>
	<path class="st0" d="M419.75,123.61c0.6-0.4,1.39-0.55,2.03-0.15c4.73,2.71,9.48,5.41,14.2,8.13c0.63,0.32,1,1.03,0.95,1.73
		c-0.08,7.32,0.03,14.64-0.07,21.95c0.05,0.63-0.76,1.05-1.27,0.71c-2.84-1.57-5.66-3.21-8.48-4.81c-0.65-0.35-0.98-1.09-0.91-1.8
		c0.04-3.38,0-6.77-0.01-10.15c0-0.64-0.43-1.2-0.99-1.47c-1.14-0.64-2.28-1.27-3.4-1.93c-0.51-0.32-1.18-0.35-1.7-0.04
		c-1.23,0.65-2.43,1.37-3.64,2.07c-0.57,0.3-0.88,0.94-0.83,1.58c0.02,3.14-0.08,6.28,0.01,9.41c0.01,0.71,0.03,1.54-0.55,2.05
		c-2.82,1.77-5.77,3.32-8.64,5c-0.3,0.2-0.65,0.23-0.99,0.25c-0.31-0.27-0.62-0.59-0.56-1.03c0.03-7.32-0.01-14.63,0.02-21.95
		c-0.05-0.69,0.43-1.3,1.01-1.61C410.53,128.9,415.14,126.25,419.75,123.61z"/>
	<path class="st0" d="M537.61,123.47c0.74-0.24,1.44,0.19,2.03,0.58c4.48,2.57,8.93,5.21,13.42,7.77c0.56,0.28,0.99,0.87,0.94,1.51
		c-0.04,1.41-0.01,2.83-0.02,4.24c0.01,0.67-0.55,1.18-1.11,1.46c-2.79,1.57-5.51,3.27-8.31,4.8c-0.52,0.33-1.31-0.08-1.27-0.71
		c-0.02-1.36,0.01-2.73-0.01-4.09c0.04-0.4-0.3-0.67-0.61-0.84c-1.29-0.75-2.59-1.47-3.86-2.25c-0.37-0.21-0.83-0.53-1.25-0.24
		c-1.46,0.8-2.89,1.68-4.34,2.51c-0.38,0.19-0.64,0.57-0.6,1c0.01,1.67-0.04,3.34,0.04,5c0.02,0.59,0.66,0.78,1.07,1.04
		c4.46,2.6,8.97,5.12,13.44,7.72c0.39,0.18,0.77,0.55,0.71,1.02c-0.12,0.62-0.79,0.81-1.26,1.09c-2.37,1.33-4.75,2.63-7.12,3.96
		c-0.69,0.48-1.62,0.86-2.4,0.36c-4.7-2.68-9.4-5.36-14.09-8.04c-0.47-0.26-0.85-0.72-0.93-1.26c-0.14-4.12,0.05-8.25-0.06-12.37
		c0.01-1.48-0.03-2.96,0.04-4.44c0-0.65,0.44-1.23,1.01-1.52c4.41-2.54,8.81-5.1,13.22-7.64
		C536.73,123.92,537.14,123.63,537.61,123.47z"/>
	<path class="st0" d="M459.26,123.69c0.73-0.25,1.51-0.02,2.12,0.41c2.96,1.79,6.02,3.41,8.97,5.21c1.51,0.81,2.97,1.69,4.46,2.54
		c0.6,0.33,1.1,0.92,1.04,1.65c0.02,5.41,0.01,10.82-0.01,16.23c0.05,0.61-0.28,1.19-0.8,1.51c-4.27,2.5-8.6,4.93-12.88,7.41
		c-0.51,0.3-1.03,0.59-1.56,0.85c-0.49,0.24-1.09,0.22-1.55-0.07c-4.69-2.69-9.37-5.38-14.06-8.07c-0.51-0.28-0.96-0.8-0.92-1.42
		c0.02-5.54,0.01-11.07,0-16.61c-0.07-0.63,0.37-1.17,0.9-1.44c2.16-1.21,4.3-2.47,6.46-3.69c1.62-0.9,3.21-1.86,4.83-2.75
		C457.23,124.81,458.28,124.32,459.26,123.69z"/>
	<path class="st0" d="M537.67,138.25c0.26-0.14,0.59-0.09,0.84,0.06c0.84,0.46,1.65,0.97,2.49,1.43c0,1.21,0.01,2.41,0,3.62
		c-0.88,0.49-1.76,0.98-2.63,1.48c-0.25,0.12-0.57,0.09-0.8-0.06c-0.84-0.52-1.72-0.97-2.56-1.51c0.03-1.17,0-2.35,0.02-3.52
		C535.91,139.23,536.79,138.75,537.67,138.25z"/>
	<path class="st0" d="M471.94,181.13c-0.01-1.4-0.02-2.8-0.02-4.2c0-2.75,0.01-5.49,0.04-8.24c0.73-0.03,1.46-0.01,2.2-0.01
		c0.02,0,0.05,13.91,0.06,16.49c0,1.53-1.18,2.99-2.7,3.24c-0.88,0.27-1.79,0.04-2.68-0.06c-1.72-0.58-3.22-1.65-4.82-2.5
		c-0.96-0.45-1.67-1.45-1.67-2.52c-0.01-5.23,0-10.46,0-15.69c-0.05-0.98,0.62-1.85,1.43-2.34c4.17-2.43,8.34-4.85,12.54-7.23
		c0.73-0.44,1.51-0.94,2.4-0.86c1.06,0.01,1.9,0.74,2.79,1.2c3.89,2.26,7.79,4.52,11.7,6.76c0.95,0.43,1.61,1.41,1.64,2.46
		c0.02,5.24-0.01,10.47,0.01,15.71c0.05,1.09-0.77,2-1.67,2.5c-4.41,2.54-8.81,5.08-13.23,7.6c-0.89,0.55-2.1,0.47-2.95-0.11
		c-1.59-0.98-3.25-1.85-4.77-2.93c0.84-0.3,1.67-0.63,2.43-1.1c0.47,0.31,2.85,1.66,3.87,2.24c4.53-2.55,9.01-5.19,13.53-7.76
		c0.29-0.17,0.59-0.45,0.54-0.81c-0.02-2.62-0.09-5.22-0.06-7.86c0.03-2.56,0.03-5.13-0.1-7.67c-4.65-2.64-9.28-5.34-13.92-8
		c-1.74,1.15-3.61,2.1-5.4,3.17c-2.78,1.61-5.56,3.24-8.36,4.82c-0.08,0.05-0.1,1.14-0.11,1.32c-0.03,0.61,0,1.23,0,1.84
		c0,1.22,0,2.45,0,3.67c0,3.04,0.11,6.1-0.06,9.13c0.32,0.26,0.66,0.48,1.03,0.67c1.29,0.67,2.47,1.56,3.83,2.09
		c0.32,0.01,0.64,0.01,0.96,0.01c0.73-0.22,1.25-0.8,1.51-1.5"/>
	<path class="st0" d="M479.81,168.53c1.05-0.25,2.17-0.3,3.17-0.24c1.45,0.08,2.95,0.37,4.13,1.22c1.18,0.85,1.96,2.37,1.61,3.79
		c-0.64,0.01-1.28,0.02-1.91,0.03c-0.08,0-0.16,0-0.22-0.05c-0.05-0.05-0.07-0.12-0.08-0.19c-0.25-1.11-1.22-1.96-2.3-2.32
		c-1.08-0.36-2.26-0.3-3.38-0.1c-0.53,0.09-1.08,0.23-1.5,0.56c-0.63,0.49-0.56,1.15-0.54,1.86c0.45,0.51,1.11,0.68,1.74,0.86
		c0.32,0.02,0.64,0.05,0.94,0.18c1.94,0.25,3.93,0.36,5.77,1.06c1.15,0.44,2.19,1.48,2.15,2.79c0.13,1.06-0.07,2.22-0.76,3.08
		c-0.95,1.24-2.54,1.7-4.01,1.95c-1.86,0.15-3.75,0.13-5.56-0.37c-1.37-0.44-2.71-1.38-3.13-2.82c-0.14-0.61-0.37-1.26-0.21-1.88
		c0.74-0.24,1.57-0.07,2.35-0.07c0.01,0.22,0.03,0.44,0.05,0.66c0.21,0.41,0.32,0.89,0.64,1.24c0.36,0.42,0.89,0.63,1.39,0.82
		c0.26,0.02,0.52,0.07,0.76,0.19c1.43,0.05,2.86,0.1,4.27-0.19c0.76-0.16,1.62-1,1.72-1.79c0.14-1.18-1.18-1.51-2.08-1.79
		c-2.23-0.36-4.58-0.3-6.68-1.22c-1.05-0.43-1.96-1.43-1.95-2.61c0-1.1-0.02-2.06,0.71-2.96
		C477.62,169.32,478.68,168.8,479.81,168.53z"/>
	<g>
		<path class="st0" d="M691.73,105.35c0.82-0.62,1.92-0.66,2.91-0.52c1.9,0.33,3.66,1.22,5.3,2.22c0.68,0.39,1.16,1.05,1.87,1.38
			c0.97,0.09,1.96,0.11,2.93,0.2c1.56,0.36,3.16,0.67,4.59,1.42c3,1.74,5.89,3.7,8.41,6.09c2.5,2.34,4.6,5.07,6.39,7.98
			c0.83,1.28,1.3,2.73,1.88,4.13c1.02,2.38,2.12,4.72,3.3,7.02c0.51,0.97,0.87,2.03,1.53,2.93c0.36,0.5,1.04,0.53,1.55,0.79
			c1.37,0.68,2.85,1.16,4.14,2c2.13,1.36,4.12,2.91,6.04,4.54c0.74,0.62,1.22,1.48,1.87,2.19c0.13,0.11,0.09,0.29,0.11,0.45
			c-1.28,0.38-2.56,0.77-3.9,0.84c-1.49,0.08-2.88,0.72-4.35,0.89c0.59,1.24,1.85,1.9,2.97,2.59c1.93,1.07,3.65,2.53,5.06,4.23
			c0.38,0.52,0.86,0.96,1.32,1.41c0.44,0.4,0.53,1.03,0.84,1.52c-0.53-0.22-0.86-0.71-1.32-1.04c-0.91-0.67-1.79-1.38-2.76-1.96
			c-1.45-0.84-3.07-1.37-4.48-2.28c-0.89-0.59-1.75-1.22-2.56-1.89c-0.82-0.81-1.6-1.74-2-2.84c-0.07-0.22-0.37-0.44-0.19-0.67
			c0.32-0.51,1-0.49,1.5-0.72c2.33-0.97,4.9-1.08,7.39-1.03c-0.31-0.79-1.11-1.19-1.77-1.64c-2.19-1.29-4.06-3.2-6.56-3.92
			c-1.28-0.54-2.66-0.81-3.92-1.4c-0.64-0.26-0.98-0.89-1.33-1.44c-1-1.61-1.68-3.37-2.47-5.08c-0.71-1.51-1.47-3-2.14-4.53
			c-0.37-0.82-0.61-1.7-0.99-2.52c-3.17-6.22-8.25-11.5-14.49-14.66c-1.44-0.67-2.94-1.39-4.57-1.43c-0.7-0.05-1.41-0.06-2.11-0.19
			c-0.37-0.07-0.78,0.07-1.11-0.14c-0.58-0.31-1.01-0.83-1.55-1.2c-1.13-0.76-2.37-1.34-3.62-1.86c-0.74-0.28-1.55-0.64-2.35-0.47
			c-0.65,0.14-0.96,0.88-0.77,1.48c0.33,1.19,1.14,2.14,1.9,3.08c1,1.34,2.08,2.68,2.66,4.27c1.02,2.59,1.49,5.43,3.07,7.77
			c0.5,0.97,1.7,1.49,1.84,2.64c-0.03,1.16-0.55,2.23-0.93,3.31c-0.6,1.65-0.79,3.43-0.76,5.19c0.03,2.03,0.38,4.07,1.23,5.92
			c0.34,0.82,0.83,1.75,1.76,2c0.07-0.01,0.2-0.03,0.27-0.03c0.22-1.84,0.3-3.73,0.93-5.49c0.38-1.12,1.29-1.92,1.94-2.88
			c0.37,0.3,0.39,0.82,0.54,1.24c1.14,2.92,2.63,5.7,4.31,8.34c1.23,1.91,2.54,3.82,4.34,5.24c0.11,0.1,0.22,0.21,0.33,0.31
			c-1.15-0.41-1.84-1.47-2.75-2.22c-1.85-1.44-3.61-3.05-4.92-5.01c-0.62-1.11-1.13-2.27-1.73-3.39c-0.32,1.22-0.46,2.47-0.64,3.71
			c-0.13,0.86-0.54,1.79-1.41,2.11c-0.9,0.41-1.95,0.06-2.64-0.6c-1.23-1.15-2.01-2.7-2.51-4.29c-0.81-2.7-0.92-5.6-0.4-8.37
			c0.18-1.05,0.58-2.05,0.75-3.1c0.09-0.55,0.3-1.07,0.55-1.57c-0.06-0.54-0.58-0.81-0.89-1.19c-1.72-2.33-2.6-5.13-3.54-7.84
			c-0.18-0.6-0.27-1.23-0.56-1.79c-0.5-1.02-1.23-1.9-1.9-2.81c-0.96-1.25-2.1-2.45-2.51-4.02
			C690.26,107.56,690.71,106.13,691.73,105.35z"/>
		<path class="st0" d="M701.62,114.34c0.51-0.08,1.02-0.18,1.53-0.15c0.28,0.12,0.5,0.35,0.75,0.52c0.41,0.26,0.52,0.76,0.77,1.14
			c0.03,0.74-0.22,1.52-0.85,1.96c-0.35-0.67-0.6-1.39-1.02-2.02C702.38,115.33,702.01,114.83,701.62,114.34z"/>
		<path class="st0" d="M599.87,152.52c1.19-0.26,2.46-0.33,3.63,0.02c0.88,0.27,1.68,0.82,2.22,1.56c0.48,0.62,0.73,1.37,1.05,2.08
			c2.29,5.3,4.59,10.59,6.87,15.89c2.26-5.11,4.56-10.21,6.84-15.31c0.45-0.93,0.76-1.94,1.41-2.75c0.62-0.78,1.5-1.32,2.47-1.55
			c1.38-0.33,2.83-0.11,4.17,0.3c0.69,0.2,1.39,0.52,1.83,1.11c0.48,0.63,0.6,1.45,0.6,2.23c0.01,6.52-0.01,13.04,0.01,19.56
			c-1.65,0-3.31,0-4.96,0c0-6.54,0.02-13.08-0.01-19.63c-2.53,5.69-5.11,11.36-7.65,17.04c-0.39,0.89-0.92,1.78-1.78,2.28
			c-0.96,0.56-2.11,0.61-3.19,0.58c-0.95-0.02-1.94-0.21-2.71-0.79c-0.69-0.51-1.14-1.27-1.48-2.04c-2.43-5.41-4.87-10.82-7.3-16.23
			c-0.11-0.25-0.22-0.51-0.38-0.73c-0.05,3.86,0.01,7.72-0.02,11.58c0.04,2.64-0.03,5.29,0.03,7.93c-1.65,0-3.31-0.01-4.96,0.01
			c0-6.52,0-13.04,0-19.56c-0.01-0.87,0.16-1.81,0.79-2.45C598.01,152.96,598.98,152.74,599.87,152.52z"/>
		<path class="st0" d="M668.26,152.86c1.39-0.17,2.79-0.12,4.18-0.13c4.14,0,8.27,0,12.41,0c0.01,1.11,0.01,2.21,0,3.32
			c-4.4,0.01-8.79,0-13.19,0.01c-1.04,0-2.11-0.01-3.1,0.33c-0.62,0.22-0.94,0.89-0.95,1.52c0,0.74,0,1.49,0,2.23
			c-0.01,0.74,0.27,1.54,0.92,1.95c0.65,0.42,1.46,0.49,2.22,0.51c2,0.01,4,0,6,0c2.16-0.02,4.39,0.45,6.2,1.66
			c0.89,0.6,1.68,1.54,1.7,2.66c0.01,1.26,0.01,2.53,0,3.79c0.01,1.13-0.58,2.21-1.45,2.91c-1.07,0.88-2.38,1.43-3.71,1.74
			c-1.84,0.44-3.73,0.26-5.6,0.3c-3.77,0-7.53,0-11.3,0c-0.01-1.11,0-2.22-0.01-3.32c4.55-0.01,9.1,0,13.65-0.01
			c0.94-0.03,1.96-0.11,2.71-0.74c0.37-0.31,0.72-0.75,0.7-1.26c0-0.92,0-1.83,0-2.75c0.02-0.72-0.61-1.27-1.22-1.54
			c-1.32-0.5-2.75-0.41-4.14-0.41c-1.44-0.01-2.88,0.02-4.31-0.02c-1.95-0.15-3.97-0.57-5.6-1.71c-0.69-0.49-1.29-1.15-1.58-1.96
			c-0.25-0.66-0.13-1.38-0.16-2.07c0.04-1.34-0.17-2.76,0.45-4.01c0.42-0.92,1.24-1.59,2.12-2.04
			C666.16,153.34,667.19,152.99,668.26,152.86z"/>
		<path class="st0" d="M715.64,152.72c1.66,0.02,3.31,0,4.96,0.01c0.01,5.73,0,11.47,0.01,17.2c-0.01,0.69,0.26,1.42,0.86,1.79
			c0.92,0.57,2.05,0.59,3.1,0.61c4.35,0,8.71,0.01,13.06,0c0.02,1.11,0.01,2.22,0.01,3.33c-4.01,0-8.02,0-12.03,0
			c-2.32,0.01-4.71-0.14-6.86-1.08c-1.06-0.47-2.03-1.22-2.57-2.26c-0.44-0.81-0.57-1.75-0.56-2.66
			C715.64,164.03,715.61,158.37,715.64,152.72z"/>
		<g>
			<path class="st0" d="M689.5,154.57c1.5-1.18,3.44-1.59,5.3-1.77c2.57-0.05,5.13-0.01,7.7-0.02c1.49,0.02,2.99-0.1,4.46,0.21
				c1.63,0.3,3.34,0.87,4.47,2.15c0.77,0.86,1.11,2.03,1.1,3.18c0,3.92,0,7.84,0,11.76c-0.01,1.06-0.18,2.19-0.83,3.06
				c-0.52,0.73-1.32,1.18-2.12,1.54c1.63,1.46,3.27,2.91,4.87,4.41c-1.92,0.01-3.84,0.01-5.76,0c-1.32-1.19-2.64-2.39-3.97-3.57
				c-1.91,0.1-3.83,0.3-5.74,0.25c-1.7-0.04-3.42,0.1-5.11-0.13c-1.63-0.29-3.3-0.78-4.56-1.9c-1-0.88-1.49-2.23-1.48-3.54
				c-0.01-4-0.01-8.01,0-12.01C687.8,156.81,688.4,155.42,689.5,154.57z M694.09,156.83c-0.56,0.39-0.92,1.05-0.9,1.74
				c-0.01,3.65,0,7.31,0,10.97c0,0.76,0.26,1.55,0.85,2.05c0.67,0.58,1.58,0.78,2.44,0.82c1.6,0,3.21,0.01,4.81,0
				c-1.36-1.25-2.76-2.47-4.11-3.74c1.92,0.01,3.85,0,5.77,0.01c1.21,1.09,2.41,2.18,3.62,3.26c0.73-0.4,1.3-1.16,1.28-2.02
				c0-3.79,0-7.58,0-11.36c0.02-0.78-0.45-1.51-1.11-1.9c-0.92-0.56-2.03-0.59-3.08-0.57c-2.27,0-4.53,0-6.8,0
				C695.91,156.11,694.9,156.26,694.09,156.83z"/>
		</g>
		<path class="st0" d="M653.79,159.65c1.65,0.01,3.3,0.02,4.95-0.01c0.05,5.83,0,11.65,0.01,17.48c0.04,1.18-0.39,2.39-1.25,3.21
			c-1.28,1.24-3.05,1.79-4.77,2.08c-1.3,0.24-2.62,0.16-3.93,0.17c-4.52,0-9.05-0.01-13.57,0c0.01-1.11,0-2.22,0.01-3.33
			c5.18,0.01,10.35,0,15.53,0.01c0.93-0.07,1.98-0.24,2.64-0.97c0.64-0.8,0.24-1.88,0.35-2.81c-3.31-0.01-6.61,0-9.92,0
			c-2.26,0.03-4.61-0.27-6.57-1.46c-1.08-0.66-2.06-1.73-2.14-3.06c0-3.76,0.07-7.52,0.01-11.28c1.64,0.02,3.29,0,4.94,0.01
			c0,3.68,0,7.35,0,11.02c0,0.59,0.42,1.11,0.93,1.37c0.63,0.33,1.35,0.4,2.04,0.41c3.58,0.02,7.17,0,10.75,0
			C653.79,168.23,653.8,163.94,653.79,159.65z"/>
	</g>
	<path class="st0" d="M453.16,260.15c0.44-0.22,1.05-0.22,1.49,0l-0.01,0.08c-0.49,0.11-0.99,0.1-1.47,0L453.16,260.15z"/>
	<path class="st0" d="M454.99,260.19c0.03,0,0.08,0,0.11,0L454.99,260.19z"/>
	<path class="st0" d="M449.71,260.48c0.1-0.05,0.31-0.15,0.41-0.21C450.02,260.33,449.81,260.43,449.71,260.48z"/>
	<path class="st0" d="M457.92,260.28c0.1,0.05,0.31,0.16,0.41,0.21C458.23,260.43,458.02,260.33,457.92,260.28z"/>
	<path class="st0" d="M448.35,260.57c0.02,0,0.06-0.01,0.08-0.02C448.4,260.56,448.37,260.57,448.35,260.57z"/>
	<path class="st0" d="M459.3,260.51c0.1,0.06,0.3,0.17,0.4,0.22C459.6,260.68,459.4,260.56,459.3,260.51z"/>
	<path class="st0" d="M446.97,260.81c0.02,0,0.06-0.01,0.08-0.02C447.03,260.8,446.99,260.8,446.97,260.81z"/>
	<path class="st0" d="M460.69,260.81c0.04,0.02,0.11,0.06,0.15,0.07l-0.08-0.01L460.69,260.81z"/>
	<path class="st0" d="M445.83,261.03c0.02,0,0.06-0.01,0.07-0.02C445.88,261.02,445.84,261.03,445.83,261.03z"/>
	<path class="st0" d="M461.59,260.97c0.1,0.06,0.31,0.16,0.41,0.22C461.9,261.13,461.69,261.03,461.59,260.97z"/>
	<path class="st0" d="M432.74,261.42c0.1-0.06,0.3-0.17,0.4-0.23C433.04,261.25,432.84,261.36,432.74,261.42z"/>
	<path class="st0" d="M437.97,261.19c0.1,0.06,0.31,0.16,0.41,0.22C438.27,261.35,438.07,261.25,437.97,261.19z"/>
	<path class="st0" d="M444.92,261.32c0.03-0.01,0.08-0.02,0.1-0.03C445,261.29,444.94,261.31,444.92,261.32z"/>
	<path class="st0" d="M462.6,261.25c0.02,0,0.06,0.02,0.08,0.02C462.65,261.26,462.62,261.25,462.6,261.25z"/>
	<path class="st0" d="M413.9,261.47c0.34-0.24,0.54-0.18,0.61,0.18C414.27,261.72,414.07,261.66,413.9,261.47z"/>
	<path class="st0" d="M431.15,261.49c0.02,0,0.06-0.01,0.07-0.02C431.2,261.48,431.16,261.49,431.15,261.49z"/>
	<path class="st0" d="M440.13,261.47c0.02,0,0.05,0.01,0.07,0.02C440.18,261.49,440.14,261.48,440.13,261.47z"/>
	<path class="st0" d="M443.97,261.52c0.03-0.01,0.09-0.04,0.12-0.06C444.06,261.48,444,261.51,443.97,261.52z"/>
	<path class="st0" d="M463.5,261.51c0.02,0.01,0.06,0.02,0.07,0.03C463.55,261.53,463.51,261.52,463.5,261.51z"/>
	<path class="st0" d="M415.95,261.66c0.1,0.05,0.31,0.15,0.41,0.2C416.26,261.81,416.05,261.71,415.95,261.66z"/>
	<path class="st0" d="M430.23,261.73c0.02,0,0.06-0.01,0.08-0.02C430.29,261.71,430.25,261.72,430.23,261.73z"/>
	<path class="st0" d="M441.27,261.71c0.02,0,0.06,0.01,0.08,0.02C441.33,261.72,441.29,261.71,441.27,261.71z"/>
	<path class="st0" d="M443.3,261.74c0.02,0,0.06-0.02,0.08-0.03C443.36,261.72,443.32,261.73,443.3,261.74z"/>
	<path class="st0" d="M463.96,261.71c0.02,0.01,0.06,0.02,0.08,0.03C464.02,261.73,463.98,261.71,463.96,261.71z"/>
	<path class="st0" d="M417.65,261.93c0.02,0,0.06,0.01,0.08,0.02C417.7,261.95,417.67,261.94,417.65,261.93z"/>
	<path class="st0" d="M442.35,261.94c0.11-0.01,0.31-0.02,0.42-0.02C442.63,262.23,442.49,262.23,442.35,261.94z"/>
	<path class="st0" d="M418.7,262.13c0.1,0.05,0.31,0.16,0.41,0.21C419.01,262.28,418.81,262.18,418.7,262.13z"/>
	<path class="st0" d="M428.37,262.34c0.11-0.05,0.33-0.14,0.44-0.19C428.7,262.2,428.48,262.29,428.37,262.34z"/>
	<path class="st0" d="M419.94,262.39c0.02,0,0.06,0.01,0.08,0.02C420,262.4,419.96,262.39,419.94,262.39z"/>
	<path class="st0" d="M465.79,262.42c0.02,0.01,0.06,0.03,0.07,0.03C465.85,262.44,465.81,262.43,465.79,262.42z"/>
	<path class="st0" d="M421.09,262.62c0.02,0,0.05,0.01,0.07,0.02C421.14,262.63,421.11,262.62,421.09,262.62z"/>
	<path class="st0" d="M427.27,262.68c0.02-0.01,0.06-0.02,0.07-0.03C427.32,262.66,427.29,262.68,427.27,262.68z"/>
	<path class="st0" d="M466.26,262.63c0.02,0.01,0.06,0.03,0.08,0.04C466.32,262.66,466.28,262.64,466.26,262.63z"/>
	<path class="st0" d="M421.94,262.88c0.03,0.01,0.1,0.03,0.14,0.05l-0.07-0.01L421.94,262.88z"/>
	<path class="st0" d="M426.79,262.89c0.02-0.01,0.06-0.03,0.09-0.03C426.85,262.86,426.81,262.88,426.79,262.89z"/>
	<path class="st0" d="M450.6,263.01c0.11-0.05,0.33-0.14,0.44-0.19C450.93,262.87,450.71,262.96,450.6,263.01z"/>
	<path class="st0" d="M456.38,262.88c0.02,0,0.06,0.02,0.08,0.02C456.45,262.9,456.4,262.88,456.38,262.88z"/>
	<path class="st0" d="M466.72,262.85c0.02,0.01,0.06,0.03,0.08,0.03C466.78,262.87,466.74,262.85,466.72,262.85z"/>
	<path class="st0" d="M422.89,263.11c0.02,0.01,0.07,0.02,0.1,0.03C422.96,263.13,422.91,263.12,422.89,263.11z"/>
	<path class="st0" d="M448.59,263.12c0.02-0.01,0.06-0.02,0.08-0.02C448.64,263.1,448.6,263.11,448.59,263.12z"/>
	<path class="st0" d="M458.43,262.99c0.09,0.06,0.26,0.19,0.35,0.25C458.69,263.17,458.51,263.05,458.43,262.99z"/>
	<path class="st0" d="M423.58,263.31c0.03,0.02,0.1,0.04,0.13,0.06C423.68,263.35,423.61,263.33,423.58,263.31z"/>
	<path class="st0" d="M425.87,263.35c0.02-0.01,0.06-0.03,0.08-0.04C425.92,263.32,425.89,263.34,425.87,263.35z"/>
	<path class="st0" d="M447.23,263.38c0.02,0,0.05-0.01,0.07-0.02C447.28,263.37,447.25,263.38,447.23,263.38z"/>
	<path class="st0" d="M459.52,263.28c0.11,0.05,0.33,0.14,0.44,0.18C459.85,263.41,459.63,263.32,459.52,263.28z"/>
	<path class="st0" d="M467.65,263.31c0.02,0.01,0.06,0.03,0.07,0.04C467.7,263.34,467.67,263.32,467.65,263.31z"/>
	<path class="st0" d="M425.42,263.58c0.02-0.01,0.06-0.03,0.08-0.04C425.48,263.55,425.44,263.57,425.42,263.58z"/>
	<path class="st0" d="M446.04,263.61c0.03-0.03,0.1-0.08,0.14-0.11C446.14,263.53,446.07,263.58,446.04,263.61z"/>
	<path class="st0" d="M460.72,263.49c0.03,0.03,0.1,0.1,0.13,0.13C460.82,263.59,460.75,263.52,460.72,263.49z"/>
	<path class="st0" d="M468.08,263.56c0.02,0.01,0.05,0.03,0.07,0.04C468.13,263.59,468.09,263.57,468.08,263.56z"/>
	<path class="st0" d="M433.66,263.92c0.07-0.36,0.27-0.42,0.61-0.19C434.12,263.92,433.92,263.98,433.66,263.92z"/>
	<path class="st0" d="M438.24,263.76c0.37-0.23,0.64-0.17,0.82,0.15C438.76,263.94,438.49,263.89,438.24,263.76z"/>
	<path class="st0" d="M445.14,263.81c0.02-0.01,0.06-0.02,0.08-0.02C445.2,263.79,445.16,263.8,445.14,263.81z"/>
	<path class="st0" d="M461.64,263.68c0.09,0.06,0.27,0.18,0.35,0.24C461.9,263.87,461.73,263.74,461.64,263.68z"/>
	<path class="st0" d="M414.11,263.97c0.11,0.05,0.33,0.14,0.44,0.19C414.45,264.1,414.22,264.01,414.11,263.97z"/>
	<path class="st0" d="M432.31,264.07c0.02-0.01,0.07-0.03,0.09-0.03C432.38,264.05,432.33,264.06,432.31,264.07z"/>
	<path class="st0" d="M444.24,264.06c0.02,0,0.05-0.01,0.07-0.02C444.29,264.05,444.26,264.06,444.24,264.06z"/>
	<path class="st0" d="M416.42,264.16c0.1,0.06,0.31,0.16,0.41,0.22C416.73,264.33,416.52,264.22,416.42,264.16z"/>
	<path class="st0" d="M430.95,264.29c0.02,0,0.05-0.01,0.07-0.02C431,264.28,430.96,264.29,430.95,264.29z"/>
	<path class="st0" d="M442.16,264.28c0.02,0,0.05,0.01,0.07,0.02C442.22,264.29,442.18,264.29,442.16,264.28z"/>
	<path class="st0" d="M463.27,264.26c0.02,0.01,0.06,0.02,0.08,0.03C463.32,264.29,463.29,264.27,463.27,264.26z"/>
	<path class="st0" d="M469.08,264.23c0.37-0.11,0.54,0.02,0.51,0.39C469.34,264.6,469.17,264.48,469.08,264.23z"/>
	<path class="st0" d="M417.85,264.51c0.02,0,0.05,0.01,0.07,0.02C417.91,264.52,417.87,264.51,417.85,264.51z"/>
	<path class="st0" d="M430.22,264.52c0.03-0.02,0.1-0.06,0.14-0.08C430.32,264.47,430.25,264.51,430.22,264.52z"/>
	<path class="st0" d="M419.24,264.73c0.02,0,0.05,0.02,0.07,0.02C419.29,264.75,419.26,264.74,419.24,264.73z"/>
	<path class="st0" d="M429.34,264.75c0.02-0.01,0.05-0.02,0.07-0.03C429.39,264.73,429.35,264.75,429.34,264.75z"/>
	<path class="st0" d="M420.07,264.9c0.11,0.04,0.33,0.12,0.44,0.16C420.41,265.02,420.18,264.94,420.07,264.9z"/>
	<path class="st0" d="M464.88,264.92c0.02,0.01,0.06,0.02,0.08,0.03C464.94,264.95,464.9,264.93,464.88,264.92z"/>
	<path class="st0" d="M470.18,264.9c0.02,0.01,0.05,0.03,0.06,0.04C470.22,264.93,470.19,264.91,470.18,264.9z"/>
	<path class="st0" d="M421.05,265.09c0.03,0.03,0.1,0.09,0.13,0.12C421.15,265.18,421.08,265.12,421.05,265.09z"/>
	<path class="st0" d="M428.24,265.22c0.01-0.01,0.04-0.03,0.05-0.04C428.27,265.19,428.25,265.21,428.24,265.22z"/>
	<path class="st0" d="M465.34,265.14c0.02,0.01,0.05,0.03,0.07,0.04C465.39,265.17,465.36,265.15,465.34,265.14z"/>
	<path class="st0" d="M422,265.39c0.02,0,0.06,0.02,0.08,0.02C422.06,265.41,422.02,265.4,422,265.39z"/>
	<path class="st0" d="M447.09,265.81c5.31-0.81,10.93-0.89,15.96,1.25c0.71,0.34,1.43,0.67,2.12,1.06c2.44,1.46,4.66,3.33,6.23,5.72
		c2.01,8.42-1.44,17.03-4.38,24.85c-0.25,0.53-0.48,1.07-0.68,1.62c-0.11,0.2-0.22,0.4-0.33,0.61c-0.83,2-1.91,3.87-2.89,5.8
		c-0.6,0.88-1.05,1.85-1.6,2.75c-0.22,0.32-0.44,0.64-0.67,0.95c-0.8-0.57,0.23-1.26,0.38-1.92c2.68-5.6-0.21-11.7,0.81-17.51
		c0.29-2.75,0.98-5.66,0.09-8.35c-0.29-0.95-0.72-1.86-1.14-2.75c-2.83-5.79-7.41-10.79-13.24-13.61
		C447.45,266.22,447.24,266.04,447.09,265.81z"/>
	<path class="st0" d="M470.69,265.38c0.37-0.11,0.54,0.01,0.51,0.38C470.95,265.75,470.78,265.62,470.69,265.38z"/>
	<path class="st0" d="M466.27,265.61c0.02,0.01,0.05,0.03,0.07,0.04C466.32,265.64,466.28,265.62,466.27,265.61z"/>
	<path class="st0" d="M466.69,265.86c0.02,0.01,0.05,0.03,0.06,0.03C466.74,265.88,466.71,265.87,466.69,265.86z"/>
	<path class="st0" d="M424.28,266.07c0.02,0.01,0.07,0.02,0.09,0.03C424.35,266.1,424.3,266.08,424.28,266.07z"/>
	<path class="st0" d="M426.81,266.1c0.01-0.01,0.05-0.03,0.06-0.04C426.85,266.07,426.82,266.09,426.81,266.1z"/>
	<path class="st0" d="M429.59,267.48c4.59-1.96,9.8-1.44,14.47-0.06c0.36,0.21,0.76,0.34,1.16,0.47c1.27,0.5,2.48,1.14,3.66,1.84
		c4.73,3.06,8.44,7.64,10.57,12.85c0.11,0.28,0.22,0.55,0.33,0.83c-3.61-0.28-8.52,0.04-9.97,4.04c-1.07,2.75-0.2,5.77,0.59,8.49
		c0.32,0.64,0.49,1.35,0.79,2c0.28,0.7,0.61,1.38,0.92,2.06c0.17,0.42,0.38,0.82,0.6,1.21c0.16,0.3,0.31,0.61,0.45,0.92
		c2.06,3.43,3.39,7.34,6.16,10.31c-2.95,0.62-4.07,3.83-3.72,6.53c-1.19,6.94-0.85,14.35-3.58,20.93
		c-2.15,3.41-6.77,4.26-10.52,4.01c-2.96-0.76-4.71-3.76-5.13-6.62c-1.09-6.99-0.26-14.21-0.85-21.19
		c-0.56-2.16-2.74-3.88-5.02-3.58c-0.01-0.04-0.02-0.11-0.03-0.15c0.08-0.79,0.49-1.51,0.68-2.29c0.36-0.75,0.58-1.55,0.92-2.31
		c0.22-0.53,0.5-1.05,0.7-1.59c0.2-0.43,0.35-0.89,0.55-1.33c2.05-5.46,1.45-11.52,0.01-17.04c-2.27-5.82-9.82-4.36-14.11-1.86
		c0.24-2.46,0.7-4.91,1.38-7.3c0.22-0.43,0.35-0.9,0.46-1.37c0.26-0.53,0.5-1.06,0.7-1.61C423.29,272.18,425.99,269,429.59,267.48z"
		/>
	<path class="st0" d="M405.04,267.42c6.04-1.88,12.72-0.95,18.54,1.16c-1.75,1.79-3.14,3.9-4.14,6.19c-0.2,0.48-0.42,0.95-0.6,1.44
		c-0.19,0.44-0.34,0.9-0.44,1.37c-2.01,5.54-1.87,11.5-1.54,17.29c-0.06,3.99-1.31,8.17,0.38,12.01c0.24,0.64,0.55,1.26,0.92,1.84
		c0.69,1.13,1.52,2.25,2.62,3.01c-2.18,2.29-4.32,4.65-6.28,7.13c-1.13,1.27-2.79,3.02-4.63,2.03c-3.1-1.94-4.48-5.54-6-8.69
		c-0.12-0.39-0.28-0.77-0.45-1.13c-0.13-0.39-0.28-0.78-0.46-1.15c-0.25-0.61-0.41-1.26-0.7-1.85c-0.1-0.47-0.24-0.94-0.45-1.37
		c-0.17-0.64-0.48-1.24-0.58-1.9c-2.58-9.67-6.47-20.04-3.32-30.02c0.17-0.44,0.35-0.89,0.55-1.32
		C399.73,270.67,402.19,268.52,405.04,267.42z"/>
	<path class="st0" d="M425.65,266.53c0.02,0.01,0.07,0.03,0.09,0.04C425.72,266.56,425.67,266.54,425.65,266.53z"/>
	<path class="st0" d="M467.85,266.55c0.02,0.01,0.05,0.03,0.06,0.04C467.9,266.58,467.87,266.56,467.85,266.55z"/>
	<path class="st0" d="M472.35,266.71c0.71,0.47,1.33,1.12,1.8,1.83C473.53,267.95,472.95,267.32,472.35,266.71z"/>
	<path class="st0" d="M468.46,266.93c0.37-0.09,0.53,0.05,0.46,0.42C468.65,267.31,468.5,267.17,468.46,266.93z"/>
	<path class="st0" d="M469.69,267.93c0.01,0.01,0.04,0.03,0.06,0.05C469.73,267.96,469.7,267.94,469.69,267.93z"/>
	<path class="st0" d="M474.88,269.44c0.37-0.03,0.5,0.14,0.38,0.51C475.01,269.86,474.88,269.69,474.88,269.44z"/>
	<path class="st0" d="M475.67,270.43c0.01,0.02,0.03,0.05,0.04,0.07C475.7,270.49,475.68,270.45,475.67,270.43z"/>
	<path class="st0" d="M472.67,270.9c0.01,0.02,0.03,0.05,0.05,0.06C472.7,270.94,472.68,270.91,472.67,270.9z"/>
	<path class="st0" d="M475.89,270.88c0.01,0.02,0.03,0.06,0.03,0.08C475.92,270.94,475.9,270.9,475.89,270.88z"/>
	<path class="st0" d="M473.37,271.82c0.01,0.02,0.03,0.05,0.04,0.06C473.4,271.87,473.38,271.84,473.37,271.82z"/>
	<path class="st0" d="M476.37,271.99c0.01,0.03,0.04,0.09,0.05,0.11C476.41,272.07,476.38,272.01,476.37,271.99z"/>
	<path class="st0" d="M473.6,272.26c0.01,0.02,0.02,0.05,0.03,0.07C473.62,272.31,473.61,272.28,473.6,272.26z"/>
	<path class="st0" d="M473.82,272.95c0,0.02,0.01,0.05,0.02,0.07C473.84,273,473.83,272.97,473.82,272.95z"/>
	<path class="st0" d="M476.57,272.93c0.01,0.03,0.03,0.08,0.03,0.11C476.6,273.01,476.58,272.95,476.57,272.93z"/>
	<path class="st0" d="M474.07,273.85c0,0.02,0.01,0.06,0.02,0.08C474.09,273.91,474.08,273.87,474.07,273.85z"/>
	<path class="st0" d="M476.72,274.28c0.05,0.1,0.15,0.31,0.21,0.41C476.87,274.59,476.77,274.39,476.72,274.28z"/>
	<path class="st0" d="M474.28,274.79c0,0.02,0.01,0.05,0.02,0.07C474.3,274.84,474.29,274.8,474.28,274.79z"/>
	<path class="st0" d="M474.44,276.14c0.34,0.09,0.4,0.33,0.18,0.72C474.46,276.65,474.4,276.41,474.44,276.14z"/>
	<path class="st0" d="M474.56,277.12c0-0.02,0-0.06,0-0.08L474.56,277.12z"/>
	<path class="st0" d="M476.71,280.13c-0.1-0.28-0.04-0.58,0.14-0.82C477.09,279.49,477.11,280.2,476.71,280.13z"/>
	<path class="st0" d="M474.43,281.05c-0.05-0.35,0.03-0.7,0.13-1.03C474.84,280.23,474.9,281.09,474.43,281.05z"/>
	<path class="st0" d="M476.49,281.76c0.05-0.1,0.15-0.31,0.2-0.41C476.64,281.45,476.54,281.66,476.49,281.76z"/>
	<path class="st0" d="M474.27,282.63c0-0.02,0.01-0.06,0.02-0.07C474.29,282.58,474.28,282.61,474.27,282.63z"/>
	<path class="st0" d="M476.4,283.35c0-0.02,0.01-0.06,0.02-0.08C476.41,283.29,476.4,283.33,476.4,283.35z"/>
	<path class="st0" d="M473.97,284.52c0.06-0.1,0.16-0.31,0.22-0.41C474.13,284.21,474.02,284.42,473.97,284.52z"/>
	<path class="st0" d="M476.14,284.48c0-0.02,0.01-0.05,0.01-0.07C476.15,284.43,476.15,284.46,476.14,284.48z"/>
	<path class="st0" d="M473.85,285.4c0-0.02,0.01-0.06,0.02-0.08C473.86,285.34,473.85,285.38,473.85,285.4z"/>
	<path class="st0" d="M475.94,285.64c0-0.02,0.01-0.05,0.02-0.07C475.95,285.59,475.94,285.62,475.94,285.64z"/>
	<g>
		<path class="st0" d="M452,288.55c1.26-3.14,5.25-2.76,8.02-2.6c0.03,2.39-0.6,4.72-0.74,7.1c-0.22,4.86,1.77,9.87-0.31,14.55
			c-1.98-3.69-4.18-7.33-5.71-11.25c-0.18-0.45-0.34-0.9-0.55-1.33C452.16,292.92,451.44,290.73,452,288.55z M453.5,288.22
			c0.83,2.18,4.49,1.48,4.23-0.88C456.36,286.8,454.35,286.82,453.5,288.22z"/>
	</g>
	<g>
		<path class="st0" d="M419.17,288.99c3.28-2.1,9.53-4.86,11.86-0.22c1.13,4.73,1.81,9.79,0.22,14.51c-0.1,0.22-0.18,0.44-0.23,0.68
			c-0.2,0.43-0.37,0.88-0.55,1.32c-0.24,0.53-0.46,1.07-0.7,1.6c-0.36,0.75-0.57,1.55-0.91,2.3c-0.35,0.96-0.68,1.93-0.93,2.92
			c-1.33-0.16-2.64-0.41-3.86-1.01c-2.09-1.18-3.73-3.08-4.61-5.3C417.99,300.3,420.07,294.59,419.17,288.99z M426.11,287.79
			c-0.18,0.15-0.36,0.31-0.53,0.46c0,0.27,0,0.54,0.01,0.8c0.21,0.21,0.38,0.46,0.51,0.73c1.2,1.27,3.5,0.93,4.12-0.76
			C429.49,287.54,427.52,287.44,426.11,287.79z"/>
	</g>
	<path class="st0" d="M475.55,286.81c0.05-0.11,0.15-0.31,0.2-0.42C475.7,286.49,475.6,286.7,475.55,286.81z"/>
	<path class="st0" d="M473.59,286.76c0-0.02,0.01-0.06,0.02-0.07C473.6,286.7,473.59,286.74,473.59,286.76z"/>
	<path class="st0" d="M473.27,287.71c0.06-0.09,0.18-0.27,0.23-0.36C473.45,287.44,473.33,287.62,473.27,287.71z"/>
	<path class="st0" d="M475.41,287.71c0.03-0.03,0.08-0.1,0.11-0.14C475.49,287.61,475.43,287.68,475.41,287.71z"/>
	<path class="st0" d="M473.14,288.61c0-0.02,0.02-0.06,0.02-0.08C473.15,288.55,473.14,288.59,473.14,288.61z"/>
	<path class="st0" d="M475.24,288.63c0-0.02,0.02-0.06,0.02-0.08C475.25,288.57,475.24,288.61,475.24,288.63z"/>
	<path class="st0" d="M475.01,289.32c0.01-0.02,0.02-0.06,0.03-0.08C475.03,289.25,475.02,289.29,475.01,289.32z"/>
	<path class="st0" d="M472.93,289.54c0-0.02,0.02-0.06,0.02-0.08C472.95,289.48,472.94,289.52,472.93,289.54z"/>
	<path class="st0" d="M472.71,290.22c0.01-0.02,0.02-0.06,0.03-0.08C472.72,290.16,472.71,290.2,472.71,290.22z"/>
	<path class="st0" d="M474.77,290.23c0.01-0.02,0.02-0.07,0.03-0.09C474.79,290.17,474.78,290.21,474.77,290.23z"/>
	<path class="st0" d="M472.47,291.14c0.01-0.02,0.02-0.07,0.03-0.09C472.49,291.08,472.48,291.12,472.47,291.14z"/>
	<path class="st0" d="M474.5,291.06l0.06-0.06c-0.02,0.03-0.05,0.11-0.07,0.14L474.5,291.06z"/>
	<path class="st0" d="M472.25,291.83c0.01-0.02,0.02-0.07,0.03-0.09C472.27,291.76,472.25,291.81,472.25,291.83z"/>
	<path class="st0" d="M474.27,291.87c0.03-0.03,0.08-0.1,0.11-0.14C474.35,291.77,474.29,291.83,474.27,291.87z"/>
	<path class="st0" d="M473.85,293.21c0.01-0.02,0.02-0.07,0.03-0.09C473.87,293.14,473.86,293.19,473.85,293.21z"/>
	<path class="st0" d="M471.76,293.41c0-0.02,0.02-0.05,0.02-0.06C471.77,293.36,471.76,293.39,471.76,293.41z"/>
	<path class="st0" d="M473.4,294.59c0.01-0.02,0.02-0.06,0.03-0.08C473.42,294.52,473.4,294.57,473.4,294.59z"/>
	<path class="st0" d="M471.3,294.79c0-0.02,0.02-0.05,0.02-0.06C471.31,294.74,471.3,294.77,471.3,294.79z"/>
	<path class="st0" d="M473.16,295.28c0.01-0.02,0.02-0.06,0.03-0.08C473.18,295.22,473.17,295.26,473.16,295.28z"/>
	<path class="st0" d="M472.9,295.95c0.01-0.03,0.02-0.08,0.03-0.1C472.92,295.87,472.91,295.93,472.9,295.95z"/>
	<path class="st0" d="M470.62,296.62c0.01-0.02,0.02-0.05,0.03-0.07C470.64,296.57,470.62,296.6,470.62,296.62z"/>
	<path class="st0" d="M472.48,297.12c0.01-0.02,0.02-0.06,0.03-0.08C472.5,297.05,472.48,297.09,472.48,297.12z"/>
	<path class="st0" d="M472.22,297.78c0.01-0.02,0.03-0.06,0.03-0.09C472.25,297.72,472.23,297.76,472.22,297.78z"/>
	<path class="st0" d="M471.76,298.92c0.01-0.02,0.03-0.06,0.03-0.08C471.79,298.86,471.77,298.9,471.76,298.92z"/>
	<path class="st0" d="M471.56,299.4c0.01-0.02,0.03-0.06,0.03-0.08C471.59,299.34,471.57,299.38,471.56,299.4z"/>
	<path class="st0" d="M469.24,300.06c0.01-0.02,0.02-0.06,0.03-0.07C469.26,300.01,469.25,300.04,469.24,300.06z"/>
	<path class="st0" d="M471.3,300.06c0.01-0.02,0.03-0.05,0.03-0.07C471.33,300.01,471.31,300.04,471.3,300.06z"/>
	<path class="st0" d="M471.08,300.53c0.01-0.02,0.03-0.07,0.04-0.09C471.11,300.47,471.09,300.51,471.08,300.53z"/>
	<path class="st0" d="M468.55,301.66c0.01-0.01,0.02-0.05,0.03-0.06C468.57,301.61,468.56,301.65,468.55,301.66z"/>
	<path class="st0" d="M470.62,301.68c0.01-0.02,0.03-0.06,0.03-0.08C470.64,301.62,470.63,301.66,470.62,301.68z"/>
	<path class="st0" d="M468.33,302.12c0.01-0.02,0.03-0.06,0.04-0.08C468.36,302.06,468.33,302.1,468.33,302.12z"/>
	<path class="st0" d="M470.41,302.15c0.01-0.02,0.03-0.06,0.03-0.08C470.44,302.09,470.42,302.13,470.41,302.15z"/>
	<path class="st0" d="M468.11,302.6c0.01-0.02,0.03-0.06,0.04-0.08C468.14,302.54,468.12,302.58,468.11,302.6z"/>
	<path class="st0" d="M470.19,302.61c0.01-0.02,0.03-0.06,0.04-0.08C470.22,302.55,470.19,302.59,470.19,302.61z"/>
	<path class="st0" d="M467.89,303.06c0.01-0.02,0.03-0.06,0.04-0.07C467.92,303,467.9,303.04,467.89,303.06z"/>
	<path class="st0" d="M469.95,303.07c0.01-0.02,0.03-0.06,0.04-0.08C469.98,303.01,469.96,303.05,469.95,303.07z"/>
	<path class="st0" d="M469.01,305.1c0.01-0.02,0.03-0.05,0.03-0.07C469.03,305.05,469.02,305.08,469.01,305.1z"/>
	<path class="st0" d="M468.55,306.02c0.01-0.02,0.03-0.05,0.03-0.07C468.58,305.97,468.56,306,468.55,306.02z"/>
	<path class="st0" d="M466.06,306.74c0.01-0.02,0.03-0.05,0.03-0.07C466.08,306.69,466.06,306.72,466.06,306.74z"/>
	<path class="st0" d="M465.57,307.63c0.01-0.01,0.03-0.04,0.04-0.06C465.6,307.58,465.58,307.61,465.57,307.63z"/>
	<path class="st0" d="M467.43,308.12c0.01-0.02,0.03-0.05,0.04-0.07C467.46,308.07,467.44,308.11,467.43,308.12z"/>
	<path class="st0" d="M467.2,308.57c0.01-0.02,0.03-0.06,0.04-0.07C467.23,308.51,467.21,308.55,467.2,308.57z"/>
	<path class="st0" d="M464.9,308.8c0.01-0.02,0.03-0.05,0.04-0.07C464.93,308.75,464.91,308.78,464.9,308.8z"/>
	<path class="st0" d="M466.95,309c0.01-0.02,0.03-0.05,0.04-0.07C466.98,308.95,466.96,308.98,466.95,309z"/>
	<path class="st0" d="M464.65,309.22c0.01-0.02,0.03-0.05,0.04-0.07C464.68,309.17,464.66,309.21,464.65,309.22z"/>
	<path class="st0" d="M466.28,310.17c0.01-0.02,0.03-0.06,0.05-0.07C466.31,310.12,466.29,310.15,466.28,310.17z"/>
	<path class="st0" d="M463.99,310.39c0.01-0.02,0.03-0.05,0.04-0.06C464.02,310.35,464,310.38,463.99,310.39z"/>
	<path class="st0" d="M473.33,311.19c0.1-0.06,0.3-0.17,0.4-0.23C473.63,311.01,473.43,311.13,473.33,311.19z"/>
	<path class="st0" d="M475.18,310.97c0.03,0.03,0.1,0.08,0.13,0.11C475.28,311.05,475.21,311,475.18,310.97z"/>
	<path class="st0" d="M465.6,311.33c0.01-0.02,0.03-0.05,0.04-0.07C465.63,311.27,465.61,311.31,465.6,311.33z"/>
	<path class="st0" d="M471.96,311.34c0.03-0.03,0.11-0.09,0.14-0.12C472.07,311.25,472,311.31,471.96,311.34z"/>
	<path class="st0" d="M470.58,311.63c0.1-0.05,0.31-0.15,0.41-0.2C470.89,311.48,470.68,311.58,470.58,311.63z"/>
	<path class="st0" d="M466.93,311.72c0.43-0.22,1-0.18,1.44,0C467.91,311.92,467.38,312.01,466.93,311.72z"/>
	<path class="st0" d="M468.53,311.71l0.06,0C468.58,311.71,468.55,311.71,468.53,311.71z"/>
	<path class="st0" d="M476.43,311.69c0.39-0.08,0.54,0.08,0.43,0.47C476.64,312.07,476.5,311.91,476.43,311.69z"/>
	<path class="st0" d="M462.81,312.21c0.01-0.02,0.03-0.05,0.04-0.07C462.84,312.16,462.82,312.2,462.81,312.21z"/>
	<path class="st0" d="M471.3,312.92c0.02,0,0.06-0.01,0.08-0.02C471.36,312.91,471.33,312.91,471.3,312.92z"/>
	<path class="st0" d="M477.26,312.83c0.01,0.03,0.03,0.08,0.03,0.1C477.29,312.91,477.27,312.86,477.26,312.83z"/>
	<path class="st0" d="M463.03,313.13c0.02,0.01,0.06,0.02,0.07,0.03C463.09,313.14,463.05,313.13,463.03,313.13z"/>
	<path class="st0" d="M470.15,313.13c0.02,0,0.06-0.01,0.08-0.02C470.21,313.11,470.17,313.12,470.15,313.13z"/>
	<path class="st0" d="M422.92,313.32c0.01,0,0.03,0.02,0.04,0.02l-0.06-0.01L422.92,313.32z"/>
	<path class="st0" d="M463.72,313.35c0.02,0,0.06,0.02,0.08,0.02C463.78,313.37,463.73,313.36,463.72,313.35z"/>
	<path class="st0" d="M468.77,313.35c0.02,0,0.06-0.02,0.08-0.02C468.83,313.33,468.79,313.35,468.77,313.35z"/>
	<path class="st0" d="M423.36,313.56c0.02,0.01,0.06,0.03,0.08,0.04C423.42,313.59,423.38,313.57,423.36,313.56z"/>
	<path class="st0" d="M423.81,313.79c0.02,0.01,0.07,0.04,0.09,0.05C423.88,313.83,423.83,313.8,423.81,313.79z"/>
	<path class="st0" d="M424.52,313.99c0.02,0.01,0.07,0.02,0.09,0.03C424.59,314.02,424.55,314,424.52,313.99z"/>
	<path class="st0" d="M421.96,314.25c0.01-0.01,0.04-0.04,0.06-0.06C422,314.2,421.98,314.23,421.96,314.25z"/>
	<path class="st0" d="M474.91,314.21c0.41-0.11,0.45,0.88,0.02,0.8C474.92,314.75,474.91,314.48,474.91,314.21z"/>
	<path class="st0" d="M426.13,314.45c0.02,0,0.05,0.01,0.07,0.02C426.18,314.46,426.15,314.45,426.13,314.45z"/>
	<path class="st0" d="M421.23,315.05c0.04-0.26,0.18-0.42,0.41-0.47C421.74,314.96,421.6,315.12,421.23,315.05z"/>
	<path class="st0" d="M458.15,318.45c-0.4-1.84,0.61-3.63,2.55-3.82c3.21,2.22,7.46,1.36,11.04,0.67c-1.66,1.64-3.9,2.59-6.12,3.14
		C463.15,318.81,460.6,319.21,458.15,318.45z"/>
	<path class="st0" d="M477.32,315c0-0.02,0.01-0.06,0.02-0.07C477.33,314.94,477.32,314.98,477.32,315z"/>
	<path class="st0" d="M430.72,315.07c0.32,0,0.65,0,0.97,0.01c1.1,0.57,1.95,1.97,1.42,3.19c-2.41,4.02-7.88,5.04-12.02,3.37
		c-0.16-0.06-0.47-0.19-0.62-0.25c1.83-1.08,4.42-0.88,6.3-2.15C428.4,318.19,429.28,316.35,430.72,315.07z"/>
	<path class="st0" d="M427.07,315.45c0.01-0.01,0.04-0.05,0.05-0.06C427.11,315.41,427.08,315.44,427.07,315.45z"/>
	<path class="st0" d="M476.83,316.37c0.01-0.02,0.03-0.06,0.03-0.08C476.86,316.32,476.84,316.35,476.83,316.37z"/>
	<path class="st0" d="M419.39,317.13c0.06-0.22,0.19-0.39,0.39-0.51C419.92,317.01,419.79,317.18,419.39,317.13z"/>
	<path class="st0" d="M476.61,316.83c0.01-0.02,0.03-0.06,0.04-0.08C476.64,316.78,476.62,316.81,476.61,316.83z"/>
	<path class="st0" d="M473.79,317c0.01-0.01,0.04-0.04,0.06-0.06C473.84,316.96,473.81,316.99,473.79,317z"/>
	<path class="st0" d="M425.21,317.28c0.02-0.01,0.06-0.03,0.08-0.04C425.27,317.25,425.23,317.27,425.21,317.28z"/>
	<path class="st0" d="M476.37,317.28c0.01-0.02,0.03-0.06,0.04-0.08C476.4,317.22,476.38,317.26,476.37,317.28z"/>
	<path class="st0" d="M424.06,317.73c0.02-0.01,0.07-0.02,0.09-0.03C424.13,317.71,424.09,317.72,424.06,317.73z"/>
	<path class="st0" d="M423.14,317.95c0.02,0,0.05-0.01,0.06-0.02C423.19,317.94,423.16,317.95,423.14,317.95z"/>
	<path class="st0" d="M422.23,318.19c0.02,0,0.05-0.01,0.07-0.02C422.28,318.18,422.25,318.19,422.23,318.19z"/>
	<path class="st0" d="M472.46,318.18c0.02-0.01,0.05-0.03,0.06-0.04C472.5,318.15,472.47,318.17,472.46,318.18z"/>
	<path class="st0" d="M417.79,318.97c0.05-0.23,0.17-0.4,0.38-0.52C418.32,318.84,418.19,319.01,417.79,318.97z"/>
	<path class="st0" d="M420.39,318.64c0.02,0,0.05-0.01,0.07-0.02C420.44,318.63,420.41,318.64,420.39,318.64z"/>
	<path class="st0" d="M471.77,318.64c0.02-0.01,0.05-0.03,0.06-0.04C471.81,318.61,471.78,318.63,471.77,318.64z"/>
	<path class="st0" d="M475.46,318.66c0.01-0.02,0.04-0.05,0.05-0.07C475.49,318.61,475.47,318.65,475.46,318.66z"/>
	<path class="st0" d="M419.69,318.85c0.02-0.01,0.06-0.02,0.08-0.03C419.75,318.83,419.71,318.85,419.69,318.85z"/>
	<path class="st0" d="M471.08,319.1c0.02-0.01,0.05-0.03,0.06-0.04C471.13,319.07,471.09,319.1,471.08,319.1z"/>
	<path class="st0" d="M418.78,319.31c0.02-0.01,0.05-0.03,0.06-0.04C418.83,319.28,418.8,319.3,418.78,319.31z"/>
	<path class="st0" d="M416.62,320.32c0.06-0.22,0.19-0.38,0.41-0.48C417.15,320.23,417.01,320.39,416.62,320.32z"/>
	<path class="st0" d="M468.75,320.22c0.03-0.01,0.07-0.02,0.09-0.03C468.82,320.19,468.77,320.21,468.75,320.22z"/>
	<path class="st0" d="M417.68,320.72c0.01-0.02,0.02-0.05,0.02-0.07C417.69,320.67,417.69,320.7,417.68,320.72z"/>
	<path class="st0" d="M467.4,320.67c0.02,0,0.06-0.01,0.07-0.02C467.45,320.65,467.42,320.66,467.4,320.67z"/>
	<path class="st0" d="M466.48,320.89c0.01,0,0.05-0.01,0.06-0.01C466.52,320.88,466.49,320.89,466.48,320.89z"/>
	<path class="st0" d="M473.15,320.95c0.02-0.01,0.05-0.04,0.07-0.05C473.2,320.91,473.17,320.93,473.15,320.95z"/>
	<path class="st0" d="M465.34,321.12c0.02-0.01,0.06-0.02,0.07-0.02C465.39,321.11,465.35,321.12,465.34,321.12z"/>
	<path class="st0" d="M459.09,321.24c0.1,0.05,0.3,0.15,0.4,0.2C459.4,321.4,459.2,321.29,459.09,321.24z"/>
	<path class="st0" d="M463.23,321.38c0.26-0.1,0.54-0.18,0.83-0.14C464.17,321.68,463.38,321.68,463.23,321.38z"/>
	<path class="st0" d="M472.45,321.4c0.02-0.01,0.05-0.03,0.07-0.04C472.51,321.37,472.47,321.39,472.45,321.4z"/>
	<path class="st0" d="M417.64,321.57c0.01,0.02,0.02,0.06,0.03,0.08C417.66,321.63,417.65,321.59,417.64,321.57z"/>
	<path class="st0" d="M471.28,322.06c0.02-0.01,0.06-0.03,0.07-0.03C471.34,322.04,471.3,322.05,471.28,322.06z"/>
	<path class="st0" d="M417.87,322.25c0.01,0.02,0.02,0.05,0.03,0.07C417.89,322.3,417.88,322.26,417.87,322.25z"/>
	<path class="st0" d="M432.71,322.56c0.09-0.23,0.25-0.38,0.48-0.46c0.21,0.19,0.22,0.39,0.02,0.61
		C433.08,322.67,432.83,322.59,432.71,322.56z"/>
	<path class="st0" d="M470.63,322.31c0.02-0.01,0.06-0.02,0.08-0.03C470.69,322.29,470.65,322.3,470.63,322.31z"/>
	<path class="st0" d="M469.93,322.55c0.02-0.01,0.06-0.02,0.07-0.03C469.99,322.53,469.95,322.54,469.93,322.55z"/>
	<path class="st0" d="M414.19,322.75c0.01-0.01,0.04-0.03,0.06-0.04C414.23,322.72,414.2,322.74,414.19,322.75z"/>
	<path class="st0" d="M432.09,323.01c0.02-0.01,0.05-0.03,0.07-0.04C432.14,322.97,432.11,322.99,432.09,323.01z"/>
	<path class="st0" d="M468.32,322.99c0.02-0.01,0.06-0.02,0.08-0.02C468.38,322.97,468.34,322.98,468.32,322.99z"/>
	<path class="st0" d="M413.49,323.2c0.02-0.01,0.05-0.02,0.06-0.03C413.54,323.18,413.51,323.19,413.49,323.2z"/>
	<path class="st0" d="M419.02,323.4c0.01,0.01,0.04,0.03,0.06,0.04C419.07,323.43,419.04,323.41,419.02,323.4z"/>
	<path class="st0" d="M431.4,323.46c0.02-0.01,0.05-0.03,0.06-0.04C431.45,323.43,431.42,323.45,431.4,323.46z"/>
	<path class="st0" d="M459.82,323.44c0.02,0.01,0.05,0.02,0.07,0.03C459.87,323.46,459.84,323.45,459.82,323.44z"/>
	<path class="st0" d="M465.81,323.46c0.02,0,0.06-0.01,0.07-0.02C465.86,323.45,465.83,323.46,465.81,323.46z"/>
	<path class="st0" d="M409.85,323.62c0.02,0,0.05,0.02,0.07,0.02C409.9,323.64,409.87,323.63,409.85,323.62z"/>
	<path class="st0" d="M412.34,323.65c0.02,0,0.05-0.01,0.07-0.02C412.4,323.63,412.36,323.64,412.34,323.65z"/>
	<path class="st0" d="M457.53,323.69c0.01-0.02,0.02-0.06,0.02-0.08C457.55,323.63,457.54,323.67,457.53,323.69z"/>
	<path class="st0" d="M461.57,323.63c0.85,0.06,1.71,0.05,2.57-0.01C463.29,323.75,462.42,323.79,461.57,323.63z"/>
	<path class="st0" d="M430.01,324.12c0.02-0.01,0.06-0.02,0.07-0.03C430.07,324.09,430.03,324.11,430.01,324.12z"/>
	<path class="st0" d="M459.43,324.4c0-0.02,0.01-0.06,0.02-0.08C459.44,324.34,459.43,324.38,459.43,324.4z"/>
	<path class="st0" d="M421.77,324.53c0.02,0,0.06,0.02,0.08,0.02C421.83,324.55,421.79,324.54,421.77,324.53z"/>
	<path class="st0" d="M428.63,324.57c0.02,0,0.06-0.02,0.09-0.02C428.69,324.55,428.65,324.56,428.63,324.57z"/>
	<path class="st0" d="M414.2,324.82c0.02-0.01,0.05-0.03,0.06-0.04C414.24,324.79,414.21,324.81,414.2,324.82z"/>
	<path class="st0" d="M422.62,324.69c0.11,0.05,0.33,0.14,0.44,0.18C422.95,324.83,422.73,324.74,422.62,324.69z"/>
	<path class="st0" d="M427.72,324.82c0.02,0,0.06-0.01,0.08-0.02C427.78,324.8,427.74,324.81,427.72,324.82z"/>
	<path class="st0" d="M413.52,325.3c0.02-0.01,0.05-0.03,0.06-0.04C413.57,325.27,413.54,325.29,413.52,325.3z"/>
	<path class="st0" d="M457.22,326c-0.05-0.28,0-0.57,0.14-0.81C457.65,325.34,457.64,326.1,457.22,326z"/>
	<path class="st0" d="M412.6,325.76c0.02-0.01,0.06-0.03,0.07-0.03C412.65,325.74,412.61,325.76,412.6,325.76z"/>
	<path class="st0" d="M418.31,325.73c0.02,0.01,0.06,0.02,0.08,0.03C418.37,325.75,418.33,325.74,418.31,325.73z"/>
	<path class="st0" d="M412.12,326.02c0.03-0.02,0.08-0.06,0.11-0.08C412.21,325.96,412.15,326,412.12,326.02z"/>
	<path class="st0" d="M418.78,325.91c0.03,0.02,0.09,0.06,0.12,0.07C418.87,325.97,418.81,325.93,418.78,325.91z"/>
	<path class="st0" d="M431.08,326.71c-0.34,0-0.35-0.87,0.01-0.83C431.19,326.15,431.18,326.43,431.08,326.71z"/>
	<path class="st0" d="M410.28,326.07c0.26-0.04,0.52-0.05,0.79-0.02C411.17,326.45,410.21,326.48,410.28,326.07z"/>
	<path class="st0" d="M419.91,326.19c0.02,0,0.06,0.01,0.07,0.02C419.97,326.2,419.93,326.2,419.91,326.19z"/>
	<path class="st0" d="M433.26,326.12c0.14,0.48,0.16,0.98,0.11,1.48C432.87,327.44,433.02,326.5,433.26,326.12z"/>
	<path class="st0" d="M421.05,326.43c0.02,0,0.06,0.01,0.07,0.02C421.11,326.44,421.07,326.43,421.05,326.43z"/>
	<path class="st0" d="M429.09,326.44c0.03-0.01,0.09-0.04,0.13-0.05C429.18,326.4,429.12,326.43,429.09,326.44z"/>
	<path class="st0" d="M422.2,326.58l0.09,0.01l0.06,0.08C422.31,326.64,422.24,326.6,422.2,326.58z"/>
	<path class="st0" d="M428.39,326.64c0.03-0.01,0.07-0.02,0.1-0.03C428.47,326.62,428.42,326.64,428.39,326.64z"/>
	<path class="st0" d="M459.05,326.94c0.05-0.1,0.16-0.31,0.21-0.41C459.21,326.63,459.11,326.83,459.05,326.94z"/>
	<path class="st0" d="M423.8,326.75c0.1,0.05,0.31,0.16,0.41,0.21C424.1,326.9,423.9,326.8,423.8,326.75z"/>
	<path class="st0" d="M426.97,326.94c0.11-0.04,0.34-0.12,0.45-0.17C427.31,326.82,427.08,326.9,426.97,326.94z"/>
	<path class="st0" d="M431.02,327.16c0-0.03,0-0.08,0.01-0.11L431.02,327.16z"/>
	<path class="st0" d="M457,327.65c0.05-0.11,0.14-0.33,0.19-0.44C457.14,327.32,457.04,327.54,457,327.65z"/>
	<path class="st0" d="M431.02,327.61c0-0.03,0-0.08,0-0.11L431.02,327.61z"/>
	<path class="st0" d="M433.38,328.31c-0.37-0.11-0.37-0.24-0.01-0.36C433.38,328.04,433.38,328.22,433.38,328.31z"/>
	<path class="st0" d="M458.81,328.77c0.06-0.1,0.17-0.3,0.22-0.4C458.98,328.47,458.87,328.67,458.81,328.77z"/>
	<path class="st0" d="M456.76,329.48c0.05-0.1,0.15-0.3,0.2-0.4C456.92,329.17,456.82,329.38,456.76,329.48z"/>
	<path class="st0" d="M458.73,330.59c0-0.02,0.01-0.06,0.02-0.07C458.75,330.54,458.74,330.57,458.73,330.59z"/>
	<path class="st0" d="M456.64,330.81c0-0.02,0.02-0.06,0.02-0.08C456.66,330.75,456.65,330.78,456.64,330.81z"/>
	<path class="st0" d="M458.37,332.65c-0.1-0.29-0.04-0.59,0.14-0.82C458.74,332.01,458.76,332.72,458.37,332.65z"/>
	<path class="st0" d="M456.31,332.91c0.05-0.1,0.16-0.31,0.22-0.41C456.47,332.6,456.36,332.81,456.31,332.91z"/>
	<path class="st0" d="M431.19,332.75c0.17,0.23,0.24,0.53,0.14,0.82C430.93,333.64,430.95,332.93,431.19,332.75z"/>
	<path class="st0" d="M433.46,333.64c0.13,0.19,0.18,0.4,0.15,0.64C433.23,334.2,433.18,333.99,433.46,333.64z"/>
	<path class="st0" d="M458.12,334.05c0.06-0.1,0.17-0.31,0.22-0.41C458.29,333.74,458.18,333.94,458.12,334.05z"/>
	<path class="st0" d="M456.18,334.02c0-0.02,0.02-0.06,0.02-0.08C456.2,333.96,456.19,334,456.18,334.02z"/>
	<path class="st0" d="M431.39,335.49c0.2,0.17,0.25,0.37,0.17,0.61C431.21,336.03,431.16,335.83,431.39,335.49z"/>
	<path class="st0" d="M455.85,335.89c0.05-0.1,0.16-0.31,0.21-0.41C456.01,335.58,455.9,335.79,455.85,335.89z"/>
	<path class="st0" d="M458.05,335.64c0-0.02,0.01-0.06,0.02-0.07C458.06,335.58,458.05,335.62,458.05,335.64z"/>
	<path class="st0" d="M433.7,335.94c0.14,0.19,0.19,0.39,0.15,0.63C433.47,336.49,433.42,336.28,433.7,335.94z"/>
	<path class="st0" d="M455.62,337.04c0.06-0.1,0.17-0.31,0.22-0.41C455.79,336.73,455.68,336.94,455.62,337.04z"/>
	<path class="st0" d="M457.8,337c0-0.02,0.01-0.05,0.01-0.07C457.81,336.95,457.8,336.98,457.8,337z"/>
	<path class="st0" d="M431.58,337.76c0.05,0.1,0.16,0.31,0.21,0.41C431.73,338.07,431.63,337.86,431.58,337.76z"/>
	<path class="st0" d="M455.48,337.91c0.01-0.02,0.02-0.05,0.02-0.07C455.5,337.86,455.49,337.9,455.48,337.91z"/>
	<path class="st0" d="M433.97,338.06c0,0.02,0.01,0.05,0.02,0.07C433.98,338.11,433.97,338.08,433.97,338.06z"/>
	<path class="st0" d="M457.59,338.16c0-0.02,0.01-0.06,0.02-0.08C457.6,338.1,457.6,338.14,457.59,338.16z"/>
	<path class="st0" d="M434.2,338.99c0,0.02,0.01,0.05,0.01,0.06C434.21,339.04,434.2,339.01,434.2,338.99z"/>
	<path class="st0" d="M457.36,339.08c0-0.02,0.01-0.06,0.02-0.08C457.37,339.02,457.37,339.06,457.36,339.08z"/>
	<path class="st0" d="M455.04,339.3c0.01-0.02,0.02-0.07,0.03-0.09C455.06,339.24,455.05,339.28,455.04,339.3z"/>
	<path class="st0" d="M431.82,339.38c0.04,0.11,0.12,0.34,0.17,0.45C431.94,339.72,431.86,339.49,431.82,339.38z"/>
	<path class="st0" d="M454.82,339.98c0.01-0.02,0.03-0.05,0.04-0.07C454.85,339.93,454.83,339.97,454.82,339.98z"/>
	<path class="st0" d="M457.1,339.97c0.01-0.02,0.02-0.06,0.03-0.08C457.12,339.91,457.1,339.95,457.1,339.97z"/>
	<path class="st0" d="M434.62,340.36c0.01,0.02,0.02,0.06,0.03,0.09C434.64,340.43,434.62,340.38,434.62,340.36z"/>
	<path class="st0" d="M454.56,340.41c0.01-0.02,0.03-0.05,0.04-0.07C454.59,340.36,454.57,340.39,454.56,340.41z"/>
	<path class="st0" d="M432.04,340.52c0.06,0.1,0.17,0.31,0.22,0.41C432.2,340.82,432.09,340.62,432.04,340.52z"/>
	<path class="st0" d="M456.86,340.66c0.01-0.02,0.02-0.06,0.03-0.08C456.88,340.6,456.87,340.64,456.86,340.66z"/>
	<path class="st0" d="M456.66,341.14c0.01-0.02,0.02-0.06,0.03-0.08C456.68,341.08,456.66,341.12,456.66,341.14z"/>
	<path class="st0" d="M454.1,341.33c0.01-0.02,0.03-0.05,0.03-0.06C454.12,341.28,454.11,341.32,454.1,341.33z"/>
	<path class="st0" d="M432.32,341.76c0.01,0.02,0.02,0.06,0.03,0.08C432.34,341.82,432.33,341.78,432.32,341.76z"/>
	<path class="st0" d="M435.3,341.98c0.01,0.02,0.03,0.06,0.04,0.08C435.33,342.04,435.31,342,435.3,341.98z"/>
	<path class="st0" d="M456.19,342.06c0.01-0.02,0.03-0.07,0.04-0.09C456.22,341.99,456.2,342.04,456.19,342.06z"/>
	<path class="st0" d="M453.42,342.27c0.01-0.02,0.04-0.05,0.05-0.06C453.46,342.22,453.43,342.26,453.42,342.27z"/>
	<path class="st0" d="M432.57,342.41c0.01,0.02,0.02,0.06,0.03,0.08C432.59,342.47,432.57,342.43,432.57,342.41z"/>
	<path class="st0" d="M435.78,342.88c0.01,0.01,0.03,0.04,0.04,0.06C435.81,342.92,435.79,342.9,435.78,342.88z"/>
	<path class="st0" d="M452.04,343.64c0.02-0.01,0.05-0.04,0.07-0.05C452.09,343.6,452.06,343.63,452.04,343.64z"/>
	<path class="st0" d="M453.79,345.02c0.35-0.36,0.72-0.71,1.08-1.06l0.07,0.21C454.43,344.31,454.35,344.92,453.79,345.02z"/>
	<path class="st0" d="M433.45,344.1c0.22,0.1,0.36,0.27,0.4,0.52C433.46,344.65,433.33,344.48,433.45,344.1z"/>
	<path class="st0" d="M437.58,344.74c0.02,0.01,0.05,0.03,0.06,0.05C437.63,344.77,437.6,344.75,437.58,344.74z"/>
	<path class="st0" d="M450.19,344.79c0.02-0.01,0.05-0.03,0.07-0.04C450.24,344.76,450.21,344.78,450.19,344.79z"/>
	<path class="st0" d="M449.71,345c0.02-0.01,0.06-0.03,0.08-0.03C449.77,344.98,449.73,344.99,449.71,345z"/>
	<path class="st0" d="M434.11,345.13c0.46,0.42,0.92,0.85,1.36,1.3C434.91,346.13,434.47,345.65,434.11,345.13z"/>
	<path class="st0" d="M438.29,345.19c0.01,0.01,0.04,0.03,0.06,0.04C438.33,345.21,438.3,345.2,438.29,345.19z"/>
	<path class="st0" d="M448.97,345.29c0.11-0.05,0.33-0.14,0.44-0.18C449.3,345.15,449.08,345.25,448.97,345.29z"/>
	<path class="st0" d="M448.57,345.45c0.02-0.01,0.06-0.02,0.08-0.03C448.63,345.43,448.59,345.45,448.57,345.45z"/>
	<path class="st0" d="M439.19,345.68c0.02,0.01,0.05,0.02,0.06,0.03C439.24,345.7,439.2,345.69,439.19,345.68z"/>
	<path class="st0" d="M447.9,345.67c0.02-0.01,0.05-0.02,0.07-0.02C447.96,345.65,447.92,345.66,447.9,345.67z"/>
	<path class="st0" d="M452.61,345.96c0.01-0.28,0.17-0.41,0.47-0.41C453.12,345.89,452.96,346.03,452.61,345.96z"/>
	<path class="st0" d="M439.65,345.9c0.02,0.01,0.06,0.02,0.07,0.03C439.7,345.92,439.67,345.91,439.65,345.9z"/>
	<path class="st0" d="M440.34,346.11c0.02,0,0.06,0.02,0.07,0.03C440.4,346.13,440.36,346.12,440.34,346.11z"/>
	<path class="st0" d="M446.04,346.22c0.03-0.03,0.1-0.09,0.14-0.12C446.14,346.13,446.08,346.19,446.04,346.22z"/>
	<path class="st0" d="M452.29,346.17c0.02-0.01,0.05-0.03,0.06-0.04C452.33,346.14,452.3,346.16,452.29,346.17z"/>
	<path class="st0" d="M440.96,346.25c0.11,0.05,0.33,0.13,0.44,0.18C441.3,346.38,441.07,346.29,440.96,346.25z"/>
	<path class="st0" d="M444.85,346.43c0.11-0.05,0.33-0.14,0.44-0.18C445.17,346.29,444.96,346.38,444.85,346.43z"/>
	<path class="st0" d="M436.23,347.03c0.02,0.01,0.05,0.03,0.06,0.04C436.27,347.06,436.24,347.04,436.23,347.03z"/>
	<path class="st0" d="M436.65,347.28c0.02,0.01,0.05,0.03,0.07,0.04C436.7,347.31,436.67,347.29,436.65,347.28z"/>
	<path class="st0" d="M449.29,347.53c0.02-0.01,0.06-0.02,0.08-0.03C449.35,347.51,449.31,347.52,449.29,347.53z"/>
	<path class="st0" d="M448.58,347.82c0.03-0.03,0.1-0.08,0.13-0.11C448.68,347.74,448.62,347.79,448.58,347.82z"/>
	<path class="st0" d="M438.04,347.92l0.07,0.01l0.05,0.03C438.13,347.95,438.07,347.93,438.04,347.92z"/>
	<path class="st0" d="M447.59,348.03c0.11-0.05,0.31-0.15,0.42-0.2C447.91,347.87,447.7,347.98,447.59,348.03z"/>
	<path class="st0" d="M446.97,348.2c0.02-0.01,0.07-0.02,0.09-0.03C447.04,348.18,446.99,348.19,446.97,348.2z"/>
	<path class="st0" d="M439.63,348.45c0.02,0,0.06,0.01,0.08,0.02C439.69,348.46,439.65,348.45,439.63,348.45z"/>
	<path class="st0" d="M445.85,348.44c0.02,0,0.05-0.01,0.07-0.01C445.9,348.43,445.86,348.44,445.85,348.44z"/>
	<path class="st0" d="M440.54,348.52c0.1,0.06,0.3,0.17,0.4,0.22C440.84,348.69,440.64,348.57,440.54,348.52z"/>
	<path class="st0" d="M444.16,348.74c0.1-0.05,0.31-0.15,0.41-0.21C444.47,348.59,444.26,348.69,444.16,348.74z"/>
	<g>
		<path class="st0" d="M450.12,260.28c1.02-0.04,2.04-0.05,3.05-0.04c0.49,0.1,0.98,0.1,1.47,0l0.35-0.04l0.11,0
			c0.94,0.05,1.88,0.05,2.81,0.09c0.1,0.05,0.31,0.16,0.41,0.21c0.32-0.04,0.65-0.03,0.97,0.02c0.1,0.06,0.3,0.17,0.4,0.22
			c0.35-0.07,0.68-0.05,0.99,0.08l0.06,0.07l0.08,0.01c0.19,0.02,0.56,0.07,0.75,0.09c0.1,0.06,0.31,0.16,0.41,0.22
			c0.15,0.01,0.45,0.04,0.6,0.06c0.02,0,0.06,0.02,0.08,0.02c0.21,0.06,0.62,0.18,0.82,0.24c0.02,0.01,0.06,0.02,0.07,0.03
			l0.39,0.17c0.02,0.01,0.06,0.02,0.08,0.03c0.19,0.04,0.55,0.11,0.74,0.14l0.02,0.16c0.35,0.06,0.66,0.23,0.98,0.38
			c0.02,0.01,0.06,0.03,0.07,0.03l0.39,0.18c0.02,0.01,0.06,0.03,0.08,0.04l0.39,0.18c0.02,0.01,0.06,0.03,0.08,0.03
			c0.29,0.12,0.58,0.27,0.85,0.43c0.02,0.01,0.06,0.03,0.07,0.04l0.36,0.2c0.02,0.01,0.05,0.03,0.07,0.04
			c0.3,0.21,0.75,0.29,0.94,0.64c0.08,0.25,0.25,0.37,0.51,0.39c0.14,0.07,0.43,0.21,0.58,0.28c0.02,0.01,0.05,0.03,0.06,0.04
			c0.11,0.11,0.34,0.33,0.45,0.44c0.08,0.24,0.26,0.37,0.51,0.38c0.46,0.16,0.74,0.66,1.15,0.94c0.6,0.61,1.18,1.24,1.8,1.83
			c0.22,0.31,0.64,0.52,0.73,0.9c0.01,0.25,0.14,0.42,0.38,0.51c0.1,0.12,0.31,0.36,0.41,0.48c0.01,0.02,0.03,0.05,0.04,0.07
			l0.18,0.37c0.01,0.02,0.03,0.06,0.03,0.08c0.16,0.34,0.32,0.68,0.44,1.03c0.01,0.03,0.04,0.09,0.05,0.11
			c0.04,0.21,0.12,0.62,0.16,0.83c0.01,0.03,0.03,0.08,0.03,0.11c0.17,0.39,0.16,0.84,0.11,1.25c0.05,0.1,0.15,0.31,0.21,0.41
			c0,1.53,0.14,3.12-0.07,4.62c-0.18,0.24-0.24,0.54-0.14,0.82c0.08,0.4,0.01,0.81-0.02,1.22c-0.05,0.1-0.15,0.31-0.2,0.41
			c0.06,0.5,0.04,1.02-0.07,1.52c0,0.02-0.01,0.06-0.02,0.08c-0.09,0.35-0.17,0.71-0.24,1.06c0,0.02-0.01,0.05-0.01,0.07
			c-0.06,0.36-0.13,0.73-0.19,1.09c0,0.02-0.01,0.05-0.02,0.07c-0.05,0.19-0.14,0.56-0.19,0.75c-0.05,0.1-0.15,0.31-0.2,0.42
			c-0.01,0.19-0.03,0.58-0.04,0.77c-0.03,0.03-0.08,0.1-0.11,0.14c-0.04,0.21-0.11,0.62-0.14,0.83c-0.01,0.02-0.02,0.06-0.02,0.08
			c-0.05,0.15-0.15,0.46-0.2,0.61c-0.01,0.02-0.02,0.06-0.03,0.08c-0.05,0.21-0.16,0.62-0.21,0.83c-0.01,0.02-0.02,0.07-0.03,0.09
			c-0.05,0.19-0.16,0.58-0.21,0.77l-0.06,0.06l-0.01,0.08c-0.03,0.15-0.08,0.44-0.11,0.59c-0.03,0.03-0.08,0.1-0.11,0.14
			c-0.03,0.16-0.08,0.47-0.11,0.63c-0.07,0.16-0.21,0.47-0.28,0.62c-0.01,0.02-0.02,0.07-0.03,0.09c-0.04,0.17-0.12,0.5-0.16,0.66
			c-0.07,0.16-0.2,0.47-0.26,0.63c-0.01,0.02-0.02,0.06-0.03,0.08c-0.05,0.15-0.15,0.46-0.21,0.61c-0.01,0.02-0.02,0.06-0.03,0.08
			c-0.06,0.14-0.17,0.43-0.23,0.57c-0.01,0.03-0.03,0.08-0.03,0.1c-0.03,0.13-0.08,0.4-0.11,0.53l-0.15,0
			c-0.03,0.14-0.1,0.41-0.13,0.55c-0.01,0.02-0.02,0.06-0.03,0.08c-0.06,0.14-0.17,0.43-0.22,0.58c-0.01,0.02-0.02,0.06-0.03,0.09
			c-0.12,0.36-0.28,0.71-0.43,1.06c-0.01,0.02-0.03,0.06-0.03,0.08l-0.17,0.4c-0.01,0.02-0.03,0.06-0.03,0.08
			c-0.06,0.15-0.17,0.44-0.22,0.58c-0.01,0.02-0.02,0.05-0.03,0.07l-0.19,0.38c-0.01,0.02-0.03,0.07-0.04,0.09
			c-0.13,0.36-0.27,0.72-0.42,1.07c-0.01,0.02-0.03,0.06-0.03,0.08l-0.17,0.4c-0.01,0.02-0.03,0.06-0.03,0.08l-0.19,0.38
			c-0.01,0.02-0.03,0.06-0.04,0.08l-0.19,0.38c-0.01,0.02-0.03,0.06-0.04,0.08c-0.04,0.11-0.13,0.33-0.17,0.44
			c-0.25,0.5-0.51,1.01-0.74,1.52c-0.01,0.02-0.03,0.05-0.03,0.07c-0.15,0.28-0.29,0.56-0.42,0.85c-0.01,0.02-0.03,0.05-0.03,0.07
			c-0.36,0.67-0.68,1.37-1.08,2.03c-0.01,0.02-0.03,0.06-0.04,0.07l-0.19,0.37c-0.01,0.02-0.03,0.06-0.04,0.07l-0.21,0.36
			c-0.01,0.02-0.03,0.05-0.04,0.07c-0.14,0.23-0.26,0.46-0.38,0.69c-0.06,0.1-0.18,0.3-0.24,0.4c-0.01,0.02-0.03,0.06-0.05,0.07
			c-0.22,0.36-0.43,0.72-0.64,1.08c-0.01,0.02-0.03,0.05-0.04,0.07l-0.16,0.29c0.49,0.04,1.02-0.1,1.49,0.1
			c0.45,0.29,0.98,0.2,1.44,0l0.16-0.01c0.02,0,0.05,0,0.06,0c0.65-0.11,1.32-0.12,1.98-0.08c0.1-0.05,0.31-0.15,0.41-0.2
			c0.32-0.02,0.65-0.05,0.97-0.08c0.03-0.03,0.11-0.09,0.14-0.12c0.4-0.08,0.82-0.08,1.23-0.04c0.1-0.06,0.3-0.17,0.4-0.23
			c0.48-0.05,0.96-0.03,1.44,0.01c0.03,0.03,0.1,0.08,0.13,0.11c0.17,0.03,0.5,0.08,0.67,0.11c0.16,0.15,0.31,0.32,0.45,0.5
			c0.07,0.22,0.21,0.38,0.43,0.47c0.07,0.05,0.22,0.14,0.29,0.18c0.03,0.12,0.08,0.36,0.11,0.49c0.01,0.03,0.03,0.08,0.03,0.1
			c0.2,0.63,0.14,1.35,0.04,1.99c0,0.02-0.01,0.06-0.02,0.07c-0.05,0.17-0.14,0.5-0.18,0.66c-0.07,0.16-0.2,0.48-0.27,0.64
			c-0.01,0.02-0.03,0.06-0.03,0.08l-0.19,0.39c-0.01,0.02-0.03,0.06-0.04,0.08l-0.19,0.37c-0.01,0.02-0.03,0.06-0.04,0.08
			c-0.25,0.47-0.55,0.9-0.87,1.32c-0.01,0.02-0.04,0.05-0.05,0.07c-0.68,0.8-1.43,1.56-2.24,2.24c-0.02,0.01-0.05,0.04-0.07,0.05
			c-0.16,0.1-0.47,0.31-0.62,0.41c-0.02,0.01-0.05,0.03-0.07,0.04c-0.36,0.22-0.72,0.44-1.1,0.63c-0.02,0.01-0.06,0.02-0.07,0.03
			c-0.14,0.05-0.43,0.16-0.57,0.22c-0.02,0.01-0.06,0.02-0.08,0.03c-0.16,0.06-0.47,0.16-0.62,0.22c-0.02,0.01-0.06,0.02-0.07,0.03
			c-0.16,0.07-0.48,0.2-0.64,0.26c-0.3,0.03-0.6,0.08-0.89,0.15c-0.02,0.01-0.06,0.02-0.08,0.02c-0.78,0.39-1.62,0.24-2.44,0.45
			c-0.02,0-0.06,0.01-0.07,0.02c-0.55,0.13-1.12,0.09-1.67,0.16c-0.86,0.06-1.72,0.08-2.57,0.01c-0.56-0.06-1.13-0.05-1.68-0.16
			c-0.02-0.01-0.05-0.02-0.07-0.03l-0.3-0.15c0.02,0.35,0,0.69-0.08,1.04c0,0.02-0.01,0.06-0.02,0.08
			c-0.25,0.69-0.07,1.42-0.16,2.13c-0.05,0.1-0.16,0.31-0.21,0.41c0.06,0.47,0.01,0.95-0.02,1.43c-0.06,0.1-0.17,0.3-0.22,0.4
			c0.02,0.58,0.09,1.18-0.06,1.75c-0.01,0.02-0.02,0.06-0.02,0.07c-0.18,0.39-0.06,0.84-0.23,1.24c-0.18,0.24-0.24,0.54-0.14,0.82
			c0.05,0.33,0.04,0.66-0.02,0.99c-0.06,0.1-0.17,0.31-0.22,0.41c0.02,0.5,0.08,1.02-0.05,1.52c0,0.02-0.01,0.06-0.02,0.07
			c-0.14,0.42-0.13,0.86-0.24,1.29c0,0.02-0.01,0.05-0.01,0.07c-0.07,0.36-0.13,0.72-0.19,1.09c0,0.02-0.01,0.06-0.02,0.08
			c-0.05,0.21-0.16,0.63-0.21,0.84c0,0.02-0.01,0.06-0.02,0.08c-0.06,0.2-0.18,0.61-0.24,0.81c-0.01,0.02-0.02,0.06-0.03,0.08
			c-0.05,0.15-0.15,0.45-0.21,0.6c-0.01,0.02-0.02,0.06-0.03,0.08l-0.17,0.4c-0.01,0.02-0.03,0.06-0.03,0.08
			c-0.04,0.11-0.13,0.33-0.17,0.44c-0.06,0.1-0.19,0.3-0.25,0.4c-0.01,0.02-0.03,0.07-0.04,0.09c-0.04,0.11-0.11,0.33-0.15,0.43
			c-0.38,0.49-0.69,1.04-1.16,1.46c-0.36,0.35-0.73,0.7-1.08,1.06c-0.23,0.18-0.41,0.51-0.72,0.53c-0.3,0-0.45,0.14-0.47,0.41
			l-0.26,0.17c-0.02,0.01-0.05,0.03-0.06,0.04c-0.28,0.17-0.58,0.32-0.86,0.48c-0.28,0.12-0.55,0.26-0.84,0.33v0.17
			c-0.3-0.04-0.55,0.03-0.76,0.2c-0.11,0.04-0.33,0.12-0.45,0.16c-0.02,0.01-0.06,0.02-0.08,0.03c-0.14,0.05-0.43,0.14-0.58,0.18
			c-0.03,0.03-0.1,0.08-0.13,0.11c-0.14,0-0.43,0-0.57,0.01c-0.11,0.05-0.31,0.15-0.42,0.2c-0.13,0.04-0.4,0.11-0.53,0.15
			c-0.02,0.01-0.07,0.02-0.09,0.03c-0.35,0.08-0.7,0.16-1.05,0.22c-0.02,0-0.05,0.01-0.07,0.01c-0.42,0.1-0.86,0.17-1.28,0.1
			c-0.1,0.05-0.31,0.15-0.41,0.21c-1.07,0.05-2.15,0.04-3.22,0c-0.1-0.06-0.3-0.17-0.4-0.22c-0.21-0.01-0.62-0.04-0.83-0.06
			c-0.02,0-0.06-0.01-0.08-0.02c-0.3-0.08-0.59-0.14-0.89-0.18c-0.14-0.08-0.43-0.23-0.58-0.3l-0.05-0.03l-0.07-0.01
			c-0.15-0.06-0.45-0.17-0.6-0.23c-0.25-0.11-0.49-0.23-0.72-0.37c-0.02-0.01-0.05-0.03-0.07-0.04l-0.36-0.21
			c-0.02-0.01-0.05-0.03-0.06-0.04c-0.28-0.16-0.52-0.38-0.75-0.6c-0.44-0.45-0.9-0.87-1.36-1.3l-0.15-0.15
			c-0.03-0.09-0.08-0.28-0.11-0.37c-0.04-0.24-0.17-0.42-0.4-0.52c-0.07-0.05-0.2-0.14-0.27-0.19c-0.05-0.12-0.16-0.37-0.21-0.5
			c-0.14-0.3-0.28-0.61-0.39-0.93c-0.01-0.02-0.02-0.06-0.03-0.08c-0.05-0.14-0.16-0.43-0.22-0.57c-0.01-0.02-0.02-0.06-0.03-0.08
			c-0.02-0.21-0.05-0.62-0.06-0.83c-0.06-0.1-0.17-0.31-0.22-0.41c-0.01-0.17-0.04-0.52-0.06-0.69c-0.04-0.11-0.12-0.34-0.17-0.45
			c-0.06-0.4-0.08-0.81-0.03-1.21c-0.05-0.1-0.16-0.31-0.21-0.41c-0.01-0.55-0.14-1.12-0.01-1.66c0.08-0.24,0.03-0.44-0.17-0.61
			c-0.11-0.62-0.14-1.29-0.06-1.92c0.1-0.28,0.03-0.58-0.14-0.82c-0.25-1.67,0.01-3.44-0.17-5.15l0-0.11l0-0.34l0.01-0.11l0.06-0.33
			c0.1-0.29,0.11-0.56,0.01-0.83c-0.09-0.08-0.28-0.23-0.37-0.31c-0.22,0.33-0.64,0.46-1.01,0.53l0,0.15
			c-0.12,0.03-0.37,0.1-0.49,0.14c-0.03,0.01-0.1,0.04-0.13,0.05c-0.15,0.04-0.45,0.13-0.6,0.17c-0.02,0.01-0.07,0.03-0.1,0.03
			c-0.32,0.13-0.64,0.17-0.98,0.13c-0.11,0.04-0.33,0.13-0.45,0.17c-0.92,0.07-1.85,0.05-2.76,0.01c-0.1-0.05-0.31-0.16-0.41-0.21
			c-0.47,0.03-1,0.09-1.45-0.09l-0.06-0.08l-0.09-0.01c-0.36-0.02-0.72-0.07-1.07-0.13c-0.02,0-0.06-0.01-0.07-0.02
			c-0.36-0.08-0.71-0.16-1.07-0.22c-0.02,0-0.06-0.01-0.07-0.02c-0.34-0.08-0.67-0.15-1.01-0.21c-0.03-0.02-0.09-0.06-0.12-0.07
			l-0.38-0.15c-0.02-0.01-0.06-0.02-0.08-0.03c-0.17-0.04-0.51-0.13-0.68-0.17c-0.82-0.46-2-0.78-2.2-1.83
			c-0.39,0.35-0.73,0.75-1.18,1.04c-0.02,0.01-0.05,0.03-0.06,0.04c-0.15,0.11-0.46,0.33-0.61,0.44c-0.02,0.01-0.05,0.03-0.06,0.04
			c-0.27,0.17-0.55,0.32-0.85,0.43c-0.02,0.01-0.06,0.03-0.07,0.03l-0.36,0.18c-0.03,0.02-0.08,0.06-0.11,0.08
			c-0.35,0.05-0.7,0.06-1.05,0.03c-0.26-0.03-0.53-0.03-0.79,0.02c-0.42,0.03-0.88,0.05-1.28-0.11c-0.02-0.01-0.07-0.02-0.09-0.03
			c-0.11-0.03-0.34-0.1-0.45-0.13c-0.45-0.22-0.9-0.45-1.32-0.72c-0.02-0.01-0.05-0.03-0.07-0.04c-0.25-0.19-0.53-0.36-0.7-0.62
			c-0.07-0.27-0.24-0.41-0.49-0.41h-0.24l-0.03-0.27c0.03-0.49-0.38-0.77-0.8-0.9c-0.3-0.17-0.46-0.48-0.67-0.73
			c-0.01-0.02-0.03-0.05-0.05-0.06c-0.21-0.29-0.43-0.57-0.63-0.85c-0.01-0.02-0.04-0.05-0.05-0.07c-0.1-0.16-0.31-0.47-0.42-0.63
			c-0.01-0.02-0.03-0.05-0.04-0.06c-0.23-0.35-0.43-0.72-0.65-1.08c-0.01-0.02-0.03-0.06-0.04-0.08l-0.19-0.36
			c-0.01-0.02-0.03-0.06-0.04-0.07c-0.14-0.23-0.26-0.47-0.37-0.71c-0.06-0.1-0.18-0.3-0.25-0.4c-0.01-0.02-0.03-0.05-0.04-0.07
			c-0.14-0.28-0.28-0.57-0.42-0.85c-0.01-0.02-0.03-0.05-0.03-0.07c-0.17-0.36-0.33-0.72-0.5-1.07c-0.06-0.11-0.18-0.34-0.25-0.45
			c-0.03-0.11-0.09-0.34-0.13-0.45c-0.01-0.03-0.03-0.08-0.04-0.1l-0.2-0.37c-0.01-0.02-0.02-0.05-0.03-0.07
			c-0.04-0.13-0.11-0.4-0.15-0.53l-0.16,0c-0.01-0.45-0.22-0.85-0.44-1.23c-0.03-0.11-0.09-0.33-0.12-0.45
			c-0.01-0.03-0.03-0.08-0.04-0.1c-0.08-0.15-0.23-0.44-0.3-0.59c-0.09-0.39-0.23-0.77-0.36-1.15c-0.01-0.02-0.02-0.06-0.03-0.08
			c-0.06-0.14-0.16-0.43-0.22-0.58c-0.01-0.02-0.02-0.06-0.03-0.08c-0.05-0.15-0.16-0.46-0.21-0.61c-0.01-0.02-0.02-0.06-0.03-0.08
			c-0.07-0.16-0.2-0.48-0.26-0.64c-0.05-0.4-0.32-0.72-0.35-1.12l-0.01-0.07l-0.03-0.07c-0.2-0.47-0.33-0.97-0.47-1.46
			c0-0.02-0.02-0.06-0.02-0.08c-0.05-0.15-0.14-0.46-0.19-0.61c0-0.02-0.02-0.06-0.02-0.08c-0.05-0.16-0.14-0.47-0.18-0.63
			c-0.01-0.02-0.02-0.07-0.03-0.09c-0.05-0.15-0.15-0.45-0.2-0.6c-0.01-0.02-0.02-0.06-0.03-0.08c-0.06-0.2-0.18-0.61-0.24-0.81
			c0-0.02-0.02-0.06-0.02-0.08c-0.02-0.15-0.05-0.44-0.06-0.59c-0.05-0.11-0.14-0.32-0.19-0.42c-0.04-0.13-0.13-0.38-0.17-0.51
			c0-0.02-0.02-0.06-0.02-0.08c-0.05-0.21-0.15-0.63-0.2-0.84c-0.01-0.02-0.02-0.06-0.02-0.08c-0.05-0.15-0.15-0.44-0.2-0.59
			c-0.01-0.03-0.04-0.09-0.05-0.12c-0.04-0.21-0.11-0.62-0.15-0.82c-0.01-0.03-0.02-0.08-0.03-0.1c-0.06-0.2-0.18-0.61-0.24-0.81
			c0-0.02-0.01-0.06-0.02-0.08c-0.04-0.2-0.13-0.61-0.18-0.81c-0.02-0.03-0.06-0.1-0.08-0.13c-0.03-0.2-0.08-0.61-0.11-0.81
			l-0.01-0.09l-0.07-0.06c-0.05-0.19-0.14-0.56-0.19-0.75c-0.02-0.03-0.06-0.1-0.08-0.14c-0.02-0.35-0.06-0.69-0.12-1.04
			c-0.01-0.03-0.03-0.08-0.04-0.11c-0.02-0.2-0.07-0.59-0.09-0.79c-0.05-0.1-0.15-0.31-0.21-0.41c-0.03-0.18-0.1-0.54-0.13-0.72
			c-0.03-0.03-0.08-0.1-0.11-0.14c-0.05-0.34-0.06-0.68-0.02-1.02c-0.05-0.11-0.15-0.31-0.2-0.42c-0.05-0.19-0.13-0.56-0.18-0.75
			c0-0.02-0.02-0.06-0.02-0.08c-0.14-0.41-0.08-0.86-0.06-1.28c-0.05-0.1-0.16-0.31-0.21-0.41c-0.05-0.33-0.11-0.66-0.18-0.98
			c0-0.02-0.01-0.06-0.02-0.08c-0.12-0.63-0.11-1.29-0.1-1.92c-0.04-0.11-0.13-0.33-0.17-0.44c-0.04-1.23-0.12-2.5,0.04-3.71
			c0.19-0.17,0.25-0.37,0.17-0.61c-0.11-0.7,0.01-1.42,0.01-2.12c0.05-0.1,0.16-0.31,0.21-0.41c-0.04-0.32-0.03-0.65,0.02-0.97
			c0.06-0.1,0.17-0.3,0.22-0.4c0-0.2,0.01-0.6,0.01-0.8c0.03-0.03,0.08-0.1,0.1-0.13c0.05-0.19,0.14-0.56,0.19-0.75l0.07-0.06
			l0.01-0.09c0.02-0.17,0.06-0.5,0.08-0.66c0.07-0.16,0.21-0.47,0.28-0.63c0.01-0.02,0.03-0.06,0.03-0.08
			c0.06-0.15,0.17-0.44,0.22-0.59c0.01-0.02,0.02-0.06,0.03-0.08c0.13-0.49,0.39-0.93,0.61-1.37c0.21-0.45,0.43-0.9,0.7-1.32
			c0.01-0.02,0.03-0.05,0.04-0.07c0.1-0.16,0.31-0.47,0.41-0.63c0.01-0.02,0.03-0.05,0.04-0.07c0.11-0.12,0.33-0.37,0.43-0.49
			c0.12-0.04,0.35-0.13,0.46-0.17c0.03-0.12,0.09-0.37,0.12-0.5c0.46-0.77,1.25-1.38,1.91-2c0.02-0.01,0.05-0.03,0.06-0.04
			c0.66-0.46,1.31-0.94,2.03-1.31c0.02-0.01,0.05-0.03,0.07-0.04l0.37-0.21c0.02-0.01,0.05-0.03,0.07-0.04l0.38-0.19
			c0.02-0.01,0.06-0.03,0.08-0.04l0.38-0.18c0.02-0.01,0.06-0.03,0.08-0.03c0.16-0.07,0.47-0.2,0.63-0.27
			c0.11-0.04,0.32-0.12,0.42-0.16c0.03-0.01,0.08-0.03,0.1-0.04c0.15-0.04,0.46-0.12,0.61-0.17c0.03-0.01,0.07-0.02,0.1-0.03
			c0.14-0.02,0.42-0.06,0.56-0.09c0.11-0.05,0.31-0.15,0.42-0.2c0.13-0.04,0.4-0.11,0.53-0.15c0.02-0.01,0.07-0.02,0.09-0.03
			c0.41-0.14,0.86-0.11,1.27-0.24c0.02,0,0.06-0.01,0.08-0.02c0.35-0.11,0.71-0.13,1.07-0.06c0.24,0.08,0.44,0.02,0.61-0.17
			c1.9-0.13,3.87-0.13,5.77,0c0.17,0.19,0.37,0.25,0.61,0.18c0.47-0.09,0.96-0.02,1.44,0.01c0.1,0.05,0.31,0.15,0.41,0.2
			c0.42-0.06,0.87-0.03,1.29,0.07c0.02,0,0.06,0.01,0.08,0.02c0.32,0.08,0.65,0.14,0.98,0.18c0.1,0.05,0.31,0.16,0.41,0.21
			c0.21,0.01,0.62,0.04,0.83,0.06c0.02,0,0.06,0.01,0.08,0.02c0.35,0.09,0.71,0.16,1.07,0.21c0.02,0,0.05,0.01,0.07,0.02
			c0.19,0.06,0.58,0.19,0.78,0.25l0.07,0.03l0.07,0.01c0.2,0.05,0.61,0.14,0.81,0.18c0.02,0.01,0.07,0.02,0.1,0.03
			c0.15,0.04,0.45,0.13,0.6,0.17c0.03,0.02,0.1,0.04,0.13,0.06c0.16,0.03,0.47,0.1,0.63,0.14c0.3,0.22,0.74,0.28,1.07,0.08
			c0.02-0.01,0.06-0.03,0.08-0.04l0.37-0.19c0.02-0.01,0.06-0.03,0.08-0.04c0.1-0.06,0.31-0.19,0.41-0.25
			c0.11-0.04,0.33-0.13,0.43-0.17c0.02-0.01,0.06-0.03,0.09-0.03l0.39-0.17c0.02-0.01,0.06-0.02,0.07-0.03
			c0.13-0.04,0.4-0.12,0.53-0.15l0-0.21c0.12,0.01,0.37,0.03,0.5,0.04c0.11-0.05,0.33-0.14,0.44-0.19c0.13-0.07,0.39-0.2,0.52-0.27
			c0.3-0.03,0.6-0.08,0.9-0.16c0.02,0,0.06-0.01,0.08-0.02c0.21-0.06,0.63-0.17,0.84-0.22c0.02,0,0.06-0.01,0.07-0.02
			c0.49-0.14,1.02-0.07,1.52-0.05c0.1-0.06,0.3-0.17,0.4-0.23c1.61-0.05,3.22-0.05,4.82,0c0.1,0.06,0.31,0.16,0.41,0.22
			c0.58-0.02,1.18-0.07,1.75,0.06c0.02,0,0.05,0.01,0.07,0.02c0.35,0.09,0.71,0.16,1.07,0.22c0.02,0,0.06,0.01,0.08,0.02
			c0.33,0.06,0.67,0.14,1,0.21c0.14,0.3,0.28,0.29,0.42-0.02c0.13-0.04,0.4-0.13,0.53-0.18c0.02,0,0.06-0.02,0.08-0.03
			c0.15-0.05,0.44-0.14,0.59-0.19c0.03-0.01,0.09-0.04,0.12-0.06c0.21-0.04,0.62-0.11,0.83-0.15c0.03-0.01,0.08-0.02,0.1-0.03
			c0.2-0.06,0.6-0.19,0.8-0.25c0.02,0,0.06-0.01,0.07-0.02c0.36-0.06,0.72-0.12,1.07-0.21c0.02,0,0.06-0.01,0.08-0.02
			c0.43-0.1,0.88-0.08,1.3-0.22c0.02,0,0.06-0.01,0.08-0.02c0.42-0.1,0.86-0.14,1.29-0.07
			C449.81,260.43,450.02,260.33,450.12,260.28z M450.6,263.01c-0.64,0.01-1.31-0.09-1.94,0.09c-0.02,0.01-0.06,0.02-0.08,0.02
			c-0.42,0.14-0.88,0.08-1.29,0.25c-0.02,0-0.05,0.01-0.07,0.02c-0.35,0.06-0.7,0.1-1.05,0.12c-0.03,0.03-0.1,0.08-0.14,0.11
			c-0.2,0.05-0.61,0.14-0.82,0.18c-0.02,0-0.06,0.01-0.08,0.02c-0.21,0.06-0.63,0.18-0.83,0.24c-0.02,0-0.05,0.01-0.07,0.02
			c-0.34,0-0.62,0.1-0.85,0.31c-0.39,0-0.78,0.05-1.15-0.07c-0.02,0-0.06-0.01-0.07-0.02c-0.51-0.18-1.06-0.13-1.59-0.16
			c-0.42-0.37-1.02-0.17-1.52-0.22c-0.17-0.33-0.45-0.38-0.82-0.15l-0.13,0.02h-0.08c-1.25-0.16-2.5-0.07-3.75-0.05
			c-0.34-0.24-0.55-0.17-0.61,0.19c-0.42,0.02-0.88-0.1-1.26,0.12c-0.02,0.01-0.07,0.02-0.09,0.03c-0.43,0.09-0.88,0.04-1.29,0.2
			c-0.02,0-0.05,0.01-0.07,0.02c-0.15,0.04-0.44,0.11-0.59,0.15c-0.03,0.02-0.1,0.06-0.14,0.08c-0.15,0.03-0.45,0.08-0.6,0.1
			l-0.21,0.1c-0.02,0.01-0.06,0.02-0.07,0.03c-0.35,0.14-0.71,0.26-1.05,0.42c-0.01,0.01-0.04,0.03-0.05,0.04
			c-0.19,0.2-0.42,0.36-0.67,0.47c-0.25,0.1-0.48,0.23-0.7,0.37c-0.02,0.01-0.05,0.03-0.06,0.04c-0.1,0.07-0.3,0.22-0.39,0.29
			c-0.22,0.18-0.44,0.24-0.67,0.18c-0.02-0.01-0.07-0.03-0.09-0.04c-0.42-0.16-0.85-0.3-1.28-0.42c-0.02-0.01-0.07-0.03-0.09-0.03
			c-0.71-0.32-1.48-0.36-2.2-0.66c-0.02,0-0.06-0.02-0.08-0.02c-0.2-0.05-0.61-0.14-0.82-0.18c-0.03-0.03-0.1-0.09-0.13-0.12
			c-0.13-0.01-0.39-0.02-0.53-0.03c-0.11-0.04-0.33-0.12-0.44-0.16c-0.19-0.04-0.57-0.11-0.76-0.15c-0.02,0-0.05-0.02-0.07-0.02
			c-0.42-0.19-0.89-0.08-1.32-0.2c-0.02,0-0.05-0.01-0.07-0.02c-0.33-0.12-0.67-0.17-1.02-0.13c-0.1-0.05-0.31-0.16-0.41-0.22
			c-0.62-0.04-1.25-0.03-1.87-0.01c-0.11-0.05-0.33-0.14-0.44-0.19c-1.6-0.08-3.22-0.08-4.82,0c-0.11,0.05-0.33,0.14-0.44,0.18
			c-0.57-0.02-1.14-0.05-1.7,0.1c-0.02,0-0.06,0.01-0.08,0.02c-0.21,0.06-0.62,0.18-0.83,0.23c-0.02,0.01-0.07,0.02-0.09,0.03
			c-0.22,0.02-0.65,0.07-0.86,0.09l-0.2,0.11c-0.02,0.01-0.05,0.02-0.07,0.03c-0.15,0.05-0.46,0.15-0.61,0.2
			c-0.02,0-0.06,0.02-0.08,0.02c-0.16,0.04-0.47,0.13-0.62,0.18c-0.02,0.01-0.06,0.02-0.08,0.03c-0.15,0.06-0.44,0.17-0.59,0.22
			c-0.02,0.01-0.05,0.03-0.07,0.03l-0.36,0.19c-0.03,0.01-0.08,0.03-0.11,0.05c-0.31,0.08-0.6,0.22-0.86,0.41
			c-0.01,0.01-0.05,0.03-0.06,0.04c-0.73,0.46-1.54,0.86-2.12,1.53c-0.39-0.13-0.55,0.01-0.48,0.4c-0.06,0.05-0.19,0.16-0.25,0.21
			c-0.41-0.06-0.54,0.1-0.4,0.5c-0.53,0.47-0.97,1.02-1.28,1.66c-0.01,0.01-0.03,0.05-0.04,0.06c-0.07,0.1-0.21,0.3-0.28,0.39
			c-0.12,0.32-0.27,0.62-0.46,0.9c-0.34,0.67-0.58,1.37-0.82,2.08c0,0.02-0.02,0.05-0.02,0.07c-0.06,0.2-0.17,0.6-0.22,0.8
			c-0.03,0.03-0.08,0.1-0.1,0.13c-0.03,0.32-0.05,0.64-0.05,0.96l-0.19,0.02c-0.03,0.19-0.09,0.57-0.13,0.76
			c0,0.02-0.01,0.06-0.02,0.08c-0.16,0.5-0.06,1.03-0.19,1.53c0,0.02-0.02,0.06-0.02,0.08c-0.2,0.4-0.13,0.87-0.14,1.3
			c-0.5,0.14-0.35,1.1-0.11,1.47c-0.24,1.32,0.03,2.67-0.07,4c-0.22,0.34-0.15,0.53,0.2,0.58c-0.02,0.5-0.08,1.03,0.13,1.51
			c0,0.02,0.01,0.06,0.02,0.08c0.11,0.5,0.04,1.03,0.18,1.54c0,0.02,0.01,0.06,0.02,0.08c0.1,0.36,0.07,0.77,0.31,1.08
			c0.03,0.45-0.02,0.92,0.16,1.35c0,0.02,0.01,0.06,0.02,0.08c0.03,0.19,0.1,0.58,0.13,0.78c0.05,0.1,0.14,0.3,0.18,0.4
			c0.01,0.2,0.02,0.59,0.03,0.79c0.03,0.03,0.1,0.1,0.13,0.14c0.05,0.32,0.09,0.64,0.13,0.96c0.04,0.11,0.13,0.33,0.17,0.44
			c0.01,0.13,0.02,0.4,0.03,0.53c0.03,0.03,0.09,0.1,0.13,0.14c0.04,0.35,0.11,0.7,0.2,1.04c0,0.02,0.02,0.06,0.02,0.07
			c0.02,0.15,0.06,0.44,0.08,0.58c0.06,0.09,0.18,0.27,0.24,0.36c0,0.2,0.02,0.6,0.03,0.79c0.03,0.03,0.08,0.1,0.11,0.14
			c0.05,0.2,0.14,0.61,0.19,0.81c0,0.02,0.02,0.06,0.02,0.08c0.06,0.3,0.16,0.58,0.29,0.86c0.02,0.3,0.08,0.6,0.17,0.89
			c0,0.02,0.02,0.06,0.02,0.08c0.05,0.15,0.16,0.46,0.21,0.61c0.01,0.02,0.02,0.06,0.02,0.08c0.02,0.19,0.07,0.58,0.09,0.77h0.18
			c0.04,0.19,0.11,0.58,0.15,0.77c0,0.02,0.01,0.05,0.02,0.07c0.13,0.51,0.3,1.01,0.46,1.52c0,0.02,0.01,0.06,0.02,0.07
			c0.03,0.14,0.07,0.41,0.1,0.55h0.18c-0.05,0.51,0.14,0.98,0.36,1.43c0.01,0.02,0.02,0.06,0.03,0.08c0.05,0.16,0.14,0.47,0.18,0.63
			c0.01,0.02,0.02,0.06,0.03,0.08c0.05,0.15,0.15,0.46,0.21,0.61c0.01,0.02,0.02,0.06,0.03,0.08c0.03,0.13,0.1,0.4,0.14,0.53h0.17
			c0.04,0.19,0.11,0.57,0.15,0.77c0.01,0.02,0.02,0.05,0.03,0.07l0.16,0.39c0.01,0.02,0.02,0.06,0.03,0.08
			c0.06,0.15,0.17,0.44,0.22,0.59c0.01,0.02,0.02,0.06,0.03,0.08l0.13,0.32c0.05,0.11,0.15,0.32,0.2,0.43
			c0.04,0.08,0.14,0.25,0.18,0.33c0.09,0.36,0.2,0.72,0.32,1.07l0.16,0c-0.01,0.37,0.16,0.7,0.34,1.01
			c0.01,0.02,0.03,0.05,0.03,0.07c0.26,0.64,0.67,1.22,0.84,1.9l0.19,0c0,0.11,0,0.34,0,0.46l0.18,0c0.07,0.46,0.4,0.82,0.62,1.22
			c0.01,0.01,0.03,0.04,0.04,0.06c0.63,0.97,1.16,2.03,2.01,2.83c-0.31,0.31,0.2,0.95,0.56,0.67c0.13,0.25,0.32,0.44,0.57,0.58
			c0.02,0.01,0.05,0.04,0.06,0.05c0.49,0.41,0.98,0.8,1.55,1.12c0.02,0.01,0.05,0.03,0.06,0.03c0.36,0.14,0.72,0.28,1.09,0.4
			c0.02,0,0.05,0.02,0.07,0.02c0.78,0.22,1.64,0.18,2.43,0c0.02,0,0.05-0.01,0.07-0.02c0.16-0.06,0.48-0.18,0.64-0.24
			c0.11-0.05,0.33-0.14,0.44-0.19c0.02-0.01,0.05-0.02,0.06-0.03c0.16-0.11,0.47-0.32,0.63-0.42c0.01-0.01,0.04-0.03,0.06-0.04
			c0.89-0.68,1.73-1.49,2.37-2.39c0.4,0.08,0.53-0.08,0.41-0.48c0.27-0.27,0.61-0.51,0.77-0.87c0.4,0.05,0.53-0.12,0.38-0.52
			c0.44-0.4,0.87-0.83,1.22-1.32c0.4,0.06,0.53-0.11,0.39-0.51c0.5-0.5,1.07-0.96,1.45-1.56c0.37,0.07,0.51-0.09,0.41-0.47
			c0.08-0.08,0.25-0.25,0.33-0.34c0.01-0.01,0.04-0.04,0.06-0.06c0.28-0.31,0.56-0.61,0.89-0.86l0.06,0.01l0.39,0.22
			c0.02,0.01,0.06,0.03,0.08,0.04l0.37,0.19c0.02,0.01,0.07,0.04,0.09,0.05c0.16,0.04,0.47,0.12,0.62,0.16
			c0.02,0.01,0.07,0.02,0.09,0.03c0.47,0.25,0.99,0.36,1.52,0.42c0.02,0,0.05,0.01,0.07,0.02c0.48,0.2,1,0.12,1.5,0.13
			c-0.2,0.26-0.39,0.52-0.58,0.79c-0.01,0.02-0.04,0.05-0.05,0.06c-0.55,0.64-1.11,1.28-1.79,1.79c-0.02,0.01-0.06,0.03-0.08,0.04
			c-0.36,0.13-0.71,0.27-1.05,0.42c-0.02,0.01-0.07,0.02-0.09,0.03c-0.21,0.05-0.64,0.16-0.86,0.21c-0.02,0-0.05,0.01-0.06,0.02
			c-0.21,0.06-0.63,0.17-0.84,0.22c-0.02,0-0.05,0.01-0.07,0.02c-0.61,0.06-1.19,0.25-1.77,0.43c-0.02,0-0.05,0.01-0.07,0.02
			c-0.15,0.05-0.47,0.14-0.62,0.18c-0.02,0.01-0.06,0.02-0.08,0.03c-0.11,0.04-0.33,0.11-0.44,0.15c-0.1,0.07-0.31,0.2-0.41,0.27
			c-0.02,0.01-0.05,0.03-0.06,0.04c-0.47,0.33-1,0.73-1.08,1.34c0,0.02-0.01,0.05-0.02,0.07c-0.01,0.21-0.03,0.64-0.04,0.85
			c0.01,0.02,0.02,0.06,0.03,0.08c0.05,0.15,0.15,0.45,0.2,0.6c0.01,0.02,0.02,0.05,0.03,0.07c0.3,0.43,0.66,0.83,1.13,1.08
			c0.01,0.01,0.04,0.03,0.06,0.04c0.28,0.17,0.55,0.34,0.83,0.51c0.35,0.14,0.7,0.29,1.08,0.32v0.17c0.19,0.02,0.58,0.07,0.78,0.09
			c0.02,0,0.06,0.02,0.08,0.02c0.19,0.03,0.58,0.1,0.77,0.14c0.11,0.05,0.33,0.14,0.44,0.18c1.55,0.06,3.12,0.14,4.66-0.05
			c0.02,0,0.06-0.01,0.08-0.02c0.21-0.06,0.62-0.17,0.83-0.23c0.02,0,0.06-0.02,0.09-0.02c0.3-0.03,0.58-0.11,0.84-0.25
			c0.11-0.05,0.34-0.14,0.45-0.18c0.02-0.01,0.06-0.02,0.07-0.03c0.46-0.17,0.9-0.38,1.32-0.63c0.02-0.01,0.05-0.03,0.06-0.04
			c0.1-0.07,0.3-0.21,0.4-0.28l0.22-0.14c0.02-0.01,0.05-0.03,0.07-0.04c0.14-0.1,0.41-0.31,0.55-0.41c0.12,0.04,0.37,0.11,0.5,0.15
			c-0.04,1.14-0.08,2.28,0.06,3.42c-0.24,0.37-0.38,1.32,0.11,1.48l0.01,0.34c-0.37,0.13-0.36,0.25,0.01,0.36
			c0.02,1.78-0.08,3.56,0.08,5.34c-0.28,0.35-0.23,0.56,0.15,0.64c0.01,0.55-0.09,1.13,0.08,1.67c-0.28,0.34-0.23,0.55,0.15,0.63
			c-0.03,0.5-0.06,1.01,0.12,1.49c0,0.02,0.01,0.05,0.02,0.07c0.05,0.22,0.16,0.65,0.21,0.86c0,0.02,0.01,0.05,0.01,0.06
			c0.03,0.3,0.11,0.59,0.25,0.85c0.04,0.11,0.11,0.34,0.15,0.46c0.01,0.02,0.02,0.06,0.03,0.09c0.27,0.49,0.35,1.06,0.66,1.53
			c0.01,0.02,0.03,0.06,0.04,0.08c0.04,0.11,0.11,0.32,0.15,0.43c0.07,0.1,0.22,0.29,0.29,0.39c0.01,0.01,0.03,0.04,0.04,0.06
			c0.47,0.7,1.1,1.28,1.76,1.8c0.02,0.01,0.05,0.03,0.06,0.05c0.16,0.1,0.48,0.3,0.64,0.4c0.01,0.01,0.04,0.03,0.06,0.04
			c0.27,0.17,0.55,0.32,0.84,0.46c0.02,0.01,0.05,0.02,0.06,0.03l0.39,0.19c0.02,0.01,0.06,0.02,0.07,0.03
			c0.16,0.05,0.47,0.14,0.62,0.19c0.02,0,0.06,0.02,0.07,0.03c0.14,0.03,0.41,0.08,0.55,0.11c0.11,0.05,0.33,0.13,0.44,0.18
			c1.14,0.09,2.3,0.08,3.44,0c0.11-0.05,0.33-0.14,0.44-0.18c0.19-0.01,0.57-0.02,0.76-0.03c0.03-0.03,0.1-0.09,0.14-0.12
			c0.59-0.07,1.16-0.25,1.72-0.43c0.02-0.01,0.05-0.02,0.07-0.02c0.15-0.05,0.45-0.14,0.6-0.19c0.02-0.01,0.06-0.02,0.08-0.03
			l0.32-0.13c0.11-0.05,0.33-0.14,0.44-0.18l0.3-0.11c0.02-0.01,0.06-0.03,0.08-0.03l0.4-0.18c0.02-0.01,0.05-0.03,0.07-0.04
			c0.22-0.16,0.46-0.29,0.71-0.4c0.37-0.22,0.72-0.47,1.07-0.72c0.02-0.01,0.05-0.04,0.07-0.05c0.5-0.37,0.94-0.81,1.31-1.32
			c0.01-0.02,0.04-0.05,0.05-0.06c0.2-0.3,0.45-0.56,0.63-0.88c0.01-0.02,0.03-0.05,0.03-0.06c0.13-0.29,0.27-0.58,0.42-0.86
			c0.01-0.02,0.03-0.05,0.04-0.07l0.22-0.36c0.01-0.02,0.03-0.05,0.04-0.07c0.04-0.15,0.14-0.46,0.18-0.61
			c0.01-0.02,0.02-0.07,0.03-0.09c0.16-0.43,0.31-0.86,0.41-1.3c0.01-0.02,0.02-0.05,0.02-0.07c0.03-0.2,0.09-0.6,0.12-0.8
			c0.06-0.1,0.17-0.31,0.22-0.41c0-0.19,0.01-0.55,0.01-0.74c0.05-0.1,0.16-0.31,0.21-0.41c0.05-0.49-0.04-0.99,0.12-1.46
			c0-0.02,0.02-0.06,0.02-0.08c0.11-0.33,0.14-0.68,0.11-1.03c0.05-0.1,0.16-0.31,0.22-0.41c0.06-0.56-0.06-1.15,0.12-1.69
			c0-0.02,0.02-0.06,0.02-0.08c0.14-0.4,0.13-0.83,0.1-1.25c0.05-0.1,0.15-0.3,0.2-0.4c0.01-0.47,0.05-0.95,0.03-1.42
			c0.05-0.11,0.14-0.33,0.19-0.44c0.07-0.4,0.06-0.81,0.04-1.22c0.42,0.1,0.43-0.65,0.14-0.81c0.21-0.47,0-1.01,0.17-1.5
			c0.01-0.02,0.02-0.06,0.02-0.08c0.22-0.58,0.11-1.2,0.16-1.81c0.07-0.14,0.21-0.41,0.28-0.55c0.37,0,0.74,0.01,1.11-0.01
			c0.1,0.05,0.3,0.15,0.4,0.2c1.24,0,2.5,0.15,3.73-0.06c0.16,0.3,0.94,0.3,0.83-0.14c0.43,0,0.88,0.07,1.28-0.12
			c0.02-0.01,0.06-0.02,0.07-0.02c0.36-0.07,0.71-0.14,1.07-0.21c0.01,0,0.05-0.01,0.06-0.01c0.22-0.05,0.65-0.16,0.86-0.21
			c0.02,0,0.06-0.01,0.07-0.02c0.44-0.09,0.86-0.25,1.28-0.43c0.03-0.01,0.07-0.02,0.09-0.03c0.12-0.03,0.35-0.1,0.47-0.13
			c0.29-0.22,0.62-0.41,0.99-0.45l0-0.14c0.29-0.05,0.54-0.17,0.77-0.36c0.02-0.01,0.05-0.03,0.06-0.04
			c0.16-0.11,0.47-0.31,0.63-0.42c0.02-0.01,0.05-0.03,0.06-0.04c0.16-0.11,0.47-0.32,0.63-0.42c0.02-0.01,0.05-0.03,0.06-0.04
			c0.46-0.33,0.86-0.75,1.28-1.13c0.01-0.01,0.04-0.04,0.06-0.06c0.39-0.38,0.71-0.82,1.02-1.27c0.01-0.17,0.05-0.49,0.06-0.66
			c0.43,0.08,0.39-0.92-0.02-0.8c0-0.12-0.02-0.35-0.02-0.47c-0.84-1.07-2.28-1.2-3.5-0.85c-0.02,0.01-0.06,0.02-0.08,0.02
			c-0.36,0.05-0.72,0.11-1.08,0.19c-0.02,0-0.06,0.01-0.08,0.02c-0.42,0.13-0.89,0.04-1.3,0.2c-0.02,0.01-0.06,0.02-0.08,0.02
			c-1.64,0.19-3.33,0.22-4.97,0.03c-0.02,0-0.06-0.02-0.08-0.02c-0.15-0.05-0.46-0.15-0.61-0.2c-0.02-0.01-0.06-0.02-0.07-0.03
			c-0.14-0.05-0.43-0.14-0.57-0.19c0.08-0.26,0.19-0.5,0.35-0.72c0.01-0.02,0.03-0.05,0.04-0.07c0.17-0.2,0.31-0.43,0.41-0.67
			c0.17-0.22,0.33-0.44,0.46-0.68c0.07-0.1,0.2-0.3,0.27-0.4c0.01-0.02,0.03-0.05,0.04-0.06c0.15-0.22,0.27-0.45,0.38-0.69
			c0.06-0.11,0.19-0.31,0.25-0.42c0.01-0.02,0.03-0.05,0.04-0.07l0.2-0.36c0.01-0.02,0.03-0.05,0.04-0.07
			c0.2-0.37,0.39-0.75,0.63-1.1c0.01-0.01,0.03-0.04,0.04-0.06c0.16-0.27,0.31-0.55,0.45-0.83c0.01-0.02,0.03-0.05,0.03-0.07
			c0.36-0.69,0.71-1.39,1.07-2.08c0.06-0.11,0.17-0.34,0.23-0.45c0.17-0.36,0.33-0.72,0.5-1.08c0.01-0.02,0.03-0.06,0.04-0.07
			l0.19-0.39c0.01-0.02,0.03-0.06,0.04-0.08l0.18-0.39c0.01-0.02,0.03-0.06,0.04-0.08l0.18-0.38c0.01-0.01,0.02-0.05,0.03-0.06
			c0.05-0.11,0.14-0.33,0.19-0.45c0.18-0.36,0.34-0.72,0.48-1.09c0.01-0.02,0.02-0.06,0.03-0.07c0.04-0.11,0.13-0.33,0.17-0.45
			c0.2-0.39,0.44-0.77,0.44-1.22l0.16,0c0.11-0.36,0.22-0.71,0.33-1.06c0.06-0.16,0.19-0.47,0.25-0.63
			c0.01-0.02,0.02-0.05,0.03-0.07c0.24-0.58,0.44-1.18,0.66-1.77c0-0.02,0.02-0.05,0.02-0.06c0.13-0.44,0.28-0.88,0.44-1.32
			c0-0.02,0.02-0.05,0.02-0.06c0.05-0.17,0.14-0.51,0.19-0.68c0.14-0.26,0.24-0.53,0.28-0.83c0.01-0.02,0.02-0.07,0.03-0.09
			c0.05-0.15,0.15-0.45,0.2-0.6c0.01-0.02,0.02-0.07,0.03-0.09c0.05-0.21,0.15-0.63,0.21-0.83c0.01-0.02,0.02-0.06,0.03-0.08
			c0.05-0.15,0.15-0.45,0.2-0.6c0-0.02,0.02-0.06,0.02-0.08c0.05-0.22,0.14-0.64,0.18-0.86c0-0.02,0.02-0.06,0.02-0.08
			c0.03-0.2,0.08-0.61,0.11-0.82c0.06-0.09,0.18-0.27,0.23-0.36c0.02-0.15,0.06-0.45,0.08-0.6c0-0.02,0.01-0.06,0.02-0.07
			c0.16-0.41,0.11-0.86,0.24-1.28c0-0.02,0.01-0.06,0.02-0.08c0.03-0.2,0.08-0.6,0.1-0.8c0.06-0.1,0.16-0.31,0.22-0.41
			c0.05-0.49-0.04-1,0.09-1.48c0-0.02,0.01-0.06,0.02-0.07c0.21-0.48,0.14-1.01,0.14-1.51c0.47,0.05,0.41-0.81,0.13-1.03
			c0.11-0.96,0.17-1.94,0-2.89l0-0.08l0.06-0.19c0.22-0.39,0.15-0.62-0.18-0.72c0-0.43,0.02-0.88-0.14-1.29
			c0-0.02-0.01-0.05-0.02-0.07c-0.05-0.22-0.14-0.64-0.19-0.86c0-0.02-0.01-0.06-0.02-0.08c-0.06-0.21-0.17-0.62-0.23-0.83
			c0-0.02-0.01-0.05-0.02-0.07c-0.05-0.16-0.14-0.47-0.19-0.62c-0.01-0.02-0.02-0.05-0.03-0.07l-0.19-0.37
			c-0.01-0.02-0.03-0.05-0.04-0.06c-0.17-0.32-0.44-0.58-0.66-0.87c-0.01-0.02-0.04-0.05-0.05-0.06c-0.85-1.08-1.85-2.07-2.93-2.92
			c-0.01-0.01-0.04-0.03-0.06-0.05c-0.27-0.18-0.47-0.46-0.76-0.58c0.06-0.37-0.09-0.51-0.46-0.42c-0.14-0.08-0.41-0.25-0.54-0.34
			c-0.02-0.01-0.05-0.03-0.06-0.04c-0.36-0.23-0.73-0.44-1.1-0.66c-0.02-0.01-0.05-0.03-0.06-0.03l-0.36-0.21
			c-0.02-0.01-0.05-0.03-0.07-0.04c-0.28-0.15-0.57-0.3-0.86-0.43c-0.02-0.01-0.05-0.03-0.07-0.04l-0.39-0.19
			c-0.02-0.01-0.06-0.02-0.08-0.03c-0.13-0.03-0.4-0.1-0.54-0.14l0-0.14c-0.34-0.08-0.67-0.22-1-0.36
			c-0.02-0.01-0.06-0.02-0.08-0.03c-0.17-0.04-0.51-0.11-0.69-0.15c-0.15-0.05-0.44-0.14-0.59-0.18c-0.09-0.06-0.26-0.18-0.35-0.24
			c-0.19-0.02-0.59-0.05-0.78-0.06c-0.03-0.03-0.1-0.1-0.13-0.13c-0.19-0.01-0.57-0.02-0.76-0.03c-0.11-0.05-0.33-0.14-0.44-0.18
			c-0.19-0.01-0.56-0.03-0.75-0.04c-0.09-0.06-0.26-0.19-0.35-0.25c-0.65-0.01-1.33,0.09-1.96-0.08c-0.02,0-0.06-0.02-0.08-0.02
			c-1.76-0.22-3.57-0.11-5.35-0.06C450.93,262.87,450.71,262.96,450.6,263.01z"/>
	</g>
	<path class="st0" d="M430.47,312.39c0.01,0.04,0.02,0.11,0.03,0.15C430.49,312.5,430.48,312.43,430.47,312.39z"/>
	<text transform="matrix(1 0 0 1 379.1352 373.5554)"><tspan x="0" y="0" class="st0 st7 st8">Postgre</tspan><tspan x="80.91" y="0" class="st0 st7 st9">SQL</tspan></text>
	<g>
		<path class="st0" d="M709.79,312.71c0,10.25-0.01,20.51,0.01,30.76c0,2.35-0.34,4.63-1.35,6.76c-2.35,4.98-6.25,8-11.66,9.04
			c-0.64,0.12-1.3,0.14-1.95,0.18c-0.33,0.02-0.66,0.01-0.98,0.01c-20.54,0-41.08-0.01-61.61,0.01c-2.38,0-4.67-0.36-6.82-1.38
			c-5.06-2.4-8.07-6.39-9.02-11.91c-0.14-0.8-0.17-1.63-0.17-2.45c-0.01-20.7,0-41.39-0.01-62.09c-0.01-7.51,5.11-13.5,11.59-15.2
			c1.2-0.32,2.42-0.51,3.67-0.51c3.02,0,6.04,0,9.06,0c17.8,0,35.6,0.01,53.39-0.01c2.6,0,5.08,0.49,7.37,1.71
			c4.68,2.51,7.5,6.38,8.32,11.65c0.15,0.94,0.16,1.91,0.16,2.87C709.8,292.34,709.79,302.52,709.79,312.71z M641.64,286.2
			c0,18.28,0,36.45,0,54.69c0.35,0.02,0.64,0.04,0.94,0.04c7.94,0,15.88,0.01,23.81,0c2.22,0,4.44-0.12,6.64-0.53
			c2.79-0.51,5.43-1.41,7.82-2.95c2.82-1.81,4.68-4.33,5.52-7.59c0.86-3.35,0.75-6.68-0.3-9.96c-1.35-4.22-4.17-6.95-8.45-8.15
			c-0.28-0.08-0.56-0.16-0.95-0.27c0.54-0.28,0.98-0.49,1.4-0.72c3.19-1.78,5.35-4.36,6.11-7.98c0.58-2.78,0.4-5.54-0.53-8.23
			c-0.71-2.07-1.98-3.75-3.74-5.06c-1.21-0.9-2.54-1.58-3.95-2.09c-2.59-0.93-5.28-1.21-8.01-1.22c-8.5-0.01-17-0.01-25.5,0
			C642.19,286.16,641.94,286.18,641.64,286.2z"/>
		<path class="st0" d="M651.35,316.04c0.28,0,0.53,0,0.79,0c5.2,0,10.4,0,15.6,0c1.53,0,3.04,0.08,4.49,0.62
			c2.95,1.09,4.55,3.23,4.93,6.32c0.17,1.37,0.12,2.72-0.21,4.04c-0.81,3.22-2.95,5.07-6.15,5.71c-0.93,0.19-1.9,0.26-2.86,0.27
			c-5.29,0.02-10.59,0.01-15.88,0.01c-0.23,0-0.46,0-0.67,0C651.21,332.47,651.17,316.93,651.35,316.04z"/>
		<path class="st0" d="M651.36,308.99c-0.15-0.58-0.16-14.24-0.01-14.9c0.19-0.01,0.39-0.03,0.6-0.03c4.98,0,9.97-0.01,14.95,0
			c1.24,0,2.47,0.15,3.66,0.53c2.15,0.68,3.5,2.07,3.97,4.3c0.32,1.53,0.39,3.07,0.07,4.6c-0.59,2.81-2.44,4.44-5.11,5.22
			c-0.71,0.21-1.47,0.31-2.21,0.31c-5.15,0.03-10.3,0.02-15.45,0.02C651.67,309.03,651.51,309,651.36,308.99z"/>
	</g>
	<text transform="matrix(1 0 0 1 622.9421 380.3629)" class="st0 st10 st11">Bootstrap</text>
</g>
<g id="Capa_2" class="st12">
	<g class="st13">
		<rect x="61.47" y="77.12" class="st6" width="133.18" height="150.59"/>
		<rect x="214.06" y="77.12" class="st6" width="133.18" height="150.59"/>
	</g>
</g>
</svg>
