<svg id="Capa_1" data-name="Capa 1" xmlns="http://www.w3.org/2000/svg" viewBox="0 0 514.02 175.97"><defs><style>.cls-1{fill:#6ad380;}.cls-2{fill:#fff;opacity:0.22;}.cls-3{fill:none;}</style></defs><title>Fer Logo DEVEL comillas oscuras</title><path class="cls-1" d="M137.66,14.23c0-3.88.42-5.11,1.27-6a4.48,4.48,0,0,1,3-1.43H247.86a4.84,4.84,0,0,1,3.81,1.43,5.63,5.63,0,0,1,1.27,3.88V41.8a5.64,5.64,0,0,1-1.32,3.58,4.61,4.61,0,0,1-3.88,1.72H180.48V77.54h49.68a5.42,5.42,0,0,1,3.53,1.16,4.48,4.48,0,0,1,1.45,3.71v28a5.93,5.93,0,0,1-1.28,3.59,4.08,4.08,0,0,1-3.49,1.72H180.48v50.64c0,3.18-1.7,4.76-5.09,4.76H141.65c-2.66-.37-4-1.94-4-2.31Z"/><path class="cls-1" d="M404.23,166.12l-58-149.81L343.42,10a11.72,11.72,0,0,0-1.85-2.07,5,5,0,0,0-3.35-1.14H309.86a5,5,0,0,0-1.88.39c-2.51,1-3.66,2.78-4.58,5.14l-.79,2.06L300,21.18,296.19,31l-4.75,12.27L286,57.41l-5.92,15.34-6.16,16-6.18,16L261.8,120l-5.47,14.16-4.75,12.32-3.88,9.9-2.65,6.87-1.24,3.21-.07.18c-.59,1.47-.43,2.58.5,3.31a5.46,5.46,0,0,0,3.48,1.11h32.65A5.54,5.54,0,0,0,286,167c1.08-2.91,2.19-5.81,3.28-8.72,0,0,17.64-49.28,17.63-49.28q2.1-5.64,4.25-12.12t4.27-13.11q2.1-6.65,4.26-13.16T324,58.45l16.71,49.75,17.95,50.14h-.09c1.09,2.9,2.19,5.81,3.34,8.72a6.06,6.06,0,0,0,2.15,3.15,6.93,6.93,0,0,0,3.93,1H399.7c1.93,0,3.39-.45,4.2-1.37A3.27,3.27,0,0,0,404.23,166.12Z"/><path class="cls-2" d="M413.18,137.16l90.09-34.87,3.8-1.66a8.72,8.72,0,0,0,1.23-1.2,2.83,2.83,0,0,0,.7-1.94V80.43a3.35,3.35,0,0,0-.23-1.13,5.44,5.44,0,0,0-.63-1.13,5.35,5.35,0,0,0-.88-.9,1.76,1.76,0,0,0-.86-.43L412.9,40.72a1.6,1.6,0,0,0-2,.3,3.23,3.23,0,0,0-.66,2.1V62.74a3.33,3.33,0,0,0,2.46,3.39c1.75.65,3.49,1.32,5.23,1.94h0l29.62,10.6h0q3.39,1.26,7.28,2.57c2.58.87,5.22,1.71,7.88,2.55s5.3,1.7,7.92,2.56,5.05,1.72,7.31,2.56l-29.87,10h0l-30.19,10.82v-.06c-1.73.66-3.48,1.32-5.23,2a3.7,3.7,0,0,0-1.94,1.3,4.19,4.19,0,0,0-.57,2.37v19.08A3.27,3.27,0,0,0,411,137,2,2,0,0,0,413.18,137.16Z"/><path class="cls-2" d="M106.77,137.16,16.68,102.29,13,100.58a8.72,8.72,0,0,1-1.23-1.2,2.81,2.81,0,0,1-.7-1.94v-17a3.35,3.35,0,0,1,.23-1.13,5.44,5.44,0,0,1,.63-1.13,5.35,5.35,0,0,1,.88-.9,1.76,1.76,0,0,1,.86-.43l93.5-36.12a1.6,1.6,0,0,1,2,.3,3.23,3.23,0,0,1,.66,2.1V62.74a3.33,3.33,0,0,1-2.46,3.39c-1.75.65-3.49,1.32-5.23,1.94h0L72.47,78.67h0q-3.39,1.26-7.28,2.57c-2.58.87-5.22,1.71-7.88,2.55s-5.3,1.7-7.92,2.56-5,1.72-7.31,2.56L72,98.92h0l30.12,10.82v-.06c1.74.66,3.48,1.32,5.23,2a3.7,3.7,0,0,1,1.94,1.3,4.19,4.19,0,0,1,.57,2.37v19.08A3.27,3.27,0,0,1,109,137,2,2,0,0,1,106.77,137.16Z"/><rect class="cls-3" x="0.12" y="-0.24" width="514.35" height="176.47"/></svg>