<svg xmlns="http://www.w3.org/2000/svg" viewBox="0 0 114.29 149.56"><defs><style>.cls-1{opacity:0.78;}.cls-2{fill:#6c9;}.cls-3{isolation:isolate;}</style></defs><title>Recurso 2</title><g id="Capa_2" data-name="Capa 2"><g id="Capa_1-2" data-name="Capa 1"><g class="cls-1"><path class="cls-2" d="M56.38,0h.17c-.24,4.68-.11,9.38-.07,14.07C44.86,40.19,33,66.22,21.36,92.34c4.38-.11,8.75-.32,13.13-.29Q38,83.17,41.6,74.32c5,0,9.92,0,14.88,0-.15,13.62,0,27.24,0,40.86a46.93,46.93,0,0,0,.14,5.93h-.15Q32.59,107.84,8.72,94.64C5.79,69.8,3.05,44.93,0,20.1,18.81,13.41,37.61,6.76,56.38,0Z"/><path class="cls-2" d="M46.23,64.07c3.41-8,6.64-16,10.09-23.95.3,8,0,16,.17,23.95Z"/></g><path class="cls-2" d="M56.56,0h.21c19.1,6.79,38.42,13,57.52,19.81-3.12,24.81-6.29,49.6-9.3,74.42Q81,107.6,57,120.79l-.15.32h-.24a47,47,0,0,1-.14-5.93c0-13.62-.09-27.24,0-40.86,5.52,0,11-.11,16.56.08,2.45,6,5,11.88,7.67,17.75,4.16.13,8.31.2,12.47.28Q74.86,53.22,56.48,14.05C56.45,9.38,56.32,4.69,56.56,0Z"/><path class="cls-2" d="M56.51,39.42l.38.37Q62.59,52,68.51,64.06c-4,0-8,0-12,0-.18-8,.12-16-.17-23.95Z"/><g class="cls-3"><path class="cls-2" d="M16.51,149.28H14.3l-1.14-2.54H6.61l-1.14,2.54H3.26l6.63-15.55Zm-6.63-4.19H12.4q-.63-1.46-1.26-3.12c-.41-1.11-.83-2.16-1.24-3.13-.43,1-.85,2-1.27,3.13s-.85,2.15-1.26,3.12Z"/><path class="cls-2" d="M28,144.3V133.85h2.06v15.71L20,138.84v10.48H18v-15.6Z"/><path class="cls-2" d="M38.89,133.77h.46a7.27,7.27,0,0,1,1.57.16,8,8,0,0,1,1.46.45,8.94,8.94,0,0,1,1.35.74c.19.13.42.3.68.51l-1.47,1.48a5.69,5.69,0,0,0-1.38-.83,5.61,5.61,0,0,0-2.18-.43,5.53,5.53,0,0,0-2.2.43,5.89,5.89,0,0,0-1.86,1.26,6,6,0,0,0-1.25,1.86,5.84,5.84,0,0,0-.42,2.19,5.78,5.78,0,0,0,.42,2.2,5.86,5.86,0,0,0,1.25,1.86,5.68,5.68,0,0,0,1.86,1.26,5.78,5.78,0,0,0,2.2.42,5.94,5.94,0,0,0,1.77-.27,5.5,5.5,0,0,0,1.56-.8,6,6,0,0,0,1.06-1,6,6,0,0,0,.78-1.21l.43-.92H39.84V141.2h7.31a8.85,8.85,0,0,1-.45,3,7.35,7.35,0,0,1-1.82,2.89,8.16,8.16,0,0,1-2.54,1.72,7.73,7.73,0,0,1-8.52-1.72,7.44,7.44,0,0,1-1.72-2.53,7.78,7.78,0,0,1,1.72-8.55,7.62,7.62,0,0,1,2.53-1.73,7.75,7.75,0,0,1,2.53-.57Z"/><path class="cls-2" d="M60.81,133.88v9.47A5.83,5.83,0,0,1,59,147.66h0a6.06,6.06,0,0,1-2,1.33,5.94,5.94,0,0,1-2.33.45,6.2,6.2,0,0,1-2.36-.44,5.82,5.82,0,0,1-2-1.35,5.9,5.9,0,0,1-1.34-2,6.17,6.17,0,0,1-.44-2.34v-9.47h2.09v9.46a4,4,0,0,0,.3,1.53,3.91,3.91,0,0,0,.88,1.29,3.61,3.61,0,0,0,1.3.88,3.88,3.88,0,0,0,1.54.31,4,4,0,0,0,1.52-.31,3.85,3.85,0,0,0,1.29-.88,3.94,3.94,0,0,0,.9-1.29,4,4,0,0,0,.31-1.53v-9.46Z"/><path class="cls-2" d="M64.94,133.88v13.37h6.71v2H62.88v-15.4Z"/><path class="cls-2" d="M85.72,149.28H83.51l-1.14-2.54H75.83l-1.14,2.54H72.48l6.62-15.55Zm-6.62-4.19h2.52Q81,143.64,80.36,142c-.42-1.11-.83-2.16-1.25-3.13-.42,1-.84,2-1.27,3.13s-.84,2.15-1.26,3.12Z"/><path class="cls-2" d="M87.17,133.88H92a5.9,5.9,0,0,1,2.18.4A5.26,5.26,0,0,1,97,136.91a4.54,4.54,0,0,1,.33,1.81v.44a4.36,4.36,0,0,1-.24,1.47,5.64,5.64,0,0,1-.71,1.34,3.62,3.62,0,0,1-.76.82,4.23,4.23,0,0,1-1,.49l-.72.29.42.67,3.26,5H95.05l-3.51-5.4H89.26v5.4H87.18Zm5.12,7.94h0a2.93,2.93,0,0,0,1.11-.2,3.26,3.26,0,0,0,.88-.66,2.77,2.77,0,0,0,.66-1,2.85,2.85,0,0,0,.2-1.15,2.9,2.9,0,0,0-.2-1.12,3.23,3.23,0,0,0-.65-.93h0a2.83,2.83,0,0,0-1.12-.65,4.53,4.53,0,0,0-1.41-.21H89.25v5.9h3Z"/></g></g></g></svg>