<svg xmlns="http://www.w3.org/2000/svg" viewBox="0 0 93.57 118.1"><defs><style>.cls-1{fill:#6c9;}</style></defs><title>Recurso 7</title><g id="Capa_2" data-name="Capa 2"><g id="Capa_1-2" data-name="Capa 1"><path class="cls-1" d="M93.56,46.79q0,15.38,0,30.76a15.62,15.62,0,0,1-13,15.8,15.88,15.88,0,0,1-2,.18c-.33,0-.66,0-1,0q-30.81,0-61.61,0A15.63,15.63,0,0,1,9.2,92.17a15.39,15.39,0,0,1-9-11.91A14.28,14.28,0,0,1,0,77.81Q0,46.76,0,15.72A15.65,15.65,0,0,1,11.59.52,14.19,14.19,0,0,1,15.26,0h9.06Q51,0,77.71,0A15.58,15.58,0,0,1,93.4,13.36a18.28,18.28,0,0,1,.16,2.87Q93.57,31.52,93.56,46.79ZM25.41,20.28V75c.35,0,.64,0,.94,0H50.16a36.12,36.12,0,0,0,6.64-.53,21.28,21.28,0,0,0,7.82-3,12.42,12.42,0,0,0,5.52-7.59,17.68,17.68,0,0,0-.3-10,11.71,11.71,0,0,0-8.45-8.15l-1-.27c.54-.28,1-.49,1.4-.72a11.62,11.62,0,0,0,6.11-8,15.27,15.27,0,0,0-.53-8.23,10.42,10.42,0,0,0-3.74-5.06,15.27,15.27,0,0,0-4-2.09,23.69,23.69,0,0,0-8-1.22q-12.75,0-25.5,0A5.61,5.61,0,0,0,25.41,20.28Z"/><path class="cls-1" d="M35.12,50.12H51.51a12.65,12.65,0,0,1,4.49.62,7.19,7.19,0,0,1,4.93,6.32,11,11,0,0,1-.21,4,7.33,7.33,0,0,1-6.15,5.71,15.15,15.15,0,0,1-2.86.27c-5.29,0-10.59,0-15.88,0h-.67C35,66.55,34.94,51,35.12,50.12Z"/><path class="cls-1" d="M35.13,43.07c-.15-.58-.16-14.24,0-14.9.19,0,.39,0,.6,0,5,0,10,0,15,0a12,12,0,0,1,3.66.53,5.42,5.42,0,0,1,4,4.3,11.14,11.14,0,0,1,.07,4.6,6.66,6.66,0,0,1-5.11,5.22,7.87,7.87,0,0,1-2.21.31c-5.15,0-10.3,0-15.45,0Z"/><path class="cls-1" d="M8,114.44V103.31h4a5,5,0,0,1,2.86.68,2.21,2.21,0,0,1,1,1.93,2.29,2.29,0,0,1-.61,1.57,3.19,3.19,0,0,1-1.56.94v0a3.1,3.1,0,0,1,1.9.88,2.48,2.48,0,0,1,.71,1.78,3,3,0,0,1-1.1,2.43,4.61,4.61,0,0,1-3,.89Zm2.5-9.28v2.64H11.6a1.85,1.85,0,0,0,1.22-.38,1.28,1.28,0,0,0,.45-1c0-.82-.62-1.22-1.84-1.22Zm0,4.5v2.93h1.36a2.11,2.11,0,0,0,1.37-.4,1.38,1.38,0,0,0,.49-1.1,1.24,1.24,0,0,0-.49-1,2.15,2.15,0,0,0-1.35-.38Z"/><path class="cls-1" d="M21.73,114.64a4.3,4.3,0,0,1-3.13-1.12,4.62,4.62,0,0,1,0-6.11,4.46,4.46,0,0,1,3.19-1.11,4.22,4.22,0,0,1,3.1,1.11,3.93,3.93,0,0,1,1.13,3,4.23,4.23,0,0,1-1.16,3.13A4.34,4.34,0,0,1,21.73,114.64Zm.06-6.46a1.65,1.65,0,0,0-1.35.59,2.67,2.67,0,0,0-.48,1.7c0,1.52.62,2.29,1.85,2.29s1.76-.79,1.76-2.36S23,108.18,21.79,108.18Z"/><path class="cls-1" d="M31.45,114.64a4.29,4.29,0,0,1-3.12-1.12,4.6,4.6,0,0,1,0-6.11,4.47,4.47,0,0,1,3.19-1.11,4.24,4.24,0,0,1,3.11,1.11,4,4,0,0,1,1.12,3,4.19,4.19,0,0,1-1.16,3.13A4.34,4.34,0,0,1,31.45,114.64Zm.07-6.46a1.67,1.67,0,0,0-1.36.59,2.67,2.67,0,0,0-.48,1.7c0,1.52.62,2.29,1.85,2.29s1.76-.79,1.76-2.36S32.7,108.18,31.52,108.18Z"/><path class="cls-1" d="M42.19,114.35a3.64,3.64,0,0,1-1.64.29c-1.73,0-2.59-.9-2.59-2.7V108.3H36.67v-1.81H38v-1.72l2.45-.69v2.41h1.78v1.81H40.41v3.21c0,.83.32,1.25,1,1.25a1.66,1.66,0,0,0,.8-.23Z"/><path class="cls-1" d="M43.05,114.23v-2a5.56,5.56,0,0,0,1.21.54,4,4,0,0,0,1.14.18,2.44,2.44,0,0,0,1-.18.58.58,0,0,0,.38-.54.48.48,0,0,0-.18-.39,1.32,1.32,0,0,0-.43-.27,4.53,4.53,0,0,0-.59-.21l-.61-.21a5.51,5.51,0,0,1-.84-.39,2.44,2.44,0,0,1-.6-.48,1.83,1.83,0,0,1-.38-.63,2.6,2.6,0,0,1-.13-.84,2.12,2.12,0,0,1,.3-1.15,2.33,2.33,0,0,1,.77-.79,3.92,3.92,0,0,1,1.11-.45,5.57,5.57,0,0,1,1.3-.14,6.43,6.43,0,0,1,1.07.08,6.73,6.73,0,0,1,1.08.24v1.89a4,4,0,0,0-1-.41,4.25,4.25,0,0,0-1-.13,2.15,2.15,0,0,0-.45,0,1.89,1.89,0,0,0-.38.12.75.75,0,0,0-.25.21.46.46,0,0,0-.1.29.57.57,0,0,0,.14.38,1.29,1.29,0,0,0,.37.26,3.26,3.26,0,0,0,.5.21l.55.18a7.28,7.28,0,0,1,.88.37,2.67,2.67,0,0,1,.68.48,1.84,1.84,0,0,1,.44.63,2.33,2.33,0,0,1,.15.87,2.22,2.22,0,0,1-.31,1.21A2.54,2.54,0,0,1,48,114a3.77,3.77,0,0,1-1.18.45,6.21,6.21,0,0,1-1.38.15A7.12,7.12,0,0,1,43.05,114.23Z"/><path class="cls-1" d="M55.38,114.35a3.64,3.64,0,0,1-1.64.29c-1.73,0-2.59-.9-2.59-2.7V108.3H49.86v-1.81h1.29v-1.72l2.44-.69v2.41h1.79v1.81H53.59v3.21c0,.83.33,1.25,1,1.25a1.69,1.69,0,0,0,.8-.23Z"/><path class="cls-1" d="M62,108.7a2.16,2.16,0,0,0-1-.24,1.5,1.5,0,0,0-1.25.59,2.56,2.56,0,0,0-.45,1.6v3.79H56.76v-8h2.45V108h0a2.13,2.13,0,0,1,2.1-1.62,1.67,1.67,0,0,1,.61.09Z"/><path class="cls-1" d="M69.71,114.44H67.38V113.3h0A2.59,2.59,0,0,1,65,114.64a2.48,2.48,0,0,1-1.82-.66,2.36,2.36,0,0,1-.66-1.75c0-1.54.91-2.43,2.74-2.67l2.16-.29c0-.87-.47-1.3-1.41-1.3a4.88,4.88,0,0,0-2.71.84V107a6.28,6.28,0,0,1,1.41-.46,7,7,0,0,1,1.61-.2q3.4,0,3.41,3.39Zm-2.31-3.23v-.53l-1.45.18c-.79.11-1.19.47-1.19,1.08a.91.91,0,0,0,.29.69,1.11,1.11,0,0,0,.79.27,1.44,1.44,0,0,0,1.12-.48A1.73,1.73,0,0,0,67.4,111.21Z"/><path class="cls-1" d="M74.13,113.52h0v4.58H71.65V106.49H74.1v1.2h0a2.89,2.89,0,0,1,2.56-1.39,2.85,2.85,0,0,1,2.38,1.06,4.43,4.43,0,0,1,.85,2.88,4.9,4.9,0,0,1-1,3.19,3.2,3.2,0,0,1-2.62,1.21A2.48,2.48,0,0,1,74.13,113.52Zm-.07-3.26v.63a2,2,0,0,0,.44,1.35,1.43,1.43,0,0,0,1.14.52,1.51,1.51,0,0,0,1.3-.65,3.13,3.13,0,0,0,.46-1.84c0-1.39-.54-2.09-1.63-2.09a1.54,1.54,0,0,0-1.23.57A2.26,2.26,0,0,0,74.06,110.26Z"/></g></g></svg>