<svg xmlns="http://www.w3.org/2000/svg" viewBox="0 0 133 157.07"><defs><style>.cls-1,.cls-2{fill:#6c9;}.cls-2{opacity:0.78;}.cls-2,.cls-3{isolation:isolate;}.cls-3{fill:#fff;opacity:0.44;}</style></defs><title>Recurso 1</title><g id="Capa_2" data-name="Capa 2"><g id="Capa_1-2" data-name="Capa 1"><path class="cls-1" d="M51.18.69a167.38,167.38,0,0,1,29.95,0c9.05.93,18.13,2.68,26.47,6.42a33.49,33.49,0,0,1,8.13,5c1.6,1.7,2.38,4,3.15,6.13,2.36,7.41,2.86,15.26,2.9,23-.19,13.59-2.66,27.44-9.15,39.51A96.36,96.36,0,0,1,81.36,113.9a89.4,89.4,0,0,1-15,8,98.62,98.62,0,0,1-34.68-25A91.17,91.17,0,0,1,19.8,80.1c-5-9.49-7.46-20.13-8.48-30.76-.62-9.77-.56-19.74,2-29.26.81-2.74,1.68-5.6,3.52-7.85a27.92,27.92,0,0,1,6.6-4.34C32,3.62,41.64,1.7,51.18.69Zm-24,15.09c-1.75,1-4,1.78-4.6,3.89-2.21,6.34-2.71,13.12-3,19.79.13,12.67,2.14,25.65,8.13,37,8.72,15.63,22.6,28.16,38.63,36A91.37,91.37,0,0,0,99,85.6,65.11,65.11,0,0,0,107.56,71c4-10,5.49-20.8,5.58-31.49a74,74,0,0,0-2.4-18.2c-.45-1.48-.95-3.14-2.4-3.94a51.67,51.67,0,0,0-15.53-6c-11.14-2.58-22.65-2.83-34-2.47C48,9.51,36.93,11,27.13,15.78Z"/><path class="cls-2" d="M67.16,51.58c0-2.89,0-5.79,0-8.68,0-2.61-.16-5.21-.27-7.81-.24-6.28.13-12.59-.54-18.85,0-.22-.05-.66-.07-.88a13.53,13.53,0,0,1-1.72,3.39c-1.26,1.48-3,2.46-4.14,4.07a16.57,16.57,0,0,0-3,3.34,35.4,35.4,0,0,0-5.2,8.21,41.77,41.77,0,0,0-4.57,13.07,42.66,42.66,0,0,0,2.48,28.1A45.26,45.26,0,0,0,62.21,91.3a15,15,0,0,0,2.7,2.32A94.11,94.11,0,0,0,66.6,84q.29-4.79.56-9.56c0-.94.11-1.88.18-2.81C67,65,67.47,58.27,67.16,51.58Z"/><path class="cls-1" d="M86.28,55.07c-.32-5.32-2-10.43-4-15.35a51.9,51.9,0,0,0-8.08-13.16C72.89,25,71.39,23.48,70,21.94a26.54,26.54,0,0,1-3.58-5.7c.67,6.26.3,12.56.54,18.85.11,2.6.27,5.21.27,7.81,0,2.89,0,5.79,0,8.68.32,6.69-.16,13.39.19,20.08l-.18,2.81c-.19,3.19-.38,6.37-.56,9.56a34.21,34.21,0,0,0,1.25,6.65c.56.75,1.18,1.45,1.8,2.15A41.84,41.84,0,0,0,86.26,63.6,80.9,80.9,0,0,0,86.28,55.07Z"/><path class="cls-3" d="M69.65,92.83c-.62-.7-1.24-1.4-1.8-2.15A35,35,0,0,1,66.6,84a94.11,94.11,0,0,1-1.69,9.58,5.57,5.57,0,0,0,.47,2,65.07,65.07,0,0,1,.77,7.88l0,.35,2.39.56c0-1,0-1.94-.12-2.9C68.52,98.61,68,95.44,69.65,92.83Z"/><path class="cls-1" d="M93,128.46c2.36,0,4.71.08,7.07,0,2.58,0,5.26-.29,7.71.67a9,9,0,0,1,5.64,6.57c.84,3.81-.15,8.26-3.34,10.73-2.66,2.22-6.24,2.76-9.59,2.68-2.58-.08-5.18,0-7.74-.31.62-1,1.75-1.31,2.74-1.81.58-3.34.16-6.78.29-10.16-.13-2.11.32-4.32-.31-6.36a9.83,9.83,0,0,0-3-.8C92.67,129.26,92.84,128.86,93,128.46Zm6.09,1.68c-.15,4.05,0,8.11-.08,12.16a19.5,19.5,0,0,0,.16,3.5,2.2,2.2,0,0,0,1.82,1.45,7.2,7.2,0,0,0,6.49-1.33,8.32,8.32,0,0,0,2.68-5.69c.31-2.76-.24-5.82-2.26-7.85C105.68,130,102.13,129.56,99.09,130.14Z"/><path class="cls-1" d="M116.12,128.44c2.95.13,5.9,0,8.85,0a8,8,0,0,1,4.75,1.08,4.36,4.36,0,0,1,1.41,5.42,6.63,6.63,0,0,1-2.5,2.4c1.69.65,3.57,1.54,4.17,3.4.39,1.81.3,4-1.05,5.38-2.1,2.37-5.44,3-8.48,3-2.55,0-5.09-.2-7.63-.16.07-.28.2-.85.27-1.13.85-.23,1.69-.46,2.54-.71a83.07,83.07,0,0,0,.25-9.47,52.19,52.19,0,0,0-.2-7.4c-1-.25-1.91-.44-2.88-.63Zm5.82,1.58c-.11,2.37-.11,4.75-.09,7.13,1.59-.05,3.27.25,4.81-.3,1.93-1,2-3.89.79-5.46S123.81,130,121.94,130Zm-.08,8.62c0,2.21-.09,4.42,0,6.63a2,2,0,0,0,1.46,2c1.74.39,3.84.34,5.18-1,1.66-1.81,1.52-5.16-.6-6.57C126.15,138.49,123.89,138.68,121.86,138.64Z"/><path class="cls-1" d="M0,136.64c1.76-.54,3.57-.91,5.32-1.46v2.12c1.54-.92,3.09-2.15,5-2.12,1.46,0,2.47,1.15,3.37,2.12,1.7-1.12,3.61-2.52,5.77-2a4.38,4.38,0,0,1,3.15,4.08c.24,2.59,0,5.21.12,7.81.69.21,1.38.41,2.08.6l.2,1c-2.41,0-4.82.09-7.23-.08.72-.64,1.4-1.31,2.13-1.94a47.87,47.87,0,0,0,0-6.56,2.88,2.88,0,0,0-2.13-2.83c-1.38-.35-2.68.36-3.86,1,.19,2.84,0,5.69.14,8.53A6.34,6.34,0,0,0,16.14,148c0,.22,0,.67-.05.9-2.3,0-4.6,0-6.9,0,0-.22,0-.66,0-.88a10.9,10.9,0,0,0,2-.94,34.61,34.61,0,0,0,.21-5.19c0-1.42,0-3.11-1.19-4.12-1.49-1.1-3.79-.45-4.9.89a82.91,82.91,0,0,0,0,8.49c.86.38,1.92.64,2.28,1.64-2.5.11-5,.12-7.5,0a4.64,4.64,0,0,1,2.4-1.66,78.23,78.23,0,0,0,.11-8.93C1.77,137.64.87,137.16,0,136.64Z"/><path class="cls-1" d="M32.41,135.44a6.62,6.62,0,0,1,7.31,2.3,8,8,0,0,1,.61,7.22c-1.59,4-7.31,5.53-10.71,2.9-2.32-1.82-2.86-5.13-2.2-7.86A6.82,6.82,0,0,1,32.41,135.44ZM32,136.92c-1.47.77-1.89,2.58-1.91,4.11,0,2.11.53,4.47,2.24,5.86,1.4,1.16,3.89,1.19,4.92-.47a8.56,8.56,0,0,0,.2-6.77C36.7,137.49,34.14,135.81,32,136.92Z"/><path class="cls-1" d="M42.68,136.77a50.79,50.79,0,0,1,5.6-1.66c0,.7,0,1.41,0,2.11,1.48-1.05,3.09-2.29,5-2.16a4.11,4.11,0,0,1,3.58,3.19c.66,2.79.06,5.69.42,8.51.35.73,1.45.7,2.12,1.06,0,.29-.08.86-.11,1.15-2.3-.11-4.6-.09-6.9,0l-.08-1.1c.66-.39,2-.37,2-1.37a42.09,42.09,0,0,0-.16-7.1c-.58-2.57-4.35-2.63-5.73-.75a70.06,70.06,0,0,0,0,8.45c.91.38,2.23.53,2.17,1.8-2.42,0-4.84,0-7.26,0v-1c.66-.35,1.52-.44,2-1a78.35,78.35,0,0,0,.1-8.67C44.48,137.73,43.56,137.28,42.68,136.77Z"/><path class="cls-1" d="M62.89,136.71a7.3,7.3,0,0,1,7.11-1,6.54,6.54,0,0,0,4.71,0c-.19.59-.35,1.2-.59,1.78-.57.51-1.43.37-2.14.51.15,1.72.2,3.72-1.15,5-1.39,1.58-3.56,1.91-5.53,2.19-.06.45-.11.91-.16,1.37,2.16.6,4.44.41,6.62.92A3.24,3.24,0,0,1,74.22,150a5.17,5.17,0,0,1-1.58,4.49,8.87,8.87,0,0,1-6.7,2.57A5.58,5.58,0,0,1,61.33,155a2.85,2.85,0,0,1-.35-3.19,13.3,13.3,0,0,1,2.88-2.51A11.88,11.88,0,0,1,61.7,147c.86-.65,1.76-1.26,2.64-1.88a7.79,7.79,0,0,1-2.5-2A5,5,0,0,1,62.89,136.71Zm2.78-.17c-3.23,1.2-2,7.36,1.52,7.11,2.19-.2,2.58-2.93,2.15-4.65A3,3,0,0,0,65.67,136.54Zm-.44,13.07c-1.41.54-2.66,2.2-1.86,3.7,1.27,2.29,4.51,2.46,6.71,1.58,1.77-.67,2.61-3.4.89-4.58A9,9,0,0,0,65.23,149.61Z"/><path class="cls-1" d="M81.3,135.44a6.65,6.65,0,0,1,7.32,2.3,8,8,0,0,1,.62,7.23c-1.63,4.11-7.61,5.6-10.95,2.71-2.28-2-2.71-5.52-1.75-8.29A6.86,6.86,0,0,1,81.3,135.44Zm-.45,1.48c-1.61.86-2,2.89-1.91,4.55.08,2.15.75,4.61,2.74,5.75,1.58,1,4.06.53,4.71-1.36a8.93,8.93,0,0,0-.51-7.07A3.94,3.94,0,0,0,80.85,136.92Z"/></g></g></svg>