<svg xmlns="http://www.w3.org/2000/svg" viewBox="0 0 149.11 91.12"><defs><style>.cls-1{fill:#6c9;}</style></defs><title>Recurso 3</title><g id="Capa_2" data-name="Capa 2"><g id="Capa_1-2" data-name="Capa 1"><path class="cls-1" d="M99.89.08a1,1,0,0,1,.79,0c2.82,1.53,5.62,3.12,8.43,4.67a1.74,1.74,0,0,1,1,1.51c0,13.66,0,27.31,0,41a1.77,1.77,0,0,1-1,1.7q-6.9,4-13.81,8a1.9,1.9,0,0,1-2,.2c-4.79-2.79-9.61-5.52-14.4-8.3A1.91,1.91,0,0,1,78,47c0-2.21.07-4.43,0-6.64-.06-3.14.08-6.28,0-9.41a1.77,1.77,0,0,1,.84-1.57c4.67-2.65,9.29-5.37,14-8a1.93,1.93,0,0,1,2-.3c1.28.66,2.47,1.49,3.76,2.13a.55.55,0,0,0,.82-.53c.08-2.82,0-5.65,0-8.48.07-4.49-.06-9,0-13.47A.79.79,0,0,1,99.89.08ZM93.83,33.14c-1.55.9-3.1,1.81-4.66,2.69-.19.12-.49.23-.44.51,0,1.85,0,3.7,0,5.55,0,.27.21.4.4.53,1.4.82,2.83,1.6,4.22,2.45.27.11.56.44.86.27,1.58-.88,3.12-1.8,4.68-2.7.2-.13.48-.27.43-.55,0-1.72,0-3.45,0-5.17,0-.27,0-.65-.27-.77-1.55-.9-3.09-1.81-4.64-2.7C94.26,33.15,94,33,93.83,33.14Z"/><path class="cls-1" d="M14.86,20.92a1.87,1.87,0,0,1,2-.15c4.73,2.71,9.48,5.41,14.2,8.13A1.81,1.81,0,0,1,32,30.63c-.08,7.32,0,14.64-.07,22a.84.84,0,0,1-1.27.71c-2.84-1.57-5.66-3.21-8.48-4.81a1.84,1.84,0,0,1-.91-1.8c0-3.38,0-6.77,0-10.15a1.69,1.69,0,0,0-1-1.47c-1.14-.64-2.28-1.27-3.4-1.93a1.65,1.65,0,0,0-1.7,0c-1.23.65-2.43,1.37-3.64,2.07a1.63,1.63,0,0,0-.83,1.58c0,3.14-.08,6.28,0,9.41a2.53,2.53,0,0,1-.55,2.05c-2.82,1.77-5.77,3.32-8.64,5a1.92,1.92,0,0,1-1,.25,1.2,1.2,0,0,1-.56-1c0-7.32,0-14.63,0-22a1.77,1.77,0,0,1,1-1.61Z"/><path class="cls-1" d="M132.72,20.78a2.42,2.42,0,0,1,2,.58c4.48,2.57,8.93,5.21,13.42,7.77a1.62,1.62,0,0,1,.94,1.51c0,1.41,0,2.83,0,4.24A1.75,1.75,0,0,1,148,36.34c-2.79,1.57-5.51,3.27-8.31,4.8a.84.84,0,0,1-1.27-.71c0-1.36,0-2.73,0-4.09,0-.4-.3-.67-.61-.84-1.29-.75-2.59-1.47-3.86-2.25-.37-.21-.83-.53-1.25-.24-1.46.8-2.89,1.68-4.34,2.51a1,1,0,0,0-.6,1c0,1.67,0,3.34,0,5,0,.59.66.78,1.07,1,4.46,2.6,9,5.12,13.44,7.72a1.06,1.06,0,0,1,.71,1c-.12.62-.79.81-1.26,1.09-2.37,1.33-4.75,2.63-7.12,4a2.18,2.18,0,0,1-2.4.36l-14.09-8a1.79,1.79,0,0,1-.93-1.26c-.14-4.12,0-8.25-.06-12.37,0-1.48,0-3,0-4.44a1.77,1.77,0,0,1,1-1.52l13.22-7.64A12.5,12.5,0,0,1,132.72,20.78Z"/><path class="cls-1" d="M54.37,21a2.38,2.38,0,0,1,2.12.41c3,1.79,6,3.41,9,5.21,1.51.81,3,1.69,4.46,2.54a1.79,1.79,0,0,1,1,1.65Q71,38.92,71,47a1.64,1.64,0,0,1-.8,1.51c-4.27,2.5-8.6,4.93-12.88,7.41-.51.3-1,.59-1.56.85a1.61,1.61,0,0,1-1.55-.07L40.1,48.67a1.6,1.6,0,0,1-.92-1.42c0-5.54,0-11.07,0-16.61a1.51,1.51,0,0,1,.9-1.44c2.16-1.21,4.3-2.47,6.46-3.69,1.62-.9,3.21-1.86,4.83-2.75C52.34,22.12,53.39,21.63,54.37,21Z"/><path class="cls-1" d="M132.78,35.56a.87.87,0,0,1,.84.06c.84.46,1.65,1,2.49,1.43,0,1.21,0,2.41,0,3.62-.88.49-1.76,1-2.63,1.48a.84.84,0,0,1-.8-.06c-.84-.52-1.72-1-2.56-1.51,0-1.17,0-2.35,0-3.52C131,36.54,131.9,36.06,132.78,35.56Z"/><path class="cls-1" d="M67.05,78.44c0-1.4,0-2.8,0-4.2,0-2.75,0-5.49,0-8.24.73,0,1.46,0,2.2,0,0,0,0,13.91.06,16.49a3.36,3.36,0,0,1-2.7,3.24A6.55,6.55,0,0,1,64,85.66a33.38,33.38,0,0,1-4.82-2.5,2.88,2.88,0,0,1-1.67-2.52c0-5.23,0-10.46,0-15.69a2.72,2.72,0,0,1,1.43-2.34Q65.15,59,71.43,55.38a4.09,4.09,0,0,1,2.4-.86,6.49,6.49,0,0,1,2.79,1.2q5.84,3.39,11.7,6.76A2.83,2.83,0,0,1,90,64.94c0,5.24,0,10.47,0,15.71a2.91,2.91,0,0,1-1.67,2.5Q81.69,87,75.07,90.75a2.78,2.78,0,0,1-2.95-.11c-1.59-1-3.25-1.85-4.77-2.93a12.66,12.66,0,0,0,2.43-1.1c.47.31,2.85,1.66,3.87,2.24,4.53-2.55,9-5.19,13.53-7.76a.89.89,0,0,0,.54-.81c0-2.62-.09-5.22-.06-7.86s0-5.13-.1-7.67c-4.65-2.64-9.28-5.34-13.92-8-1.74,1.15-3.61,2.1-5.4,3.17-2.78,1.61-5.56,3.24-8.36,4.82a7.24,7.24,0,0,0-.11,1.32c0,.61,0,1.23,0,1.84v3.67c0,3,.11,6.1-.06,9.13a5.87,5.87,0,0,0,1,.67,40.6,40.6,0,0,0,3.83,2.09h1A2.37,2.37,0,0,0,67,82"/><path class="cls-1" d="M74.92,65.84a11.09,11.09,0,0,1,3.17-.24,7.74,7.74,0,0,1,4.13,1.22,3.77,3.77,0,0,1,1.61,3.79l-1.91,0a.24.24,0,0,1-.3-.24,3.39,3.39,0,0,0-2.3-2.32,6.9,6.9,0,0,0-3.38-.1,3.29,3.29,0,0,0-1.5.56c-.63.49-.56,1.15-.54,1.86a3.41,3.41,0,0,0,1.74.86,2.75,2.75,0,0,1,.94.18,25,25,0,0,1,5.77,1.06,3.08,3.08,0,0,1,2.15,2.79,4.13,4.13,0,0,1-.76,3.08,6.14,6.14,0,0,1-4,1.95A16,16,0,0,1,74.17,80,4.55,4.55,0,0,1,71,77.13a4,4,0,0,1-.21-1.88,7.69,7.69,0,0,1,2.35-.07c0,.22,0,.44,0,.66a5.2,5.2,0,0,0,.64,1.24,3.28,3.28,0,0,0,1.39.82,2,2,0,0,1,.76.19,18,18,0,0,0,4.27-.19A2.42,2.42,0,0,0,82,76.11c.14-1.18-1.18-1.51-2.08-1.79C77.7,74,75.35,74,73.25,73.1a3,3,0,0,1-2-2.61,4.22,4.22,0,0,1,.71-3A5.17,5.17,0,0,1,74.92,65.84Z"/></g></g></svg>