<svg xmlns="http://www.w3.org/2000/svg" viewBox="0 0 133.91 118.73"><defs><style>.cls-1{fill:#6c9;}.cls-2{isolation:isolate;}</style></defs><title>Recurso 6</title><g id="Capa_2" data-name="Capa 2"><g id="Capa_1-2" data-name="Capa 1"><path class="cls-1" d="M72.09.17a1.7,1.7,0,0,1,1.49,0V.24a3.47,3.47,0,0,1-1.47,0Z"/><path class="cls-1" d="M73.92.21h0Z"/><path class="cls-1" d="M68.64.5l.41-.21Z"/><path class="cls-1" d="M76.85.3l.41.2A3.86,3.86,0,0,0,76.85.3Z"/><path class="cls-1" d="M67.28.59l.08,0Z"/><path class="cls-1" d="M78.23.53l.4.22Z"/><path class="cls-1" d="M65.9.83l.08,0A.12.12,0,0,0,65.9.83Z"/><path class="cls-1" d="M79.62.83l.15.07h-.08Z"/><path class="cls-1" d="M64.76,1.05l.07,0Z"/><path class="cls-1" d="M80.52,1l.41.22Z"/><path class="cls-1" d="M51.67,1.44l.4-.23C52,1.27,51.77,1.37,51.67,1.44Z"/><path class="cls-1" d="M56.9,1.21l.41.22Z"/><path class="cls-1" d="M63.85,1.34l.1,0Z"/><path class="cls-1" d="M81.53,1.27h0Z"/><path class="cls-1" d="M32.83,1.49c.34-.24.54-.18.61.18A.55.55,0,0,1,32.83,1.49Z"/><path class="cls-1" d="M50.08,1.5h0Z"/><path class="cls-1" d="M59.06,1.49h0Z"/><path class="cls-1" d="M62.9,1.53,63,1.47A.23.23,0,0,1,62.9,1.53Z"/><path class="cls-1" d="M82.43,1.53l.07,0Z"/><path class="cls-1" d="M34.88,1.68l.41.2Z"/><path class="cls-1" d="M49.16,1.75l.08,0S49.18,1.74,49.16,1.75Z"/><path class="cls-1" d="M60.2,1.72l.08,0Z"/><path class="cls-1" d="M62.23,1.75a.13.13,0,0,0,.08,0A.13.13,0,0,1,62.23,1.75Z"/><path class="cls-1" d="M82.89,1.72s.06,0,.08,0Z"/><path class="cls-1" d="M36.58,1.94l.08,0A.08.08,0,0,1,36.58,1.94Z"/><path class="cls-1" d="M61.28,2a3,3,0,0,1,.42,0C61.56,2.25,61.42,2.25,61.28,2Z"/><path class="cls-1" d="M37.63,2.15c.1,0,.31.16.41.21A3.17,3.17,0,0,0,37.63,2.15Z"/><path class="cls-1" d="M47.3,2.36l.44-.19Z"/><path class="cls-1" d="M38.87,2.41l.08,0Z"/><path class="cls-1" d="M84.72,2.44l.07,0Z"/><path class="cls-1" d="M40,2.64h0Z"/><path class="cls-1" d="M46.2,2.69l.07,0Z"/><path class="cls-1" d="M85.19,2.65l.08,0Z"/><path class="cls-1" d="M40.87,2.9l.14,0h-.07Z"/><path class="cls-1" d="M45.72,2.91a.24.24,0,0,1,.09,0S45.74,2.9,45.72,2.91Z"/><path class="cls-1" d="M69.53,3,70,2.84C69.86,2.89,69.64,3,69.53,3Z"/><path class="cls-1" d="M75.31,2.9l.08,0Z"/><path class="cls-1" d="M85.65,2.87l.08,0Z"/><path class="cls-1" d="M41.82,3.12s.07,0,.1,0A.17.17,0,0,1,41.82,3.12Z"/><path class="cls-1" d="M67.52,3.14a.12.12,0,0,1,.08,0S67.53,3.12,67.52,3.14Z"/><path class="cls-1" d="M77.36,3l.35.25Z"/><path class="cls-1" d="M42.51,3.33l.13.06Z"/><path class="cls-1" d="M44.8,3.37l.08,0Z"/><path class="cls-1" d="M66.16,3.4l.07,0Z"/><path class="cls-1" d="M78.45,3.3c.11,0,.33.14.44.17Z"/><path class="cls-1" d="M86.58,3.33l.07,0Z"/><path class="cls-1" d="M44.35,3.59l.08,0Z"/><path class="cls-1" d="M65,3.62l.14-.1Z"/><path class="cls-1" d="M79.65,3.5l.13.14Z"/><path class="cls-1" d="M87,3.58l.07,0Z"/><path class="cls-1" d="M52.59,3.94c.07-.36.27-.42.61-.19A.55.55,0,0,1,52.59,3.94Z"/><path class="cls-1" d="M57.17,3.78c.37-.23.64-.17.82.15A1.42,1.42,0,0,1,57.17,3.78Z"/><path class="cls-1" d="M64.07,3.83a.12.12,0,0,1,.08,0A.12.12,0,0,0,64.07,3.83Z"/><path class="cls-1" d="M80.57,3.69l.35.24A3.64,3.64,0,0,1,80.57,3.69Z"/><path class="cls-1" d="M33,4l.44.19A3.43,3.43,0,0,0,33,4Z"/><path class="cls-1" d="M51.24,4.09l.09,0Z"/><path class="cls-1" d="M63.17,4.08l.07,0Z"/><path class="cls-1" d="M35.35,4.18l.41.22Z"/><path class="cls-1" d="M49.88,4.31l.07,0Z"/><path class="cls-1" d="M61.09,4.3h0Z"/><path class="cls-1" d="M82.2,4.28l.08,0S82.22,4.28,82.2,4.28Z"/><path class="cls-1" d="M88,4.25q.55-.17.51.39A.54.54,0,0,1,88,4.25Z"/><path class="cls-1" d="M36.78,4.53l.07,0S36.8,4.53,36.78,4.53Z"/><path class="cls-1" d="M49.15,4.53l.14-.07A.37.37,0,0,1,49.15,4.53Z"/><path class="cls-1" d="M38.17,4.75l.07,0Z"/><path class="cls-1" d="M48.27,4.77s0,0,.07,0Z"/><path class="cls-1" d="M39,4.92l.44.16C39.34,5,39.11,5,39,4.92Z"/><path class="cls-1" d="M83.81,4.94l.08,0Z"/><path class="cls-1" d="M89.11,4.92s0,0,.06,0Z"/><path class="cls-1" d="M40,5.11l.13.11Z"/><path class="cls-1" d="M47.17,5.24s0,0,0,0S47.18,5.22,47.17,5.24Z"/><path class="cls-1" d="M84.27,5.16l.07,0Z"/><path class="cls-1" d="M40.93,5.41l.08,0Z"/><path class="cls-1" d="M89.62,5.4c.37-.11.54,0,.51.38A.53.53,0,0,1,89.62,5.4Z"/><path class="cls-1" d="M85.2,5.62l.07,0A.18.18,0,0,1,85.2,5.62Z"/><path class="cls-1" d="M85.62,5.87a.11.11,0,0,0,.06,0A.11.11,0,0,1,85.62,5.87Z"/><path class="cls-1" d="M43.21,6.09l.09,0Z"/><path class="cls-1" d="M45.74,6.12l.06,0Z"/><path class="cls-1" d="M44.58,6.55l.09,0Z"/><path class="cls-1" d="M86.78,6.56s0,0,.06.05S86.8,6.58,86.78,6.56Z"/><path class="cls-1" d="M91.28,6.72a6.53,6.53,0,0,1,1.8,1.83C92.46,8,91.88,7.34,91.28,6.72Z"/><path class="cls-1" d="M87.39,6.94c.37-.08.53,0,.46.43A.48.48,0,0,1,87.39,6.94Z"/><path class="cls-1" d="M88.62,7.94s0,0,.06,0S88.63,8,88.62,7.94Z"/><path class="cls-1" d="M93.81,9.46c.37,0,.5.14.38.51A.52.52,0,0,1,93.81,9.46Z"/><path class="cls-1" d="M94.6,10.44l0,.08Z"/><path class="cls-1" d="M91.6,10.92s0,0,.05.05S91.61,10.93,91.6,10.92Z"/><path class="cls-1" d="M94.82,10.9l0,.07Z"/><path class="cls-1" d="M92.3,11.84l0,.06Z"/><path class="cls-1" d="M95.3,12l0,.11Z"/><path class="cls-1" d="M92.53,12.28l0,.07Z"/><path class="cls-1" d="M92.75,13a.19.19,0,0,0,0,.07A.19.19,0,0,0,92.75,13Z"/><path class="cls-1" d="M95.5,12.94a.45.45,0,0,1,0,.11A.61.61,0,0,0,95.5,12.94Z"/><path class="cls-1" d="M93,13.87a.14.14,0,0,0,0,.07A.25.25,0,0,0,93,13.87Z"/><path class="cls-1" d="M95.65,14.3c0,.1.15.31.21.41C95.8,14.61,95.7,14.41,95.65,14.3Z"/><path class="cls-1" d="M93.21,14.81a.19.19,0,0,0,0,.07S93.22,14.81,93.21,14.81Z"/><path class="cls-1" d="M66,5.83C71.33,5,77,4.93,82,7.08c.71.34,1.43.67,2.12,1.06a18.75,18.75,0,0,1,6.23,5.72c2,8.42-1.44,17-4.38,24.85-.25.53-.48,1.07-.68,1.62l-.33.6c-.83,2-1.91,3.87-2.89,5.8-.6.88-1,1.85-1.6,2.75-.22.32-.44.64-.67,1-.8-.57.23-1.26.38-1.92C82.84,42.91,80,36.81,81,31c.29-2.75,1-5.66.09-8.35a20.67,20.67,0,0,0-1.14-2.75A29.26,29.26,0,0,0,66.68,6.29,1,1,0,0,1,66,5.83Z"/><path class="cls-1" d="M48.52,7.5c4.59-2,9.8-1.44,14.47-.06a5.87,5.87,0,0,0,1.16.47,25.57,25.57,0,0,1,3.66,1.84A28,28,0,0,1,78.38,22.6l.33.83c-3.61-.28-8.52,0-10,4-1.07,2.75-.2,5.77.59,8.49.32.64.49,1.35.79,2s.61,1.38.92,2.06a9.59,9.59,0,0,0,.6,1.2q.24.45.45.93c2.06,3.43,3.39,7.34,6.16,10.31-3,.62-4.07,3.82-3.72,6.53-1.19,6.94-.85,14.35-3.58,20.93-2.15,3.41-6.77,4.26-10.52,4-3-.76-4.71-3.76-5.13-6.62-1.09-7-.26-14.21-.85-21.19a4.78,4.78,0,0,0-5-3.58l0-.15a17.58,17.58,0,0,1,.68-2.29c.36-.75.58-1.55.92-2.31.22-.53.5-1,.7-1.59s.35-.89.55-1.33c2-5.46,1.45-11.52,0-17C50,22,42.44,23.47,38.15,26a41.4,41.4,0,0,1,1.38-7.3A6,6,0,0,0,40,17.3a16.32,16.32,0,0,0,.7-1.61A15.48,15.48,0,0,1,48.52,7.5Z"/><path class="cls-1" d="M24,7.44c6-1.88,12.72-1,18.54,1.16a20.68,20.68,0,0,0-4.14,6.19c-.2.48-.42,1-.6,1.44a7.29,7.29,0,0,0-.44,1.37c-2,5.54-1.87,11.5-1.54,17.29-.06,4-1.31,8.17.38,12a9.88,9.88,0,0,0,.92,1.84,9.72,9.72,0,0,0,2.62,3c-2.18,2.29-4.32,4.65-6.28,7.13-1.13,1.27-2.79,3-4.63,2-3.1-1.94-4.48-5.54-6-8.69a8.58,8.58,0,0,0-.45-1.13,9.51,9.51,0,0,0-.46-1.15c-.25-.61-.41-1.26-.7-1.85a6,6,0,0,0-.45-1.37,18.09,18.09,0,0,1-.58-1.9c-2.58-9.67-6.47-20-3.32-30,.17-.44.35-.89.55-1.32A11.89,11.89,0,0,1,24,7.44Z"/><path class="cls-1" d="M93.37,16.16q.51.14.18.72A.92.92,0,0,1,93.37,16.16Z"/><path class="cls-1" d="M93.49,17.14v0Z"/><path class="cls-1" d="M95.64,20.15a.87.87,0,0,1,.14-.82C96,19.5,96,20.22,95.64,20.15Z"/><path class="cls-1" d="M93.36,21.06a2.4,2.4,0,0,1,.13-1C93.77,20.25,93.83,21.11,93.36,21.06Z"/><path class="cls-1" d="M95.42,21.78l.2-.41Z"/><path class="cls-1" d="M93.2,22.65a.14.14,0,0,1,0-.07A.41.41,0,0,1,93.2,22.65Z"/><path class="cls-1" d="M95.33,23.37a.24.24,0,0,1,0-.08A.19.19,0,0,0,95.33,23.37Z"/><path class="cls-1" d="M92.9,24.53c.06-.1.16-.31.22-.41C93.06,24.22,93,24.44,92.9,24.53Z"/><path class="cls-1" d="M95.07,24.5s0-.05,0-.07A.23.23,0,0,1,95.07,24.5Z"/><path class="cls-1" d="M92.78,25.42a.24.24,0,0,1,0-.08A.24.24,0,0,0,92.78,25.42Z"/><path class="cls-1" d="M94.87,25.66a.19.19,0,0,1,0-.07A.19.19,0,0,0,94.87,25.66Z"/><path class="cls-1" d="M70.93,28.56c1.26-3.14,5.25-2.76,8-2.6,0,2.4-.6,4.72-.74,7.1C78,37.92,80,42.93,77.9,47.61a105.08,105.08,0,0,1-5.71-11.25c-.18-.45-.34-.9-.55-1.33C71.09,32.94,70.37,30.75,70.93,28.56Zm1.5-.32c.83,2.18,4.49,1.48,4.23-.88C75.29,26.81,73.28,26.84,72.43,28.24Z"/><path class="cls-1" d="M38.1,29c3.28-2.1,9.53-4.85,11.86-.22,1.13,4.74,1.81,9.8.22,14.52A3.32,3.32,0,0,0,50,44c-.2.43-.37.89-.55,1.33s-.46,1.07-.7,1.6c-.36.75-.57,1.54-.91,2.29a29.34,29.34,0,0,0-.93,2.93,11.79,11.79,0,0,1-3.86-1,10.61,10.61,0,0,1-4.61-5.3C36.92,40.31,39,34.61,38.1,29ZM45,27.81l-.53.46c0,.26,0,.54,0,.79a2.57,2.57,0,0,1,.51.74A2.51,2.51,0,0,0,49.15,29C48.42,27.56,46.45,27.46,45,27.81Z"/><path class="cls-1" d="M94.48,26.83c0-.11.15-.31.2-.43Z"/><path class="cls-1" d="M92.52,26.78a.14.14,0,0,1,0-.07A.12.12,0,0,0,92.52,26.78Z"/><path class="cls-1" d="M92.2,27.72c.06-.08.18-.26.23-.35C92.38,27.46,92.26,27.64,92.2,27.72Z"/><path class="cls-1" d="M94.34,27.72l.11-.14Z"/><path class="cls-1" d="M92.07,28.62s0-.06,0-.07A.19.19,0,0,0,92.07,28.62Z"/><path class="cls-1" d="M94.17,28.65s0-.06,0-.08A.19.19,0,0,0,94.17,28.65Z"/><path class="cls-1" d="M93.94,29.34l0-.08A.34.34,0,0,0,93.94,29.34Z"/><path class="cls-1" d="M91.86,29.56s0-.06,0-.08A.31.31,0,0,1,91.86,29.56Z"/><path class="cls-1" d="M91.64,30.24l0-.08A.13.13,0,0,0,91.64,30.24Z"/><path class="cls-1" d="M93.7,30.25s0-.07,0-.09Z"/><path class="cls-1" d="M91.4,31.16s0-.07,0-.09S91.41,31.14,91.4,31.16Z"/><path class="cls-1" d="M93.43,31.08l.06-.06-.07.14Z"/><path class="cls-1" d="M91.18,31.84a.94.94,0,0,0,0-.09A.92.92,0,0,0,91.18,31.84Z"/><path class="cls-1" d="M93.2,31.89s.08-.11.11-.15A.83.83,0,0,0,93.2,31.89Z"/><path class="cls-1" d="M92.78,33.22s0-.07,0-.08A.69.69,0,0,1,92.78,33.22Z"/><path class="cls-1" d="M90.69,33.43s0,0,0-.06S90.69,33.41,90.69,33.43Z"/><path class="cls-1" d="M92.33,34.61l0-.08S92.33,34.59,92.33,34.61Z"/><path class="cls-1" d="M90.23,34.81s0-.05,0-.06S90.23,34.78,90.23,34.81Z"/><path class="cls-1" d="M92.09,35.3l0-.08Z"/><path class="cls-1" d="M91.83,36s0-.08,0-.1S91.84,35.94,91.83,36Z"/><path class="cls-1" d="M89.55,36.64l0-.08A.41.41,0,0,0,89.55,36.64Z"/><path class="cls-1" d="M91.41,37.14l0-.08S91.41,37.11,91.41,37.14Z"/><path class="cls-1" d="M91.15,37.8a.24.24,0,0,0,0-.09A.24.24,0,0,1,91.15,37.8Z"/><path class="cls-1" d="M90.69,38.94a.26.26,0,0,0,0-.08Z"/><path class="cls-1" d="M90.49,39.42a.26.26,0,0,0,0-.08A.26.26,0,0,1,90.49,39.42Z"/><path class="cls-1" d="M88.17,40.08l0-.08Z"/><path class="cls-1" d="M90.23,40.08a.19.19,0,0,0,0-.08A.19.19,0,0,1,90.23,40.08Z"/><path class="cls-1" d="M90,40.55a.79.79,0,0,1,0-.09Z"/><path class="cls-1" d="M87.48,41.68s0,0,0-.06S87.49,41.67,87.48,41.68Z"/><path class="cls-1" d="M89.55,41.69a.15.15,0,0,0,0-.07A.49.49,0,0,1,89.55,41.69Z"/><path class="cls-1" d="M87.26,42.14l0-.08S87.26,42.12,87.26,42.14Z"/><path class="cls-1" d="M89.34,42.17a.26.26,0,0,0,0-.08A.26.26,0,0,1,89.34,42.17Z"/><path class="cls-1" d="M87,42.62l0-.08Z"/><path class="cls-1" d="M89.12,42.62l0-.07Z"/><path class="cls-1" d="M86.82,43.08l0-.08Z"/><path class="cls-1" d="M88.88,43.09l0-.08Z"/><path class="cls-1" d="M87.94,45.12a.21.21,0,0,0,0-.07A.24.24,0,0,0,87.94,45.12Z"/><path class="cls-1" d="M87.48,46a.11.11,0,0,0,0-.07A.11.11,0,0,1,87.48,46Z"/><path class="cls-1" d="M85,46.75a.11.11,0,0,0,0-.07Z"/><path class="cls-1" d="M84.5,47.65l0-.06S84.51,47.62,84.5,47.65Z"/><path class="cls-1" d="M86.36,48.14l0-.08Z"/><path class="cls-1" d="M86.13,48.59l0-.07A.21.21,0,0,0,86.13,48.59Z"/><path class="cls-1" d="M83.83,48.81a.21.21,0,0,0,0-.07A.21.21,0,0,1,83.83,48.81Z"/><path class="cls-1" d="M85.88,49l0-.08Z"/><path class="cls-1" d="M83.58,49.24l0-.07Z"/><path class="cls-1" d="M85.21,50.19a.18.18,0,0,1,.05-.07Z"/><path class="cls-1" d="M82.92,50.41l0-.06Z"/><path class="cls-1" d="M92.26,51.21l.4-.24Z"/><path class="cls-1" d="M94.11,51l.13.1Z"/><path class="cls-1" d="M84.53,51.34a.21.21,0,0,0,0-.07Z"/><path class="cls-1" d="M90.89,51.36l.14-.12Z"/><path class="cls-1" d="M89.51,51.65l.41-.21Z"/><path class="cls-1" d="M85.86,51.74a1.8,1.8,0,0,1,1.44,0A1.5,1.5,0,0,1,85.86,51.74Z"/><path class="cls-1" d="M87.46,51.72h0Z"/><path class="cls-1" d="M95.36,51.71c.39-.08.54.07.43.47A.72.72,0,0,1,95.36,51.71Z"/><path class="cls-1" d="M81.74,52.22a.21.21,0,0,0,0-.07S81.75,52.22,81.74,52.22Z"/><path class="cls-1" d="M90.23,52.94l.08,0Z"/><path class="cls-1" d="M96.19,52.84a.54.54,0,0,1,0,.1Z"/><path class="cls-1" d="M82,53.15l.07,0S82,53.15,82,53.15Z"/><path class="cls-1" d="M89.08,53.15l.08,0S89.1,53.14,89.08,53.15Z"/><path class="cls-1" d="M41.85,53.34l0,0-.06,0Z"/><path class="cls-1" d="M82.65,53.37l.08,0Z"/><path class="cls-1" d="M87.7,53.37l.08,0S87.72,53.37,87.7,53.37Z"/><path class="cls-1" d="M42.29,53.58l.08,0Z"/><path class="cls-1" d="M42.74,53.81l.09,0A.2.2,0,0,0,42.74,53.81Z"/><path class="cls-1" d="M43.45,54s.07,0,.09,0A.19.19,0,0,1,43.45,54Z"/><path class="cls-1" d="M40.89,54.27l.06-.06S40.91,54.25,40.89,54.27Z"/><path class="cls-1" d="M93.84,54.22c.41-.1.45.89,0,.8C93.85,54.77,93.84,54.5,93.84,54.22Z"/><path class="cls-1" d="M45.06,54.47l.07,0A.1.1,0,0,0,45.06,54.47Z"/><path class="cls-1" d="M40.16,55.06a.51.51,0,0,1,.41-.47C40.67,55,40.53,55.14,40.16,55.06Z"/><path class="cls-1" d="M77.08,58.47a3,3,0,0,1,2.55-3.82c3.21,2.22,7.46,1.35,11,.67a13.1,13.1,0,0,1-6.12,3.14C82.08,58.83,79.53,59.22,77.08,58.47Z"/><path class="cls-1" d="M96.25,55a.24.24,0,0,1,0-.08A.24.24,0,0,0,96.25,55Z"/><path class="cls-1" d="M49.65,55.09h1A2.65,2.65,0,0,1,52,58.29c-2.41,4-7.88,5-12,3.37l-.62-.25c1.83-1.08,4.42-.88,6.3-2.15C47.33,58.21,48.21,56.37,49.65,55.09Z"/><path class="cls-1" d="M46,55.47l0-.06Z"/><path class="cls-1" d="M95.76,56.39a.26.26,0,0,0,0-.08A.19.19,0,0,1,95.76,56.39Z"/><path class="cls-1" d="M38.32,57.15a.81.81,0,0,1,.39-.51C38.85,57,38.72,57.19,38.32,57.15Z"/><path class="cls-1" d="M95.54,56.84l0-.07A.21.21,0,0,1,95.54,56.84Z"/><path class="cls-1" d="M92.72,57l.06-.06Z"/><path class="cls-1" d="M44.14,57.3l.08,0Z"/><path class="cls-1" d="M95.3,57.3l0-.08Z"/><path class="cls-1" d="M43,57.75l.09,0Z"/><path class="cls-1" d="M42.07,58l.06,0Z"/><path class="cls-1" d="M41.16,58.21l.07,0Z"/><path class="cls-1" d="M91.39,58.19s0,0,.06,0Z"/><path class="cls-1" d="M36.72,59a.73.73,0,0,1,.38-.52C37.25,58.86,37.12,59,36.72,59Z"/><path class="cls-1" d="M39.32,58.66l.07,0Z"/><path class="cls-1" d="M90.7,58.66l.06,0S90.71,58.65,90.7,58.66Z"/><path class="cls-1" d="M94.39,58.68l0-.07S94.4,58.67,94.39,58.68Z"/><path class="cls-1" d="M38.62,58.87l.08,0Z"/><path class="cls-1" d="M90,59.12l.06,0Z"/><path class="cls-1" d="M37.71,59.33s0,0,.06,0S37.73,59.31,37.71,59.33Z"/><path class="cls-1" d="M35.55,60.34a.7.7,0,0,1,.41-.48C36.08,60.25,35.94,60.41,35.55,60.34Z"/><path class="cls-1" d="M87.68,60.24a.47.47,0,0,1,.09,0A.16.16,0,0,0,87.68,60.24Z"/><path class="cls-1" d="M36.61,60.74a.19.19,0,0,0,0-.07S36.62,60.72,36.61,60.74Z"/><path class="cls-1" d="M86.33,60.69l.07,0Z"/><path class="cls-1" d="M85.41,60.91h0Z"/><path class="cls-1" d="M92.08,61l.07,0A.15.15,0,0,0,92.08,61Z"/><path class="cls-1" d="M84.27,61.14a.11.11,0,0,1,.07,0Z"/><path class="cls-1" d="M78,61.25l.4.21Z"/><path class="cls-1" d="M82.16,61.4a1.8,1.8,0,0,1,.83-.15C83.1,61.69,82.31,61.69,82.16,61.4Z"/><path class="cls-1" d="M91.38,61.42l.07-.05A.18.18,0,0,1,91.38,61.42Z"/><path class="cls-1" d="M36.57,61.59l0,.08Z"/><path class="cls-1" d="M90.21,62.08a.13.13,0,0,1,.07,0S90.23,62.06,90.21,62.08Z"/><path class="cls-1" d="M36.8,62.27a.24.24,0,0,1,0,.07A.24.24,0,0,0,36.8,62.27Z"/><path class="cls-1" d="M51.64,62.58a.71.71,0,0,1,.48-.46.37.37,0,0,1,0,.6Z"/><path class="cls-1" d="M89.56,62.33s.06,0,.08,0S89.58,62.31,89.56,62.33Z"/><path class="cls-1" d="M88.86,62.56s.06,0,.07,0S88.88,62.56,88.86,62.56Z"/><path class="cls-1" d="M33.12,62.77s0,0,.06-.05S33.13,62.75,33.12,62.77Z"/><path class="cls-1" d="M51,63l.07,0A.09.09,0,0,0,51,63Z"/><path class="cls-1" d="M87.25,63h0Z"/><path class="cls-1" d="M32.42,63.22l.06,0Z"/><path class="cls-1" d="M38,63.42l.06,0S38,63.43,38,63.42Z"/><path class="cls-1" d="M50.33,63.47l.06,0S50.35,63.47,50.33,63.47Z"/><path class="cls-1" d="M78.75,63.46s0,0,.07,0S78.77,63.47,78.75,63.46Z"/><path class="cls-1" d="M84.74,63.47h0Z"/><path class="cls-1" d="M28.78,63.64h.07A.09.09,0,0,1,28.78,63.64Z"/><path class="cls-1" d="M31.27,63.67l.07,0Z"/><path class="cls-1" d="M76.46,63.71a.24.24,0,0,0,0-.08A.24.24,0,0,1,76.46,63.71Z"/><path class="cls-1" d="M80.5,63.65a20,20,0,0,0,2.57,0A7.65,7.65,0,0,1,80.5,63.65Z"/><path class="cls-1" d="M48.94,64.14s.06,0,.07,0A.13.13,0,0,0,48.94,64.14Z"/><path class="cls-1" d="M78.36,64.42a.24.24,0,0,1,0-.08A.24.24,0,0,0,78.36,64.42Z"/><path class="cls-1" d="M40.7,64.55h0Z"/><path class="cls-1" d="M47.56,64.59l.09,0A.13.13,0,0,0,47.56,64.59Z"/><path class="cls-1" d="M33.13,64.84l.06,0Z"/><path class="cls-1" d="M41.55,64.71l.44.18Z"/><path class="cls-1" d="M46.65,64.84l.08,0S46.67,64.83,46.65,64.84Z"/><path class="cls-1" d="M32.45,65.31l.06,0S32.47,65.31,32.45,65.31Z"/><path class="cls-1" d="M76.15,66a1.19,1.19,0,0,1,.14-.81C76.58,65.36,76.57,66.12,76.15,66Z"/><path class="cls-1" d="M31.53,65.78l.07,0Z"/><path class="cls-1" d="M37.24,65.75l.08,0Z"/><path class="cls-1" d="M31.05,66l.11-.07Z"/><path class="cls-1" d="M37.71,65.93l.12.07Z"/><path class="cls-1" d="M50,66.72c-.34,0-.35-.86,0-.82A1.16,1.16,0,0,1,50,66.72Z"/><path class="cls-1" d="M29.21,66.09a3,3,0,0,1,.79,0C30.1,66.47,29.14,66.5,29.21,66.09Z"/><path class="cls-1" d="M38.84,66.21h0Z"/><path class="cls-1" d="M52.19,66.14a3.88,3.88,0,0,1,.11,1.48C51.8,67.46,52,66.52,52.19,66.14Z"/><path class="cls-1" d="M40,66.44l.07,0Z"/><path class="cls-1" d="M48,66.46l.13,0Z"/><path class="cls-1" d="M41.13,66.59l.09,0,.06.07Z"/><path class="cls-1" d="M47.32,66.66l.1,0Z"/><path class="cls-1" d="M78,67l.21-.41Z"/><path class="cls-1" d="M42.73,66.77l.41.2Z"/><path class="cls-1" d="M45.9,67a4.22,4.22,0,0,0,.45-.18A4.22,4.22,0,0,1,45.9,67Z"/><path class="cls-1" d="M50,67.18a.41.41,0,0,1,0-.11Z"/><path class="cls-1" d="M75.93,67.67l.19-.45C76.07,67.34,76,67.56,75.93,67.67Z"/><path class="cls-1" d="M50,67.62v0Z"/><path class="cls-1" d="M52.31,68.33c-.37-.11-.37-.24,0-.36C52.31,68.06,52.31,68.24,52.31,68.33Z"/><path class="cls-1" d="M77.74,68.78c.06-.1.17-.29.22-.39C77.91,68.49,77.8,68.69,77.74,68.78Z"/><path class="cls-1" d="M75.69,69.5l.2-.4C75.85,69.19,75.75,69.4,75.69,69.5Z"/><path class="cls-1" d="M77.66,70.61a.24.24,0,0,1,0-.08A.19.19,0,0,1,77.66,70.61Z"/><path class="cls-1" d="M75.57,70.83s0-.06,0-.08A.31.31,0,0,1,75.57,70.83Z"/><path class="cls-1" d="M77.3,72.67a.88.88,0,0,1,.14-.83C77.67,72,77.69,72.74,77.3,72.67Z"/><path class="cls-1" d="M75.24,72.93c.05-.1.16-.31.22-.41C75.4,72.62,75.29,72.83,75.24,72.93Z"/><path class="cls-1" d="M50.12,72.77a.89.89,0,0,1,.14.82C49.86,73.66,49.88,72.94,50.12,72.77Z"/><path class="cls-1" d="M52.39,73.66a.89.89,0,0,1,.15.64C52.16,74.22,52.11,74,52.39,73.66Z"/><path class="cls-1" d="M77.05,74.06c.06-.1.17-.31.22-.41C77.22,73.75,77.11,74,77.05,74.06Z"/><path class="cls-1" d="M75.11,74s0-.06,0-.07A.19.19,0,0,1,75.11,74Z"/><path class="cls-1" d="M50.32,75.5a.52.52,0,0,1,.17.61C50.14,76.05,50.09,75.84,50.32,75.5Z"/><path class="cls-1" d="M74.78,75.91,75,75.5Z"/><path class="cls-1" d="M77,75.66a.14.14,0,0,1,0-.07S77,75.64,77,75.66Z"/><path class="cls-1" d="M52.63,76a.78.78,0,0,1,.15.63C52.4,76.5,52.35,76.3,52.63,76Z"/><path class="cls-1" d="M74.55,77.06c.06-.1.17-.31.22-.41C74.72,76.75,74.61,77,74.55,77.06Z"/><path class="cls-1" d="M76.73,77s0,0,0-.08S76.73,77,76.73,77Z"/><path class="cls-1" d="M50.51,77.78l.21.41C50.66,78.09,50.56,77.87,50.51,77.78Z"/><path class="cls-1" d="M74.41,77.93a.19.19,0,0,0,0-.07A.19.19,0,0,1,74.41,77.93Z"/><path class="cls-1" d="M52.9,78.08a.41.41,0,0,0,0,.07A.41.41,0,0,1,52.9,78.08Z"/><path class="cls-1" d="M76.52,78.18a.24.24,0,0,1,0-.08S76.53,78.16,76.52,78.18Z"/><path class="cls-1" d="M53.13,79s0,0,0,.06A.22.22,0,0,1,53.13,79Z"/><path class="cls-1" d="M76.29,79.09a.19.19,0,0,1,0-.07S76.3,79.08,76.29,79.09Z"/><path class="cls-1" d="M74,79.31a.94.94,0,0,0,0-.09A.46.46,0,0,1,74,79.31Z"/><path class="cls-1" d="M50.75,79.4c0,.1.12.34.17.45C50.87,79.74,50.79,79.5,50.75,79.4Z"/><path class="cls-1" d="M73.75,80l0-.07Z"/><path class="cls-1" d="M76,80l0-.08A.26.26,0,0,0,76,80Z"/><path class="cls-1" d="M53.55,80.37a.94.94,0,0,1,0,.09A.24.24,0,0,1,53.55,80.37Z"/><path class="cls-1" d="M73.49,80.43l0-.07Z"/><path class="cls-1" d="M51,80.53l.22.41C51.13,80.84,51,80.64,51,80.53Z"/><path class="cls-1" d="M75.79,80.68l0-.08Z"/><path class="cls-1" d="M75.59,81.16l0-.08A.19.19,0,0,0,75.59,81.16Z"/><path class="cls-1" d="M73,81.34a.11.11,0,0,0,0-.06S73,81.34,73,81.34Z"/><path class="cls-1" d="M51.25,81.78l0,.08Z"/><path class="cls-1" d="M54.23,82l0,.08Z"/><path class="cls-1" d="M75.12,82.08a.79.79,0,0,1,0-.09A.79.79,0,0,0,75.12,82.08Z"/><path class="cls-1" d="M72.35,82.28l.05-.06S72.36,82.28,72.35,82.28Z"/><path class="cls-1" d="M51.5,82.43s0,.06,0,.07A.21.21,0,0,1,51.5,82.43Z"/><path class="cls-1" d="M54.71,82.9l0,.06Z"/><path class="cls-1" d="M71,83.66l.07,0Z"/><path class="cls-1" d="M72.72,85,73.8,84l.07.21C73.36,84.33,73.28,84.94,72.72,85Z"/><path class="cls-1" d="M52.38,84.12a.66.66,0,0,1,.4.52C52.39,84.67,52.26,84.5,52.38,84.12Z"/><path class="cls-1" d="M56.51,84.75s.05,0,.06,0S56.53,84.77,56.51,84.75Z"/><path class="cls-1" d="M69.12,84.81l.07,0Z"/><path class="cls-1" d="M68.64,85a.13.13,0,0,1,.08,0S68.66,85,68.64,85Z"/><path class="cls-1" d="M53,85.15c.46.42.92.85,1.36,1.29A3.9,3.9,0,0,1,53,85.15Z"/><path class="cls-1" d="M57.22,85.21l.06,0S57.23,85.22,57.22,85.21Z"/><path class="cls-1" d="M67.9,85.31l.44-.18Z"/><path class="cls-1" d="M67.5,85.47l.08,0Z"/><path class="cls-1" d="M58.12,85.69l.06,0S58.13,85.71,58.12,85.69Z"/><path class="cls-1" d="M66.83,85.69l.07,0Z"/><path class="cls-1" d="M71.54,86c0-.28.17-.41.47-.41C72.05,85.91,71.89,86.05,71.54,86Z"/><path class="cls-1" d="M58.58,85.92l.07,0Z"/><path class="cls-1" d="M59.27,86.12l.07,0A.13.13,0,0,1,59.27,86.12Z"/><path class="cls-1" d="M65,86.24l.14-.12Z"/><path class="cls-1" d="M71.22,86.19l.06,0Z"/><path class="cls-1" d="M59.89,86.27l.44.17Z"/><path class="cls-1" d="M63.78,86.44c.11,0,.33-.14.44-.17Z"/><path class="cls-1" d="M55.16,87.05l.06,0Z"/><path class="cls-1" d="M55.58,87.3l.07,0Z"/><path class="cls-1" d="M68.22,87.55s.06,0,.08,0S68.24,87.53,68.22,87.55Z"/><path class="cls-1" d="M67.51,87.84l.13-.11Z"/><path class="cls-1" d="M57,87.94H57l.05,0Z"/><path class="cls-1" d="M66.52,88.05l.42-.21Z"/><path class="cls-1" d="M65.9,88.22l.09,0Z"/><path class="cls-1" d="M58.56,88.47l.08,0A.12.12,0,0,0,58.56,88.47Z"/><path class="cls-1" d="M64.78,88.46l.07,0Z"/><path class="cls-1" d="M59.47,88.53a4,4,0,0,0,.4.22A4,4,0,0,1,59.47,88.53Z"/><path class="cls-1" d="M63.09,88.75a3.86,3.86,0,0,0,.41-.2A3.86,3.86,0,0,1,63.09,88.75Z"/><path class="cls-1" d="M69.05.3c1,0,2,0,3,0a3.32,3.32,0,0,0,1.47,0l.35,0H74c.94.05,1.88.05,2.81.09l.41.21a3.5,3.5,0,0,1,1,0l.4.22a1.66,1.66,0,0,1,1,.08l.06.07h.08L80.5,1l.41.22.6.06.08,0,.82.24.07,0,.39.17.08,0,.74.14,0,.16a3.9,3.9,0,0,1,1,.38l.07,0,.39.18.08,0,.39.18.08,0a6.77,6.77,0,0,1,.85.43l.07,0,.36.2.07,0c.3.21.75.3.94.65a.53.53,0,0,0,.51.39l.58.28.06,0,.45.44a.53.53,0,0,0,.51.38c.46.16.74.66,1.15.94.6.61,1.18,1.24,1.8,1.83.22.31.64.52.73.9a.53.53,0,0,0,.38.51l.41.48,0,.07.18.37a.26.26,0,0,1,0,.08,10.28,10.28,0,0,1,.44,1l0,.11.16.82a.45.45,0,0,1,0,.11,2.42,2.42,0,0,1,.11,1.25c0,.1.15.31.21.41a33.86,33.86,0,0,1-.07,4.62.87.87,0,0,0-.14.82,4.54,4.54,0,0,1,0,1.22l-.2.41a4.58,4.58,0,0,1-.07,1.52.24.24,0,0,1,0,.08c-.09.35-.17.71-.24,1.06,0,0,0,0,0,.07-.06.36-.13.73-.19,1.09a.19.19,0,0,1,0,.07l-.19.75-.2.42,0,.77-.11.14c0,.21-.11.62-.14.83a.24.24,0,0,0,0,.08l-.2.61,0,.08c0,.21-.16.62-.21.83,0,0,0,.07,0,.09l-.21.77-.06.06v.08c0,.15-.08.44-.11.59l-.11.14c0,.16-.08.47-.11.63l-.28.62s0,.07,0,.09l-.16.66c-.07.16-.2.47-.26.63l0,.08c0,.15-.15.46-.21.61l0,.08-.23.57a.54.54,0,0,0,0,.1c0,.13-.08.4-.11.53h-.15c0,.14-.1.41-.13.55l0,.08c-.06.14-.17.43-.22.58l0,.09c-.12.36-.28.71-.43,1.06a.26.26,0,0,0,0,.08l-.17.4a.26.26,0,0,0,0,.08l-.22.58,0,.07-.19.38,0,.09c-.13.36-.27.72-.42,1.07a.26.26,0,0,0,0,.08l-.17.4a.26.26,0,0,0,0,.08l-.19.38,0,.08-.19.38,0,.08-.17.44c-.25.5-.51,1-.74,1.52a.21.21,0,0,0,0,.07c-.15.28-.29.56-.42.85a.21.21,0,0,0,0,.07c-.36.67-.68,1.37-1.08,2l0,.07-.19.37,0,.07-.21.36,0,.07c-.14.23-.26.46-.38.69l-.24.4a.18.18,0,0,1,0,.07c-.22.36-.43.72-.64,1.08l0,.07-.16.29a4.65,4.65,0,0,1,1.49.1,1.5,1.5,0,0,0,1.44,0h.22a8.74,8.74,0,0,1,2-.08l.41-.2,1-.08.14-.12a4.22,4.22,0,0,1,1.23,0l.4-.23a7.7,7.7,0,0,1,1.44,0l.13.11.67.11a4.32,4.32,0,0,1,.45.5.72.72,0,0,0,.43.47l.29.18c0,.12.08.36.11.49a.54.54,0,0,1,0,.1,4.46,4.46,0,0,1,0,2,.14.14,0,0,1,0,.07c0,.17-.14.5-.18.66l-.27.64a.26.26,0,0,0,0,.08l-.19.39,0,.08-.19.37,0,.08a9.71,9.71,0,0,1-.87,1.32l0,.07a19,19,0,0,1-2.24,2.24l-.07,0-.62.41-.07,0c-.36.22-.72.44-1.1.63l-.07,0-.57.22-.08,0-.62.22-.07,0-.64.26a6.61,6.61,0,0,0-.89.15l-.08,0a11.17,11.17,0,0,1-2.44.45l-.07,0a15.72,15.72,0,0,1-1.67.16,17,17,0,0,1-2.57,0c-.56-.06-1.13,0-1.68-.16l-.07,0-.3-.15a3.66,3.66,0,0,1-.08,1,.24.24,0,0,1,0,.08,9.47,9.47,0,0,0-.16,2.13L78,67a7.6,7.6,0,0,1,0,1.43l-.22.4a6,6,0,0,1-.06,1.75.25.25,0,0,0,0,.07c-.18.39-.06.84-.23,1.24a.87.87,0,0,0-.14.82,3,3,0,0,1,0,1c-.06.1-.17.31-.22.41a5.17,5.17,0,0,1,0,1.52.14.14,0,0,1,0,.07c-.14.42-.13.86-.24,1.29,0,0,0,.05,0,.07-.07.36-.13.72-.19,1.09a.24.24,0,0,1,0,.08c0,.21-.16.63-.21.84a.24.24,0,0,1,0,.08l-.24.81L76,80c0,.15-.15.45-.21.6l0,.08-.17.4a.26.26,0,0,0,0,.08l-.17.44-.25.4,0,.09c0,.11-.11.33-.15.43A10.19,10.19,0,0,1,73.81,84c-.36.35-.73.7-1.08,1.06-.23.18-.41.51-.72.53a.41.41,0,0,0-.47.41l-.26.17-.06,0c-.28.17-.58.32-.86.48a5.42,5.42,0,0,1-.84.33v.17a1,1,0,0,0-.76.2l-.45.16-.08,0-.58.18-.13.11H67l-.42.2-.53.15-.09,0c-.35.08-.7.16-1,.22h-.07a3.27,3.27,0,0,1-1.28.1l-.41.21c-1.07,0-2.15,0-3.22,0l-.4-.22-.83-.06-.08,0a7,7,0,0,0-.89-.18L57.1,88l-.05,0H57l-.6-.23a6.1,6.1,0,0,1-.72-.37l-.07,0-.36-.21-.06,0a4,4,0,0,1-.75-.6c-.44-.45-.9-.87-1.36-1.3L52.91,85c0-.09-.08-.28-.11-.37a.65.65,0,0,0-.4-.52L52.13,84c-.05-.12-.16-.37-.21-.5a9.58,9.58,0,0,1-.39-.93l0-.08c0-.14-.16-.43-.22-.57l0-.08c0-.21,0-.62-.06-.83s-.17-.31-.22-.41,0-.52-.06-.69-.12-.34-.17-.45a4.46,4.46,0,0,1,0-1.21l-.21-.41a6.59,6.59,0,0,1,0-1.66.52.52,0,0,0-.17-.61,6.5,6.5,0,0,1-.06-1.92.9.9,0,0,0-.14-.82c-.25-1.67,0-3.44-.17-5.15v-.56l.06-.33a1.19,1.19,0,0,0,0-.83l-.37-.31a1.5,1.5,0,0,1-1,.53v.15l-.49.14-.13,0-.6.17-.1,0a1.94,1.94,0,0,1-1,.13L45.9,67a23.11,23.11,0,0,1-2.76,0l-.41-.21a3.38,3.38,0,0,1-1.45-.09l-.06-.08h-.09a9.47,9.47,0,0,1-1.07-.13l-.07,0c-.36-.08-.71-.16-1.07-.22l-.07,0c-.34-.08-.67-.15-1-.21l-.12-.07-.38-.15-.08,0-.68-.17c-.82-.46-2-.78-2.2-1.83a9.75,9.75,0,0,1-1.18,1l-.06,0-.61.44-.06,0a4.52,4.52,0,0,1-.85.43l-.07,0-.36.18-.11.08a4.61,4.61,0,0,1-1,0,2.62,2.62,0,0,0-.79,0A2.92,2.92,0,0,1,28,66l-.09,0-.45-.13a13,13,0,0,1-1.32-.72L26,65a2.78,2.78,0,0,1-.7-.62.48.48,0,0,0-.49-.41H24.6l0-.27c0-.49-.38-.77-.8-.9a2.74,2.74,0,0,1-.67-.73.15.15,0,0,0-.05-.06c-.21-.29-.43-.57-.63-.85l-.05-.07c-.1-.16-.31-.47-.42-.63l0-.06c-.23-.35-.43-.72-.65-1.08l0-.08L21,58.92l0-.07a6.85,6.85,0,0,1-.37-.71c-.06-.1-.18-.3-.25-.4l0-.07-.42-.85a.21.21,0,0,1,0-.07c-.17-.36-.33-.72-.5-1.07-.06-.11-.18-.34-.25-.45s-.09-.34-.13-.45l0-.1-.2-.37,0-.07c0-.13-.11-.4-.15-.53h-.16A2.61,2.61,0,0,0,18,52.48L17.86,52l0-.1c-.08-.15-.23-.44-.3-.59a11.77,11.77,0,0,0-.36-1.15l0-.08c-.06-.14-.16-.43-.22-.58l0-.08-.21-.61,0-.08c-.07-.16-.2-.48-.26-.64-.05-.4-.32-.72-.35-1.12v-.07l0-.07a12.41,12.41,0,0,1-.47-1.46s0-.06,0-.08-.14-.46-.19-.61,0-.06,0-.08-.14-.47-.18-.63l0-.09-.2-.6,0-.08-.24-.81s0-.06,0-.08-.05-.44-.06-.59-.14-.32-.19-.42l-.17-.51s0-.06,0-.08L14,39.9a.24.24,0,0,1,0-.08l-.2-.59-.05-.12c0-.21-.11-.62-.15-.82,0,0,0-.08,0-.1l-.24-.81a.24.24,0,0,0,0-.08c0-.2-.13-.61-.18-.81L13,36.36c0-.2-.08-.61-.11-.81v-.09l-.07-.06-.19-.75-.08-.14a9.2,9.2,0,0,0-.12-1l0-.11c0-.2-.07-.59-.09-.79s-.15-.31-.21-.41-.1-.54-.13-.72l-.11-.14a3.87,3.87,0,0,1,0-1l-.2-.42c0-.19-.13-.56-.18-.75,0,0,0-.06,0-.08a3.44,3.44,0,0,1-.06-1.28l-.21-.41c-.05-.33-.11-.66-.18-1a.24.24,0,0,0,0-.08,9.52,9.52,0,0,1-.1-1.92l-.17-.44a23,23,0,0,1,0-3.71.53.53,0,0,0,.17-.61,13.64,13.64,0,0,1,0-2.12l.21-.41a3.5,3.5,0,0,1,0-1l.22-.4c0-.2,0-.6,0-.8l.1-.13.19-.75L11.7,14v-.09l.08-.66.28-.63a.26.26,0,0,0,0-.08c.06-.14.17-.44.22-.58l0-.08A7.33,7.33,0,0,1,13,10.47a11.11,11.11,0,0,1,.7-1.32l0-.07c.1-.16.31-.47.41-.64a.21.21,0,0,0,0-.07l.43-.48L15,7.71l.12-.5a10.32,10.32,0,0,1,1.91-2l.06,0a18,18,0,0,1,2-1.31l.07,0,.37-.21.07,0,.38-.19.08,0,.38-.18.08,0,.63-.27.42-.16.1,0,.61-.17.1,0L23,2.37l.42-.2L24,2l.09,0c.41-.14.86-.11,1.27-.24l.08,0a2.16,2.16,0,0,1,1.07-.06.53.53,0,0,0,.61-.17,42.73,42.73,0,0,1,5.77,0,.55.55,0,0,0,.61.18,5.79,5.79,0,0,1,1.44,0l.41.2A3.51,3.51,0,0,1,36.6,2l.08,0a8.05,8.05,0,0,0,1,.18l.41.21.83.06.08,0a9.63,9.63,0,0,0,1.07.21l.07,0,.78.25L41,3H41l.81.18.1,0,.6.17.13.06.63.14a1,1,0,0,0,1.07.08l.08,0,.37-.19.08,0,.41-.25.43-.17.09,0,.39-.17.07,0,.53-.15V2.35l.5,0,.44-.19.52-.27a5.67,5.67,0,0,0,.9-.16l.08,0,.84-.22.07,0a4.84,4.84,0,0,1,1.52-.05l.4-.23c1.61-.05,3.22-.05,4.82,0l.41.22a6.83,6.83,0,0,1,1.75.06l.07,0c.35.09.71.16,1.07.22l.08,0,1,.21c.14.3.28.29.42,0l.53-.18.08,0,.59-.19L63,1.5l.83-.15.1,0,.8-.25.07,0c.36-.06.72-.12,1.07-.21l.08,0c.43-.1.88-.08,1.3-.22l.08,0A3.3,3.3,0,0,1,68.66.51,1.83,1.83,0,0,1,69.05.3ZM69.53,3a7.42,7.42,0,0,0-1.94.09l-.08,0c-.42.14-.88.07-1.29.25h-.07a9.38,9.38,0,0,1-1.05.12L65,3.63l-.82.18-.08,0-.83.24-.07,0a1.2,1.2,0,0,0-.85.31,3.68,3.68,0,0,1-1.15-.07l-.07,0a5.66,5.66,0,0,0-1.59-.16c-.42-.37-1-.17-1.52-.22-.17-.33-.45-.38-.82-.15L57,3.8H57a26.08,26.08,0,0,0-3.75,0c-.34-.24-.55-.17-.61.19a2.67,2.67,0,0,0-1.26.12l-.09,0a7.88,7.88,0,0,0-1.29.2l-.07,0-.59.15-.14.08-.6.1-.21.1-.07,0c-.35.14-.71.26-1.05.42l0,0a2.08,2.08,0,0,1-.67.47,4.24,4.24,0,0,0-.7.37l-.06,0-.39.29a.73.73,0,0,1-.67.18l-.09,0c-.42-.16-.85-.3-1.28-.42l-.09,0c-.71-.32-1.48-.36-2.2-.66l-.08,0-.82-.18L40,5.11l-.53,0L39,4.92l-.76-.15-.07,0a8.42,8.42,0,0,0-1.32-.2l-.07,0a2.22,2.22,0,0,0-1-.13l-.41-.22c-.62,0-1.25,0-1.87,0L33.06,4c-1.6-.08-3.22-.08-4.82,0l-.44.18a5.71,5.71,0,0,0-1.7.1l-.08,0-.83.23-.09,0-.86.09-.2.11-.07,0-.61.2-.08,0-.62.18-.08,0L22,5.42l-.07,0-.36.19-.11.05a2.53,2.53,0,0,0-.86.41l-.06,0a8.88,8.88,0,0,0-2.12,1.53c-.39-.13-.55,0-.48.4l-.25.21c-.41-.06-.54.1-.4.5A5.32,5.32,0,0,0,16,10.44l0,.06-.28.39a4.24,4.24,0,0,1-.46.9,15.49,15.49,0,0,0-.82,2.08s0,.05,0,.07c-.06.2-.17.6-.22.8l-.1.13c0,.32-.05.64-.05,1l-.19,0c0,.19-.09.57-.13.76a.24.24,0,0,1,0,.08c-.16.5-.06,1-.19,1.53,0,0,0,.06,0,.08a3,3,0,0,0-.14,1.3c-.5.14-.35,1.1-.11,1.47a38.09,38.09,0,0,0-.07,4c-.22.34-.15.53.2.58a3.36,3.36,0,0,0,.13,1.51.24.24,0,0,0,0,.08c.11.5,0,1,.18,1.54a.24.24,0,0,0,0,.08A2.86,2.86,0,0,0,14,29.94a4.1,4.1,0,0,0,.16,1.35.24.24,0,0,0,0,.08c0,.19.1.58.13.78s.14.3.18.4,0,.59,0,.79l.13.14c0,.32.09.64.13,1l.17.44c0,.13,0,.4,0,.53l.13.14a7.34,7.34,0,0,0,.2,1,.64.64,0,0,0,0,.07l.08.58.24.36c0,.2,0,.6,0,.79l.11.14c.05.2.14.61.19.81,0,0,0,.06,0,.08a3.79,3.79,0,0,0,.29.86,3.89,3.89,0,0,0,.17.89s0,.06,0,.08l.21.61a.24.24,0,0,1,0,.08c0,.19.07.58.09.77H17c0,.19.11.58.15.77a.19.19,0,0,0,0,.07c.13.51.3,1,.46,1.52a.14.14,0,0,0,0,.07c0,.14.07.41.1.55h.18a2.67,2.67,0,0,0,.36,1.43l0,.08c.05.16.14.47.18.63l0,.08c0,.15.15.46.21.61l0,.08c0,.13.1.4.14.53h.17c0,.19.11.57.15.77l0,.07.16.39,0,.08c.06.15.17.44.22.59l0,.08.13.32.2.43.18.33c.09.36.2.72.32,1.07h.16a1.94,1.94,0,0,0,.34,1,.21.21,0,0,1,0,.07,14.62,14.62,0,0,1,.84,1.9h.19v.46h.18a3.91,3.91,0,0,0,.62,1.22l0,.06a14.51,14.51,0,0,0,2,2.83c-.31.31.2.95.56.67a1.39,1.39,0,0,0,.57.58l.06,0a10.2,10.2,0,0,0,1.55,1.12l.06,0c.36.14.72.28,1.09.4l.07,0a5,5,0,0,0,2.43,0l.07,0,.64-.24.44-.19.06,0,.63-.42.06,0a11.42,11.42,0,0,0,2.37-2.39c.4.08.53-.08.41-.48a3.19,3.19,0,0,0,.77-.87c.4,0,.53-.12.38-.52a8.49,8.49,0,0,0,1.22-1.32q.6.09.39-.51a9.72,9.72,0,0,0,1.45-1.56c.37.07.51-.09.41-.47l.33-.34.06-.06a6.57,6.57,0,0,1,.89-.86H42l.39.22.08,0,.37.19.09,0,.62.16.09,0a4.2,4.2,0,0,0,1.52.42l.07,0a4,4,0,0,0,1.5.13c-.2.26-.39.52-.58.79l-.05.06a11.65,11.65,0,0,1-1.79,1.79l-.08,0q-.54.19-1,.42l-.09,0-.86.21-.06,0-.84.22-.07,0a9,9,0,0,0-1.77.43l-.07,0-.62.18-.08,0-.44.15-.41.27-.06,0a2.15,2.15,0,0,0-1.08,1.34.19.19,0,0,1,0,.07l0,.85,0,.08.2.6,0,.07A3.34,3.34,0,0,0,38,63.44l.06,0,.83.51a3.73,3.73,0,0,0,1.08.32v.17l.78.09.08,0,.77.14.44.18a29,29,0,0,0,4.66,0l.08,0,.83-.23.09,0a2.21,2.21,0,0,0,.84-.25l.45-.18.07,0a8,8,0,0,0,1.32-.63l.06,0,.4-.28.22-.14.07,0,.55-.41.5.15a21.7,21.7,0,0,0,.06,3.42c-.24.37-.38,1.32.11,1.48V68c-.37.13-.36.25,0,.36,0,1.78-.08,3.56.08,5.34-.28.35-.23.56.15.64A5.84,5.84,0,0,0,52.69,76q-.42.51.15.63A3.57,3.57,0,0,0,53,78.11a.19.19,0,0,0,0,.07c.05.22.16.65.21.86,0,0,0,0,0,.06a2.26,2.26,0,0,0,.25.85c0,.11.11.34.15.46l0,.09c.27.49.35,1.06.66,1.53l0,.08.15.43.29.39,0,.06a8.12,8.12,0,0,0,1.76,1.8.15.15,0,0,1,.06,0l.64.4.06,0a8.52,8.52,0,0,0,.84.46l.06,0,.39.19.07,0,.62.19.07,0,.55.11.44.18a23.24,23.24,0,0,0,3.44,0l.44-.18.76,0,.14-.12a9.21,9.21,0,0,0,1.72-.43l.07,0,.6-.19.08,0,.32-.13.44-.18.3-.11.08,0,.4-.18.07,0a3.81,3.81,0,0,1,.71-.4c.37-.22.72-.47,1.07-.72l.07,0a6.07,6.07,0,0,0,1.31-1.32l0-.06c.2-.3.45-.56.63-.88l0-.06c.13-.29.27-.58.42-.86l0-.07.22-.36,0-.07c0-.15.14-.46.18-.61s0-.07,0-.09a10.29,10.29,0,0,0,.41-1.3.19.19,0,0,0,0-.07l.12-.8c.06-.1.17-.31.22-.41s0-.55,0-.74l.21-.41a6.45,6.45,0,0,1,.12-1.46s0-.06,0-.08a2.56,2.56,0,0,0,.11-1c0-.1.16-.31.22-.41a7.92,7.92,0,0,1,.12-1.69s0-.06,0-.08a3.1,3.1,0,0,0,.1-1.25l.2-.4c0-.47,0-1,0-1.42l.19-.44a5.52,5.52,0,0,0,0-1.22c.42.1.43-.65.14-.81.21-.47,0-1,.17-1.5a.24.24,0,0,0,0-.08,6.43,6.43,0,0,0,.16-1.81l.28-.55c.37,0,.74,0,1.11,0l.4.2a22.11,22.11,0,0,0,3.73-.06c.16.3.94.3.83-.14a2.91,2.91,0,0,0,1.28-.12l.07,0L85.45,61h.06l.86-.21.07,0a6.65,6.65,0,0,0,1.28-.43l.09,0,.47-.13a2,2,0,0,1,1-.45v-.14a1.61,1.61,0,0,0,.77-.36l.06,0,.63-.42.06,0,.63-.42.06,0a15.21,15.21,0,0,0,1.28-1.13l.06-.06a8.35,8.35,0,0,0,1-1.27c0-.17,0-.49.06-.66.43.08.39-.92,0-.8,0-.12,0-.35,0-.47a3.22,3.22,0,0,0-3.5-.85l-.08,0c-.36,0-.72.11-1.08.19l-.08,0c-.42.13-.89,0-1.3.2l-.08,0a21.74,21.74,0,0,1-5,0l-.08,0-.61-.2-.07,0L81.44,53a2.41,2.41,0,0,1,.35-.72l0-.07a2.57,2.57,0,0,0,.41-.67,5.08,5.08,0,0,0,.46-.68l.27-.4,0-.06a4.64,4.64,0,0,0,.38-.69l.25-.42,0-.07.2-.36,0-.07a12,12,0,0,1,.63-1.1l0-.06c.16-.27.31-.55.45-.83a.21.21,0,0,0,0-.07l1.07-2.08.23-.45.5-1.08,0-.07.19-.39,0-.08.18-.39,0-.08.18-.38,0-.06.19-.45a11.64,11.64,0,0,0,.48-1.09.49.49,0,0,1,0-.07c0-.11.13-.33.17-.45a2.73,2.73,0,0,0,.44-1.22H89l.33-1.06.25-.63,0-.07c.24-.58.44-1.18.66-1.77,0,0,0-.05,0-.06.13-.44.28-.88.44-1.32,0,0,0,0,0-.06l.19-.68a2.4,2.4,0,0,0,.28-.83s0-.07,0-.09l.2-.6s0-.07,0-.09c0-.21.15-.63.21-.83l0-.08.2-.6s0-.06,0-.08c0-.22.14-.64.18-.86,0,0,0-.06,0-.08,0-.2.08-.61.11-.82s.18-.27.23-.36l.08-.6a.14.14,0,0,1,0-.07c.16-.41.11-.86.24-1.28a.24.24,0,0,1,0-.08c0-.2.08-.6.1-.8s.16-.31.22-.41a9.12,9.12,0,0,1,.09-1.48.14.14,0,0,1,0-.07,3.67,3.67,0,0,0,.14-1.51c.47.05.41-.81.13-1a10,10,0,0,0,0-2.89v-.08l.06-.19c.22-.39.15-.62-.18-.72a3.51,3.51,0,0,0-.14-1.29.19.19,0,0,0,0-.07L93.11,14a.24.24,0,0,0,0-.08l-.23-.83a.19.19,0,0,0,0-.07c0-.16-.14-.47-.19-.62l0-.07L92.43,12l0-.06a6.87,6.87,0,0,0-.66-.87l0-.06a17.6,17.6,0,0,0-2.93-2.92L88.69,8a5.1,5.1,0,0,0-.76-.58c.06-.37-.09-.51-.46-.42l-.54-.34-.06,0c-.36-.23-.73-.44-1.1-.66l-.06,0-.36-.21-.07,0c-.28-.15-.57-.3-.86-.43l-.07,0L84,5l-.08,0-.54-.14V4.72a6.3,6.3,0,0,1-1-.36l-.08,0-.69-.15L81,4l-.35-.24-.78-.06-.13-.13-.76,0-.44-.18-.75,0-.35-.25a8,8,0,0,1-2-.08l-.08,0A35.36,35.36,0,0,0,70,2.91,1,1,0,0,0,69.53,3Z"/><path class="cls-1" d="M49.4,52.41l0,.15S49.41,52.44,49.4,52.41Z"/><g class="cls-2"><path class="cls-1" d="M0,113.57V96.15H6.08a6.41,6.41,0,0,1,4.28,1.23,4.58,4.58,0,0,1,1.43,3.67,4.4,4.4,0,0,1-1.6,3.74A8,8,0,0,1,5.3,106H1.6v7.56Zm1.6-9H5.32a6.38,6.38,0,0,0,3.7-.83A3.16,3.16,0,0,0,10.15,101a3.21,3.21,0,0,0-1-2.61A4.88,4.88,0,0,0,6,97.58H1.6Z"/><path class="cls-1" d="M13,107.3a7.26,7.26,0,0,1,1.51-4.89,5.35,5.35,0,0,1,4.25-1.73,5.42,5.42,0,0,1,4.28,1.73,7.21,7.21,0,0,1,1.52,4.89,7.13,7.13,0,0,1-1.52,4.86,5.39,5.39,0,0,1-4.28,1.73,5.35,5.35,0,0,1-4.25-1.72A7.19,7.19,0,0,1,13,107.3Zm1.51,0a6.17,6.17,0,0,0,1.11,3.93,3.8,3.8,0,0,0,3.14,1.39A3.82,3.82,0,0,0,22,111.24a7.55,7.55,0,0,0,0-7.88A3.8,3.8,0,0,0,18.79,102a3.8,3.8,0,0,0-3.14,1.39A6.2,6.2,0,0,0,14.54,107.3Z"/><path class="cls-1" d="M26.65,109.66H28.1a2.86,2.86,0,0,0,1,2.11,3.49,3.49,0,0,0,2.38.81A4.35,4.35,0,0,0,34,112a2,2,0,0,0,.9-1.69c0-1-1.11-1.79-3.34-2.33h-.06a9.46,9.46,0,0,1-3.62-1.43,2.71,2.71,0,0,1-.91-2.18,3.27,3.27,0,0,1,1.2-2.63,4.71,4.71,0,0,1,3.13-1,5,5,0,0,1,3.37,1.06A4,4,0,0,1,36,104.68H34.52a2.72,2.72,0,0,0-1-2,3.57,3.57,0,0,0-2.34-.71,3.34,3.34,0,0,0-2.06.59,1.87,1.87,0,0,0-.76,1.56c0,1.12,1.14,1.95,3.43,2.49l.67.14a7,7,0,0,1,3,1.33,2.92,2.92,0,0,1,.84,2.23,3.13,3.13,0,0,1-1.32,2.6,5.56,5.56,0,0,1-3.47,1A5.09,5.09,0,0,1,28,112.75,4.08,4.08,0,0,1,26.65,109.66Z"/><path class="cls-1" d="M41,97.39V101h2.33v1.18H41v9.17a1.93,1.93,0,0,0,.2,1.06.86.86,0,0,0,.72.26,3.25,3.25,0,0,0,.51,0c.19,0,.49-.08.89-.17v1.16a8.85,8.85,0,0,1-1,.2,4.89,4.89,0,0,1-.83.07,1.86,1.86,0,0,1-1.53-.55,3.25,3.25,0,0,1-.45-2v-9.17H37.82V101h1.72V97.39Z"/><path class="cls-1" d="M56.43,101v11.92a5.81,5.81,0,0,1-1.51,4.34,6.14,6.14,0,0,1-4.45,1.47,5.89,5.89,0,0,1-3.56-1,3.5,3.5,0,0,1-1.48-2.69h1.49a2.33,2.33,0,0,0,1,1.76,4.39,4.39,0,0,0,2.49.62,4.67,4.67,0,0,0,3.41-1.13A4.48,4.48,0,0,0,55,113v-1.55a5.2,5.2,0,0,1-1.86,1.87,5,5,0,0,1-2.52.62,5.06,5.06,0,0,1-4.08-1.76,8.58,8.58,0,0,1,0-9.68,5.12,5.12,0,0,1,8.43.71V101Zm-9.84,6.3a6.1,6.1,0,0,0,1.13,3.92,3.73,3.73,0,0,0,3.1,1.43A3.8,3.8,0,0,0,54,111.24a6.22,6.22,0,0,0,1.12-3.94A6.14,6.14,0,0,0,54,103.36a4.25,4.25,0,0,0-6.28,0A6.17,6.17,0,0,0,46.59,107.3Z"/><path class="cls-1" d="M59.67,113.57V101h1.4v2.2a4.15,4.15,0,0,1,1.51-1.89,4.23,4.23,0,0,1,2.37-.63h.17v1.53h-.19a3.48,3.48,0,0,0-2.82,1.11,5,5,0,0,0-.94,3.32v6.93Z"/><path class="cls-1" d="M68,107.56v.07a5.67,5.67,0,0,0,1.11,3.68,3.63,3.63,0,0,0,3,1.36,3.78,3.78,0,0,0,2.47-.8,3.38,3.38,0,0,0,1.21-2.18h1.45a4.53,4.53,0,0,1-1.65,3.07A5.49,5.49,0,0,1,72,113.91a5,5,0,0,1-4-1.73,7.31,7.31,0,0,1-1.45-4.83,7.45,7.45,0,0,1,1.46-4.91A5,5,0,0,1,72,100.68a4.89,4.89,0,0,1,4,1.68,7.17,7.17,0,0,1,1.41,4.72v.48Zm0-1.17h7.88a5.26,5.26,0,0,0-1.13-3.27A3.48,3.48,0,0,0,72,101.94a3.62,3.62,0,0,0-2.81,1.21A5.12,5.12,0,0,0,68,106.39Z"/></g><g class="cls-2"><path class="cls-1" d="M80.31,107.2h1.93a5,5,0,0,0,1.57,3.86,6.35,6.35,0,0,0,4.34,1.37A6.1,6.1,0,0,0,92,111.32a3.66,3.66,0,0,0,1.41-3,3.61,3.61,0,0,0-1-2.74,9.36,9.36,0,0,0-3.93-1.7l-2-.5a9.57,9.57,0,0,1-4.46-2.11,5,5,0,0,1-1.24-3.59,5.08,5.08,0,0,1,1.87-4.1,7.62,7.62,0,0,1,5-1.54,7.46,7.46,0,0,1,5.18,1.68,6.19,6.19,0,0,1,1.91,4.72h-2a4.55,4.55,0,0,0-1.4-3.47A5.5,5.5,0,0,0,87.6,93.7a5.56,5.56,0,0,0-3.59,1,3.63,3.63,0,0,0-1.27,3,3.14,3.14,0,0,0,.83,2.29,5.88,5.88,0,0,0,2.74,1.31l2.46.61a11.67,11.67,0,0,1,5.11,2.31,5.09,5.09,0,0,1,1.47,3.86,5.52,5.52,0,0,1-1.93,4.46,8,8,0,0,1-5.29,1.63,8.53,8.53,0,0,1-5.79-1.77,6.33,6.33,0,0,1-2-5Z"/><path class="cls-1" d="M115.88,115.13l-3-2.4a6.78,6.78,0,0,1-2.21,1.07,10.75,10.75,0,0,1-2.92.36,8.83,8.83,0,0,1-7-3c-1.74-2-2.6-4.69-2.6-8.1S99,97,100.73,95a9.79,9.79,0,0,1,14.07,0,11.88,11.88,0,0,1,2.61,8.1,14.56,14.56,0,0,1-.77,5,9,9,0,0,1-2.36,3.56l2.66,2.16Zm-4.47-3.6-2.49-2,1.06-1.34,2.9,2.31a7.31,7.31,0,0,0,1.9-3,13.41,13.41,0,0,0,.64-4.37,10.54,10.54,0,0,0-2.07-6.87,6.88,6.88,0,0,0-5.6-2.53,6.81,6.81,0,0,0-5.55,2.55,10.56,10.56,0,0,0-2.07,6.85,10.4,10.4,0,0,0,2.08,6.87,7.06,7.06,0,0,0,5.71,2.49,7.91,7.91,0,0,0,1.89-.22A6.12,6.12,0,0,0,111.41,111.53Z"/><path class="cls-1" d="M121.18,113.57v-21h2v19.31h10.74v1.73Z"/></g></g></g></svg>