<svg xmlns="http://www.w3.org/2000/svg" viewBox="0 0 131.2 23.47"><defs><style>.cls-1{fill:#6c9;}</style></defs><title>Recurso 5</title><g id="Capa_2" data-name="Capa 2"><g id="Capa_1-2" data-name="Capa 1"><path class="cls-1" d="M.23,20.62A1.15,1.15,0,0,1,0,19.88a.7.7,0,0,1,.39-.58A.73.73,0,0,1,1,19.11a1,1,0,0,1,.61.31,6.7,6.7,0,0,0,2.05,1.77,5.76,5.76,0,0,0,2.86.67,5.31,5.31,0,0,0,1.74-.3,3.38,3.38,0,0,0,1.42-.91,2.17,2.17,0,0,0,.56-1.55,2.15,2.15,0,0,0-.56-1.55,4.14,4.14,0,0,0-1.46-.94A14.41,14.41,0,0,0,6.27,16c-.71-.19-1.39-.4-2-.64a7.38,7.38,0,0,1-1.77-.91,4.24,4.24,0,0,1-1.24-1.33,3.78,3.78,0,0,1-.45-1.91,3.93,3.93,0,0,1,.7-2.32,4.58,4.58,0,0,1,2-1.56A6.61,6.61,0,0,1,6.2,6.77,8.19,8.19,0,0,1,7.92,7a6.9,6.9,0,0,1,1.78.67,5.39,5.39,0,0,1,1.56,1.28.87.87,0,0,1,.28.64.93.93,0,0,1-.31.67.85.85,0,0,1-.58.17.75.75,0,0,1-.55-.27A4.86,4.86,0,0,0,8.32,8.86,5.85,5.85,0,0,0,6.1,8.44a5.07,5.07,0,0,0-1.71.28,3.14,3.14,0,0,0-1.33.88,2.29,2.29,0,0,0-.53,1.56,2.15,2.15,0,0,0,.64,1.47,4.58,4.58,0,0,0,1.53.94,19.31,19.31,0,0,0,2.14.69c.67.17,1.31.37,1.92.59a6.63,6.63,0,0,1,1.63.86A3.83,3.83,0,0,1,11.52,17a4.14,4.14,0,0,1,.42,2,3.81,3.81,0,0,1-.77,2.38,4.77,4.77,0,0,1-2.05,1.53,7.46,7.46,0,0,1-2.85.53A8.38,8.38,0,0,1,3,22.76,6.68,6.68,0,0,1,.23,20.62Z"/><path class="cls-1" d="M31.77,15.15a8.76,8.76,0,0,1-1,4.27,7.62,7.62,0,0,1-6.89,4,7.66,7.66,0,0,1-4-1.08,7.83,7.83,0,0,1-2.85-3,8.66,8.66,0,0,1-1.05-4.27A8.63,8.63,0,0,1,17,10.86a8,8,0,0,1,2.85-3,8,8,0,0,1,8.09,0,7.89,7.89,0,0,1,2.82,3A8.73,8.73,0,0,1,31.77,15.15Zm-1.88,0a7.18,7.18,0,0,0-.78-3.39A6,6,0,0,0,27,9.43a6.1,6.1,0,0,0-6.18,0,6,6,0,0,0-2.17,2.33,7.07,7.07,0,0,0-.8,3.39,7,7,0,0,0,.8,3.38,6.17,6.17,0,0,0,2.17,2.33,6,6,0,0,0,6.18,0,6,6,0,0,0,2.14-2.33A7.14,7.14,0,0,0,29.89,15.15Z"/><path class="cls-1" d="M43.88,6.79a10.74,10.74,0,0,1,2.75.33,6.11,6.11,0,0,1,2,.89,1.57,1.57,0,0,1,.77,1.22,1,1,0,0,1-.22.61.7.7,0,0,1-.59.3A1.08,1.08,0,0,1,48,10a2.07,2.07,0,0,1-.45-.44,1.67,1.67,0,0,0-.66-.45,3.86,3.86,0,0,0-1.17-.36A9.86,9.86,0,0,0,44,8.58a5.81,5.81,0,0,0-3.16.88,6.27,6.27,0,0,0-2.22,2.35,6.77,6.77,0,0,0-.81,3.32,7.23,7.23,0,0,0,.78,3.38A5.82,5.82,0,0,0,44,21.73a6.52,6.52,0,0,0,1.92-.22A5.4,5.4,0,0,0,47,21a3,3,0,0,0,.89-.67.86.86,0,0,1,.7-.33.79.79,0,0,1,.61.23.88.88,0,0,1,.2.61c0,.33-.25.7-.74,1.11a6.44,6.44,0,0,1-2,1.06,9,9,0,0,1-3,.45,7.59,7.59,0,0,1-4.08-1.09,7.49,7.49,0,0,1-2.75-3,9.08,9.08,0,0,1-1-4.27,8.67,8.67,0,0,1,1-4.16,8.08,8.08,0,0,1,2.78-3A7.65,7.65,0,0,1,43.88,6.79Z"/><path class="cls-1" d="M55.24,23.15a.86.86,0,0,1-.67-.28.93.93,0,0,1-.27-.66V.94a.93.93,0,0,1,.27-.66A.88.88,0,0,1,55.24,0a.86.86,0,0,1,.67.28.93.93,0,0,1,.27.66V22.22a.93.93,0,0,1-.27.66A.9.9,0,0,1,55.24,23.15Zm10.6-16a.88.88,0,0,1,.66.3.91.91,0,0,1,.28.64,1,1,0,0,1-.34.72l-10.51,9-.09-2.22,9.39-8.07A.79.79,0,0,1,65.84,7.1Zm.29,16a1,1,0,0,1-.72-.34l-7.1-7.57L59.72,14l7.07,7.54a1,1,0,0,1,.28.72.83.83,0,0,1-.34.69A1.17,1.17,0,0,1,66.13,23.15Z"/><path class="cls-1" d="M79.14,23.47a8.52,8.52,0,0,1-4.25-1A7.38,7.38,0,0,1,72,19.56a8.68,8.68,0,0,1-1-4.32,9.18,9.18,0,0,1,1-4.54,7.67,7.67,0,0,1,2.72-2.89,6.72,6.72,0,0,1,3.55-1A7.48,7.48,0,0,1,81,7.28,6.75,6.75,0,0,1,83.3,8.72a7.13,7.13,0,0,1,1.63,2.33,8.46,8.46,0,0,1,.67,3.19,1,1,0,0,1-.31.64.93.93,0,0,1-.66.27H72.08l-.38-1.69H84l-.41.38v-.63a4.68,4.68,0,0,0-1-2.49,5.39,5.39,0,0,0-2-1.56,5.54,5.54,0,0,0-2.39-.55A5.33,5.33,0,0,0,76.38,9a5,5,0,0,0-1.78,1.17,6,6,0,0,0-1.3,2,7.84,7.84,0,0,0-.5,2.93,7.4,7.4,0,0,0,.75,3.35,5.86,5.86,0,0,0,2.17,2.38,6.38,6.38,0,0,0,3.39.88,5.72,5.72,0,0,0,2-.31,5.92,5.92,0,0,0,1.53-.83,5.72,5.72,0,0,0,1.11-1.08,1,1,0,0,1,.66-.28.76.76,0,0,1,.58.25.8.8,0,0,1,.23.56.86.86,0,0,1-.31.66,8.65,8.65,0,0,1-2.44,2A7,7,0,0,1,79.14,23.47Z"/><path class="cls-1" d="M89.62,7.23h7.29a.83.83,0,0,1,.63.27.89.89,0,0,1,.25.64.85.85,0,0,1-.88.88H89.62a.92.92,0,0,1-.91-.91A.83.83,0,0,1,89,7.48.89.89,0,0,1,89.62,7.23Zm3.22-4.41a.86.86,0,0,1,.67.28,1,1,0,0,1,.27.66V19.47A3,3,0,0,0,94,20.78a1.18,1.18,0,0,0,.61.58,2.21,2.21,0,0,0,.75.14,1.25,1.25,0,0,0,.45-.08,1.29,1.29,0,0,1,.45-.08.64.64,0,0,1,.49.22.77.77,0,0,1,.2.56.88.88,0,0,1-.5.74,2.26,2.26,0,0,1-1.19.3c-.19,0-.47,0-.84-.05a3.38,3.38,0,0,1-1.16-.34,2.37,2.37,0,0,1-1-1.05,4.63,4.63,0,0,1-.41-2.16V3.76a.9.9,0,0,1,.28-.66A1,1,0,0,1,92.84,2.82Z"/><path class="cls-1" d="M104.77,22.19a1,1,0,0,1-.33.69.94.94,0,0,1-.67.28.91.91,0,0,1-.72-.28,1,1,0,0,1-.25-.69v-20a.94.94,0,0,1,.28-.69,1,1,0,0,1,.72-.28.94.94,0,0,1,.67.28.92.92,0,0,1,.3.69Z"/><path class="cls-1" d="M131.2,12.2a12.8,12.8,0,0,1-.77,4.52,10.86,10.86,0,0,1-2.17,3.57,9.93,9.93,0,0,1-3.33,2.35,11.12,11.12,0,0,1-8.43,0,9.71,9.71,0,0,1-3.32-2.35A10.8,10.8,0,0,1,111,16.72a12.62,12.62,0,0,1-.78-4.52A12.62,12.62,0,0,1,111,7.68a10.8,10.8,0,0,1,2.19-3.57,9.89,9.89,0,0,1,3.32-2.35,10.39,10.39,0,0,1,4.22-.83,10.58,10.58,0,0,1,4.21.83,9.65,9.65,0,0,1,3.33,2.35,10.69,10.69,0,0,1,2.17,3.57A12.88,12.88,0,0,1,131.2,12.2Zm-2,0a10.62,10.62,0,0,0-1.09-4.9,8.32,8.32,0,0,0-3-3.3,8.12,8.12,0,0,0-4.4-1.19A8.24,8.24,0,0,0,116.32,4a8.13,8.13,0,0,0-3,3.3,10.62,10.62,0,0,0-1.08,4.9,10.62,10.62,0,0,0,1.08,4.9,8.13,8.13,0,0,0,3,3.3,8.73,8.73,0,0,0,8.8,0,8.32,8.32,0,0,0,3-3.3A10.5,10.5,0,0,0,129.2,12.2Z"/></g></g></svg>